<?xml version="1.0" encoding="iso-8859-1"?>
<!-- Generator: Adobe Illustrator 16.0.0, SVG Export Plug-In . SVG Version: 6.00 Build 0)  -->
<!DOCTYPE svg PUBLIC "-//W3C//DTD SVG 1.1//EN" "http://www.w3.org/Graphics/SVG/1.1/DTD/svg11.dtd">
<svg version="1.1" id="Capa_1" xmlns="http://www.w3.org/2000/svg" xmlns:xlink="http://www.w3.org/1999/xlink" x="0px" y="0px"
	 width="533.333px" height="533.334px" viewBox="0 0 533.333 533.334" style="enable-background:new 0 0 533.333 533.334;"
	 xml:space="preserve">
<g>
	<path d="M300,269.526l56.903,56.904l-47.14,47.139l-76.43-76.429V183.333H300V269.526z M433.333,16.667
		c55.229,0,100,44.771,100,100c0,33.846-16.817,63.76-42.548,81.854C466.52,134.435,415.566,83.48,351.48,59.215
		C369.574,33.484,399.488,16.667,433.333,16.667z M181.853,59.215C117.768,83.48,66.813,134.435,42.548,198.52
		C16.817,180.426,0,150.513,0,116.667c0-55.229,44.771-100,100-100C133.846,16.667,163.759,33.484,181.853,59.215z M266.667,83.333
		c-110.458,0-200,89.542-200,200c0,48.268,17.1,92.541,45.57,127.094L100,516.667h33.333l33.333-60.095l-0.004-0.004
		c29.418,17.02,63.571,26.765,100.004,26.765c36.432,0,70.583-9.745,100.002-26.764l-0.002,0.002L400,516.667h33.334
		l-12.241-106.234c28.474-34.555,45.574-78.829,45.574-127.1C466.667,172.876,377.124,83.333,266.667,83.333z M266.667,416.667
		c-73.637,0-133.333-59.696-133.333-133.334c0-73.637,59.696-133.333,133.333-133.333C340.304,150,400,209.696,400,283.333
		C400,356.971,340.304,416.667,266.667,416.667z"/>
</g>
<g>
</g>
<g>
</g>
<g>
</g>
<g>
</g>
<g>
</g>
<g>
</g>
<g>
</g>
<g>
</g>
<g>
</g>
<g>
</g>
<g>
</g>
<g>
</g>
<g>
</g>
<g>
</g>
<g>
</g>
</svg>
