<?xml version="1.0" encoding="iso-8859-1"?>
<!-- Generator: Adobe Illustrator 16.0.0, SVG Export Plug-In . SVG Version: 6.00 Build 0)  -->
<!DOCTYPE svg PUBLIC "-//W3C//DTD SVG 1.1//EN" "http://www.w3.org/Graphics/SVG/1.1/DTD/svg11.dtd">
<svg version="1.1" id="Capa_1" xmlns="http://www.w3.org/2000/svg" xmlns:xlink="http://www.w3.org/1999/xlink" x="0px" y="0px"
	 width="533.333px" height="533.333px" viewBox="0 0 533.333 533.333" style="enable-background:new 0 0 533.333 533.333;"
	 xml:space="preserve">
<g>
	<path d="M266.667,66.667C137.8,66.667,33.333,171.133,33.333,300c0,128.866,104.467,233.333,233.333,233.333
		C395.533,533.333,500,428.866,500,300C500,171.133,395.533,66.667,266.667,66.667z M266.667,487.5
		c-103.554,0-187.5-83.947-187.5-187.5c0-103.554,83.946-187.5,187.5-187.5c103.554,0,187.5,83.946,187.5,187.5
		C454.167,403.553,370.221,487.5,266.667,487.5z M486.866,149.57C495.223,134.959,500,118.038,500,100C500,44.771,455.229,0,400,0
		c-32.196,0-60.834,15.22-79.125,38.852C389.565,53.038,448.586,93.643,486.866,149.57z M212.458,38.852
		C194.169,15.22,165.531,0,133.333,0c-55.229,0-100,44.771-100,100c0,18.038,4.778,34.959,13.133,49.57
		C84.748,93.643,143.77,53.038,212.458,38.852z M233.333,166.667h33.333v166.667h-33.333V166.667z M266.667,300h100v33.333h-100V300
		z"/>
</g>
<g>
</g>
<g>
</g>
<g>
</g>
<g>
</g>
<g>
</g>
<g>
</g>
<g>
</g>
<g>
</g>
<g>
</g>
<g>
</g>
<g>
</g>
<g>
</g>
<g>
</g>
<g>
</g>
<g>
</g>
</svg>
