<?xml version="1.0" encoding="iso-8859-1"?>
<!-- Generator: Adobe Illustrator 16.0.0, SVG Export Plug-In . SVG Version: 6.00 Build 0)  -->
<!DOCTYPE svg PUBLIC "-//W3C//DTD SVG 1.1//EN" "http://www.w3.org/Graphics/SVG/1.1/DTD/svg11.dtd">
<svg version="1.1" id="Capa_1" xmlns="http://www.w3.org/2000/svg" xmlns:xlink="http://www.w3.org/1999/xlink" x="0px" y="0px"
	 width="533.333px" height="533.333px" viewBox="0 0 533.333 533.333" style="enable-background:new 0 0 533.333 533.333;"
	 xml:space="preserve">
<g>
	<path d="M266.667,533.333c147.275,0,266.667-119.391,266.667-266.666C533.333,119.391,413.942,0,266.667,0
		C119.391,0,0,119.391,0,266.667C0,413.942,119.391,533.333,266.667,533.333z M266.667,50c119.661,0,216.667,97.005,216.667,216.667
		c0,119.661-97.006,216.666-216.667,216.666C147.005,483.333,50,386.328,50,266.667C50,147.005,147.005,50,266.667,50z
		 M366.717,406.636C346.314,372.704,309.143,350,266.667,350c-42.477,0-79.648,22.704-100.051,56.636l-42.879-25.728
		C152.882,332.434,205.984,300,266.667,300c60.682,0,113.784,32.434,142.93,80.908L366.717,406.636z M399.501,145.958
		c2.23,8.929-3.198,17.978-12.128,20.21c-9.179,2.317-20.063,6.312-29.653,11.12c5.546,5.953,8.944,13.933,8.944,22.711
		c0,18.409-14.924,33.333-33.333,33.333S299.998,218.409,299.998,200c0-0.609,0.021-1.213,0.051-1.815
		c1.061-24.715,23.549-41.117,42.496-50.592c18.095-9.047,35.99-13.573,36.744-13.762
		C388.22,131.598,397.267,137.028,399.501,145.958z M133.832,145.958c2.233-8.931,11.281-14.36,20.211-12.127
		c0.753,0.189,18.649,4.715,36.744,13.762c18.948,9.475,41.438,25.877,42.496,50.592c0.032,0.602,0.051,1.206,0.051,1.815
		c0,18.409-14.924,33.333-33.333,33.333S166.667,218.409,166.667,200c0-8.778,3.399-16.758,8.945-22.711
		c-9.591-4.808-20.474-8.803-29.654-11.12C137.03,163.937,131.601,154.887,133.832,145.958z"/>
</g>
<g>
</g>
<g>
</g>
<g>
</g>
<g>
</g>
<g>
</g>
<g>
</g>
<g>
</g>
<g>
</g>
<g>
</g>
<g>
</g>
<g>
</g>
<g>
</g>
<g>
</g>
<g>
</g>
<g>
</g>
</svg>
