<?xml version="1.0" encoding="iso-8859-1"?>
<!-- Generator: Adobe Illustrator 16.0.0, SVG Export Plug-In . SVG Version: 6.00 Build 0)  -->
<!DOCTYPE svg PUBLIC "-//W3C//DTD SVG 1.1//EN" "http://www.w3.org/Graphics/SVG/1.1/DTD/svg11.dtd">
<svg version="1.1" id="Capa_1" xmlns="http://www.w3.org/2000/svg" xmlns:xlink="http://www.w3.org/1999/xlink" x="0px" y="0px"
	 width="533.333px" height="533.333px" viewBox="0 0 533.333 533.333" style="enable-background:new 0 0 533.333 533.333;"
	 xml:space="preserve">
<g>
	<path d="M266.667,533.333C119.391,533.333,0,413.942,0,266.667C0,119.391,119.391,0,266.667,0
		c147.275,0,266.667,119.391,266.667,266.667C533.333,413.942,413.942,533.333,266.667,533.333z M266.667,50
		C147.005,50,50,147.005,50,266.667c0,119.661,97.005,216.666,216.667,216.666c119.661,0,216.667-97.005,216.667-216.666
		C483.333,147.005,386.328,50,266.667,50z M200,400c-18.409,0-33.333-14.924-33.333-33.333s14.924-33.334,33.333-33.334h86.192
		L143.097,190.237c-13.018-13.018-13.018-34.124,0-47.142c6.508-6.508,15.04-9.762,23.57-9.762s17.062,3.254,23.57,9.762
		l143.097,143.097V200c0-18.409,14.924-33.333,33.333-33.333S400,181.591,400,200v200H200z"/>
</g>
<g>
</g>
<g>
</g>
<g>
</g>
<g>
</g>
<g>
</g>
<g>
</g>
<g>
</g>
<g>
</g>
<g>
</g>
<g>
</g>
<g>
</g>
<g>
</g>
<g>
</g>
<g>
</g>
<g>
</g>
</svg>
