<?xml version="1.0" encoding="iso-8859-1"?>
<!-- Generator: Adobe Illustrator 16.0.0, SVG Export Plug-In . SVG Version: 6.00 Build 0)  -->
<!DOCTYPE svg PUBLIC "-//W3C//DTD SVG 1.1//EN" "http://www.w3.org/Graphics/SVG/1.1/DTD/svg11.dtd">
<svg version="1.1" id="Capa_1" xmlns="http://www.w3.org/2000/svg" xmlns:xlink="http://www.w3.org/1999/xlink" x="0px" y="0px"
	 width="533.333px" height="533.334px" viewBox="0 0 533.333 533.334" style="enable-background:new 0 0 533.333 533.334;"
	 xml:space="preserve">
<g>
	<path d="M0,66.667h66.667V400H0V66.667z M100,66.667h33.333V400H100V66.667z M166.667,66.667H200V400h-33.333V66.667z
		 M266.667,66.667H300V400h-33.333V66.667z M400,66.667h33.334V400H400V66.667z M500,66.667h33.334V400H500V66.667z M333.333,66.667
		H350V400h-16.666V66.667z M233.333,66.667H250V400h-16.667V66.667z M450,66.667h16.667V400H450V66.667z M0,433.333h33.333v33.334H0
		V433.333z M100,433.333h33.333v33.334H100V433.333z M166.667,433.333H200v33.334h-33.333V433.333z M333.333,433.333h33.333v33.334
		h-33.333V433.333z M500,433.333h33.334v33.334H500V433.333z M400,433.333h66.667v33.334H400V433.333z M233.333,433.333H300v33.334
		h-66.667V433.333z"/>
</g>
<g>
</g>
<g>
</g>
<g>
</g>
<g>
</g>
<g>
</g>
<g>
</g>
<g>
</g>
<g>
</g>
<g>
</g>
<g>
</g>
<g>
</g>
<g>
</g>
<g>
</g>
<g>
</g>
<g>
</g>
</svg>
