<?xml version="1.0" encoding="iso-8859-1"?>
<!-- Generator: Adobe Illustrator 16.0.0, SVG Export Plug-In . SVG Version: 6.00 Build 0)  -->
<!DOCTYPE svg PUBLIC "-//W3C//DTD SVG 1.1//EN" "http://www.w3.org/Graphics/SVG/1.1/DTD/svg11.dtd">
<svg version="1.1" id="Capa_1" xmlns="http://www.w3.org/2000/svg" xmlns:xlink="http://www.w3.org/1999/xlink" x="0px" y="0px"
	 width="534.115px" height="534.114px" viewBox="0 0 534.115 534.114" style="enable-background:new 0 0 534.115 534.114;"
	 xml:space="preserve">
<g>
	<path d="M534.115,417.058c0-150-133.333-116.667-133.333-233.333c0-9.667-0.931-17.927-2.63-24.962
		c-8.766-58.864-47.996-106.104-98.84-120.5c0.452-2.056,0.688-4.183,0.688-6.359C300,14.57,285,0.391,266.667,0.391
		c-18.333,0-33.333,14.179-33.333,31.51c0,2.177,0.237,4.304,0.688,6.359c-57.016,16.145-99.434,73.593-100.653,142.418
		c-0.021,1-0.035,2.012-0.035,3.045C133.333,300.391,0,267.058,0,417.058c0,39.701,88.849,72.914,207.797,81.291
		c11.21,21.044,33.363,35.375,58.87,35.375c25.506,0,47.661-14.331,58.87-35.375c118.948-8.377,207.797-41.59,207.797-81.291
		c0-0.119-0.014-0.237-0.015-0.355L534.115,417.058z M430.336,445.232c-28.245,7.536-61.54,12.956-97.274,15.963
		c-2.972-34.072-31.554-60.805-66.395-60.805c-34.842,0-63.424,26.732-66.395,60.805c-35.734-3.007-69.03-8.427-97.275-15.963
		c-38.87-10.372-57.453-21.974-64.254-28.175c6.801-6.201,25.385-17.804,64.254-28.175c45.194-12.059,103.319-18.7,163.67-18.7
		s118.476,6.642,163.669,18.7c38.868,10.371,57.454,21.974,64.254,28.175C487.791,423.259,469.206,434.86,430.336,445.232z"/>
</g>
<g>
</g>
<g>
</g>
<g>
</g>
<g>
</g>
<g>
</g>
<g>
</g>
<g>
</g>
<g>
</g>
<g>
</g>
<g>
</g>
<g>
</g>
<g>
</g>
<g>
</g>
<g>
</g>
<g>
</g>
</svg>
