<?xml version="1.0" encoding="iso-8859-1"?>
<!-- Generator: Adobe Illustrator 16.0.0, SVG Export Plug-In . SVG Version: 6.00 Build 0)  -->
<!DOCTYPE svg PUBLIC "-//W3C//DTD SVG 1.1//EN" "http://www.w3.org/Graphics/SVG/1.1/DTD/svg11.dtd">
<svg version="1.1" id="Capa_1" xmlns="http://www.w3.org/2000/svg" xmlns:xlink="http://www.w3.org/1999/xlink" x="0px" y="0px"
	 width="533.333px" height="533.333px" viewBox="0 0 533.333 533.333" style="enable-background:new 0 0 533.333 533.333;"
	 xml:space="preserve">
<g>
	<path d="M500,116.667H366.667V83.333c0-18.333-15-33.333-33.333-33.333H200c-18.335,0-33.333,15-33.333,33.333v33.333H33.333
		C15,116.667,0,131.667,0,150v300c0,18.334,14.998,33.333,33.333,33.333H500c18.333,0,33.334-14.999,33.334-33.333V150
		C533.333,131.667,518.333,116.667,500,116.667z M200,83.394c0.018-0.021,0.039-0.043,0.06-0.061h133.214
		c0.021,0.018,0.043,0.04,0.062,0.061v33.272H200V83.394z M500,250h-66.666v50c0,9.168-7.501,16.667-16.667,16.667h-33.333
		c-9.169,0-16.667-7.499-16.667-16.667v-50h-200v50c0,9.168-7.5,16.667-16.667,16.667h-33.333c-9.167,0-16.667-7.499-16.667-16.667
		v-50H33.333v-33.333H500V250z"/>
</g>
<g>
</g>
<g>
</g>
<g>
</g>
<g>
</g>
<g>
</g>
<g>
</g>
<g>
</g>
<g>
</g>
<g>
</g>
<g>
</g>
<g>
</g>
<g>
</g>
<g>
</g>
<g>
</g>
<g>
</g>
</svg>
