<?xml version="1.0" encoding="iso-8859-1"?>
<!-- Generator: Adobe Illustrator 16.0.0, SVG Export Plug-In . SVG Version: 6.00 Build 0)  -->
<!DOCTYPE svg PUBLIC "-//W3C//DTD SVG 1.1//EN" "http://www.w3.org/Graphics/SVG/1.1/DTD/svg11.dtd">
<svg version="1.1" id="Capa_1" xmlns="http://www.w3.org/2000/svg" xmlns:xlink="http://www.w3.org/1999/xlink" x="0px" y="0px"
	 width="466.667px" height="466.667px" viewBox="0 0 466.667 466.667" style="enable-background:new 0 0 466.667 466.667;"
	 xml:space="preserve">
<g>
	<path d="M233.333,186.458c-25.847,0-46.875,21.028-46.875,46.875c0,25.846,21.028,46.875,46.875,46.875
		s46.875-21.029,46.875-46.875C280.208,207.486,259.18,186.458,233.333,186.458z M233.333,133.333L233.333,133.333
		c55.229,0,100,44.771,100,100c0,55.229-44.771,100-100,100c-55.229,0-100-44.771-100-100
		C133.333,178.104,178.104,133.333,233.333,133.333z M423.57,376.43c13.019,13.018,13.018,34.123,0,47.14
		c-13.018,13.019-34.122,13.019-47.14,0l-33.333-33.334c-13.019-13.018-13.019-34.121,0-47.139c13.017-13.019,34.122-13.02,47.14,0
		L423.57,376.43z M123.57,76.43c13.019,13.018,13.018,34.123,0,47.14c-13.018,13.019-34.122,13.019-47.14,0L43.097,90.236
		c-13.019-13.018-13.019-34.122,0-47.14c13.017-13.018,34.122-13.019,47.14,0L123.57,76.43z M376.429,43.097
		c13.018-13.019,34.123-13.018,47.14,0c13.019,13.018,13.019,34.122,0.001,47.14l-33.333,33.333
		c-13.019,13.019-34.123,13.019-47.14,0c-13.019-13.017-13.019-34.122,0-47.14L376.429,43.097z M76.43,343.097
		c13.018-13.02,34.122-13.019,47.14,0c13.019,13.018,13.019,34.121,0,47.139L90.237,423.57c-13.018,13.019-34.122,13.019-47.14,0
		c-13.018-13.017-13.019-34.122,0-47.14L76.43,343.097z M233.333,0c18.409,0,33.333,14.924,33.333,33.333v33.333
		c0,18.409-14.924,33.333-33.333,33.333S200,85.076,200,66.667V33.333C200,14.924,214.924,0,233.333,0z M233.333,366.667
		c18.409,0,33.333,14.923,33.333,33.333v33.334c0,18.41-14.924,33.333-33.333,33.333S200,451.744,200,433.333V400
		C200,381.589,214.924,366.667,233.333,366.667z M0,233.333C0,214.924,14.924,200,33.333,200h33.333
		C85.076,200,100,214.924,100,233.333c0,18.41-14.924,33.333-33.333,33.333H33.333C14.924,266.667,0,251.744,0,233.333z
		 M366.667,233.333C366.667,214.924,381.59,200,400,200h33.333c18.41,0,33.333,14.924,33.333,33.333
		c0,18.409-14.923,33.333-33.333,33.333H400C381.59,266.667,366.667,251.743,366.667,233.333z"/>
</g>
<g>
</g>
<g>
</g>
<g>
</g>
<g>
</g>
<g>
</g>
<g>
</g>
<g>
</g>
<g>
</g>
<g>
</g>
<g>
</g>
<g>
</g>
<g>
</g>
<g>
</g>
<g>
</g>
<g>
</g>
</svg>
