<?xml version="1.0" encoding="iso-8859-1"?>
<!-- Generator: Adobe Illustrator 16.0.0, SVG Export Plug-In . SVG Version: 6.00 Build 0)  -->
<!DOCTYPE svg PUBLIC "-//W3C//DTD SVG 1.1//EN" "http://www.w3.org/Graphics/SVG/1.1/DTD/svg11.dtd">
<svg version="1.1" id="Capa_1" xmlns="http://www.w3.org/2000/svg" xmlns:xlink="http://www.w3.org/1999/xlink" x="0px" y="0px"
	 width="500px" height="500px" viewBox="0 0 500 500" style="enable-background:new 0 0 500 500;" xml:space="preserve">
<g>
	<path d="M200,0H33.333C15,0,0,15,0,33.333V200c0,18.333,14.998,33.333,33.333,33.333H200c18.333,0,33.333-15,33.333-33.333V33.333
		C233.333,15,218.333,0,200,0z M200,133.333H33.333V100H200V133.333z M466.667,0H300c-18.335,0-33.333,15-33.333,33.333v433.333
		C266.667,485,281.665,500,300,500h166.667C485,500,500,485,500,466.667V33.333C500,15,485,0,466.667,0z M466.667,300H300v-33.334
		h166.667V300z M466.667,200H300v-33.333h166.667V200z M200,266.667H33.333C15,266.667,0,281.667,0,300v166.666
		C0,485,14.998,500,33.333,500H200c18.333,0,33.333-15.001,33.333-33.334V300C233.333,281.667,218.333,266.667,200,266.667z
		 M200,400h-66.667v66.666H100V400H33.333v-33.334H100V300h33.333v66.666H200V400z"/>
</g>
<g>
</g>
<g>
</g>
<g>
</g>
<g>
</g>
<g>
</g>
<g>
</g>
<g>
</g>
<g>
</g>
<g>
</g>
<g>
</g>
<g>
</g>
<g>
</g>
<g>
</g>
<g>
</g>
<g>
</g>
</svg>
