<?xml version="1.0" encoding="iso-8859-1"?>
<!-- Generator: Adobe Illustrator 16.0.0, SVG Export Plug-In . SVG Version: 6.00 Build 0)  -->
<!DOCTYPE svg PUBLIC "-//W3C//DTD SVG 1.1//EN" "http://www.w3.org/Graphics/SVG/1.1/DTD/svg11.dtd">
<svg version="1.1" id="Capa_1" xmlns="http://www.w3.org/2000/svg" xmlns:xlink="http://www.w3.org/1999/xlink" x="0px" y="0px"
	 width="533.333px" height="533.333px" viewBox="0 0 533.333 533.333" style="enable-background:new 0 0 533.333 533.333;"
	 xml:space="preserve">
<g>
	<path d="M416.667,166.667V83.333c0-9.167-7.5-16.667-16.667-16.667H283.333V33.333C283.333,15,268.333,0,250,0h-66.667
		C164.998,0,150,15,150,33.333v33.333H33.333c-9.167,0-16.667,7.5-16.667,16.667v333.333c0,9.166,7.499,16.666,16.667,16.666h150
		v100h233.333l100-100V166.667H416.667z M183.333,33.393c0.018-0.02,0.038-0.041,0.06-0.06h66.546
		c0.021,0.019,0.042,0.04,0.062,0.06v33.273h-66.667V33.393z M83.333,133.333V100H350v33.333H83.333z M416.667,486.193v-52.86
		h52.859L416.667,486.193z M483.333,400h-100v100H216.667V200h266.667V400z"/>
</g>
<g>
</g>
<g>
</g>
<g>
</g>
<g>
</g>
<g>
</g>
<g>
</g>
<g>
</g>
<g>
</g>
<g>
</g>
<g>
</g>
<g>
</g>
<g>
</g>
<g>
</g>
<g>
</g>
<g>
</g>
</svg>
