<?xml version="1.0" encoding="iso-8859-1"?>
<!-- Generator: Adobe Illustrator 16.0.0, SVG Export Plug-In . SVG Version: 6.00 Build 0)  -->
<!DOCTYPE svg PUBLIC "-//W3C//DTD SVG 1.1//EN" "http://www.w3.org/Graphics/SVG/1.1/DTD/svg11.dtd">
<svg version="1.1" id="Capa_1" xmlns="http://www.w3.org/2000/svg" xmlns:xlink="http://www.w3.org/1999/xlink" x="0px" y="0px"
	 width="550px" height="550px" viewBox="0 0 550 550" style="enable-background:new 0 0 550 550;" xml:space="preserve">
<g>
	<path d="M316.667,41.667C445.533,41.667,550,146.133,550,275c0,128.866-104.467,233.333-233.333,233.333v-50
		c48.97,0,95.009-19.069,129.637-53.696C480.931,370.009,500,323.97,500,275s-19.069-95.01-53.696-129.637
		c-34.628-34.627-80.667-53.697-129.637-53.697c-48.97,0-95.01,19.07-129.637,53.697c-26.635,26.634-44.053,60.024-50.68,96.303
		h96.983L116.667,375L0,241.667h85.714C101.891,128.593,199.119,41.667,316.667,41.667z M416.667,241.667v66.667H283.333V141.667
		H350v100H416.667z"/>
</g>
<g>
</g>
<g>
</g>
<g>
</g>
<g>
</g>
<g>
</g>
<g>
</g>
<g>
</g>
<g>
</g>
<g>
</g>
<g>
</g>
<g>
</g>
<g>
</g>
<g>
</g>
<g>
</g>
<g>
</g>
</svg>
