<?xml version="1.0" encoding="iso-8859-1"?>
<!-- Generator: Adobe Illustrator 16.0.0, SVG Export Plug-In . SVG Version: 6.00 Build 0)  -->
<!DOCTYPE svg PUBLIC "-//W3C//DTD SVG 1.1//EN" "http://www.w3.org/Graphics/SVG/1.1/DTD/svg11.dtd">
<svg version="1.1" id="Capa_1" xmlns="http://www.w3.org/2000/svg" xmlns:xlink="http://www.w3.org/1999/xlink" x="0px" y="0px"
	 width="533.333px" height="533.333px" viewBox="0 0 533.333 533.333" style="enable-background:new 0 0 533.333 533.333;"
	 xml:space="preserve">
<g>
	<path d="M266.667,0C119.391,0,0,119.391,0,266.667c0,147.275,119.388,266.666,266.667,266.666
		c147.275,0,266.667-119.391,266.667-266.666C533.333,119.391,413.942,0,266.667,0z M266.667,433.333
		c-25.239,0-49.158-5.623-70.595-15.667l17.272-28.791C229.675,396.018,247.701,400,266.667,400
		c48.545,0,91.026-25.947,114.346-64.728l28.582,17.152C380.448,400.899,327.349,433.333,266.667,433.333z M433.333,200
		c0,18.333-15.001,33.333-33.334,33.333h-66.666C315,233.333,300,218.333,300,200h-66.667c0,18.333-15,33.333-33.333,33.333h-66.667
		C115,233.333,100,218.333,100,200v-50c0-9.167,7.5-16.667,16.667-16.667h100c9.167,0,16.667,7.5,16.667,16.667v16.667H300V150
		c0-9.167,7.501-16.667,16.667-16.667h100c9.166,0,16.667,7.5,16.667,16.667V200z"/>
</g>
<g>
</g>
<g>
</g>
<g>
</g>
<g>
</g>
<g>
</g>
<g>
</g>
<g>
</g>
<g>
</g>
<g>
</g>
<g>
</g>
<g>
</g>
<g>
</g>
<g>
</g>
<g>
</g>
<g>
</g>
</svg>
