<?xml version="1.0" encoding="iso-8859-1"?>
<!-- Generator: Adobe Illustrator 16.0.0, SVG Export Plug-In . SVG Version: 6.00 Build 0)  -->
<!DOCTYPE svg PUBLIC "-//W3C//DTD SVG 1.1//EN" "http://www.w3.org/Graphics/SVG/1.1/DTD/svg11.dtd">
<svg version="1.1" id="Capa_1" xmlns="http://www.w3.org/2000/svg" xmlns:xlink="http://www.w3.org/1999/xlink" x="0px" y="0px"
	 width="533.333px" height="533.333px" viewBox="0 0 533.333 533.333" style="enable-background:new 0 0 533.333 533.333;"
	 xml:space="preserve">
<g>
	<path d="M444.466,0H88.898C40.005,0,0,40.009,0,88.902v355.533c0,48.922,40.005,88.897,88.898,88.897h355.568
		c48.893,0,88.867-39.975,88.867-88.897V88.902C533.333,40.009,493.359,0,444.466,0z M500,444.436
		c0,14.758-5.802,28.688-16.338,39.228C473.129,494.197,459.209,500,444.466,500h-177.8V266.667H33.333V88.902
		c0-14.744,5.808-28.672,16.353-39.217c10.543-10.545,24.471-16.352,39.213-16.352h177.768v233.333H500V444.436z"/>
</g>
<g>
</g>
<g>
</g>
<g>
</g>
<g>
</g>
<g>
</g>
<g>
</g>
<g>
</g>
<g>
</g>
<g>
</g>
<g>
</g>
<g>
</g>
<g>
</g>
<g>
</g>
<g>
</g>
<g>
</g>
</svg>
