<?xml version="1.0" encoding="iso-8859-1"?>
<!-- Generator: Adobe Illustrator 16.0.0, SVG Export Plug-In . SVG Version: 6.00 Build 0)  -->
<!DOCTYPE svg PUBLIC "-//W3C//DTD SVG 1.1//EN" "http://www.w3.org/Graphics/SVG/1.1/DTD/svg11.dtd">
<svg version="1.1" id="Capa_1" xmlns="http://www.w3.org/2000/svg" xmlns:xlink="http://www.w3.org/1999/xlink" x="0px" y="0px"
	 width="533.333px" height="533.333px" viewBox="0 0 533.333 533.333" style="enable-background:new 0 0 533.333 533.333;"
	 xml:space="preserve">
<g>
	<path d="M450,100H183.333C137.5,100,100,137.5,100,183.333V450c0,45.833,37.5,83.333,83.333,83.333H450
		c45.834,0,83.334-37.5,83.334-83.333V183.333C533.333,137.5,495.833,100,450,100z M216.667,466.667c-27.614,0-50-22.386-50-50
		s22.386-50,50-50s50,22.386,50,50S244.281,466.667,216.667,466.667z M216.667,266.667c-27.614,0-50-22.386-50-50
		c0-27.614,22.386-50,50-50s50,22.386,50,50C266.667,244.281,244.281,266.667,216.667,266.667z M316.667,366.667
		c-27.614,0-50-22.386-50-50s22.386-50,50-50s50,22.386,50,50S344.281,366.667,316.667,366.667z M416.667,466.667
		c-27.614,0-50-22.386-50-50s22.386-50,50-50s50,22.386,50,50S444.281,466.667,416.667,466.667z M416.667,266.667
		c-27.614,0-50-22.386-50-50c0-27.614,22.386-50,50-50s50,22.386,50,50C466.667,244.281,444.281,266.667,416.667,266.667z
		 M431.646,66.667C423.87,28.748,390.13,0,350,0H83.333C37.5,0,0,37.5,0,83.333V350c0,40.129,28.748,73.87,66.667,81.646V100
		c0-18.333,15-33.333,33.333-33.333H431.646z"/>
</g>
<g>
</g>
<g>
</g>
<g>
</g>
<g>
</g>
<g>
</g>
<g>
</g>
<g>
</g>
<g>
</g>
<g>
</g>
<g>
</g>
<g>
</g>
<g>
</g>
<g>
</g>
<g>
</g>
<g>
</g>
</svg>
