<?xml version="1.0" encoding="iso-8859-1"?>
<!-- Generator: Adobe Illustrator 16.0.0, SVG Export Plug-In . SVG Version: 6.00 Build 0)  -->
<!DOCTYPE svg PUBLIC "-//W3C//DTD SVG 1.1//EN" "http://www.w3.org/Graphics/SVG/1.1/DTD/svg11.dtd">
<svg version="1.1" id="Capa_1" xmlns="http://www.w3.org/2000/svg" xmlns:xlink="http://www.w3.org/1999/xlink" x="0px" y="0px"
	 width="480px" height="480px" viewBox="0 0 480 480" style="enable-background:new 0 0 480 480;" xml:space="preserve">
<g>
	<path d="M240,0C107.452,0,0,107.452,0,240c0,132.549,107.452,240,240,240c132.549,0,240-107.451,240-240
		C480,107.452,372.549,0,240,0z M240,432c-106.039,0-192-85.961-192-192S133.961,48,240,48s192,85.961,192,192S346.039,432,240,432z
		 M256,224v-64h64v-32h-64V96h-32v32h-64v128h64v64h-64v32h64v32h32v-32h64h0.002L320,224H256z M224,224h-32v-64h32V224z
		 M288.001,320H256v-64h32.001V320z"/>
</g>
<g>
</g>
<g>
</g>
<g>
</g>
<g>
</g>
<g>
</g>
<g>
</g>
<g>
</g>
<g>
</g>
<g>
</g>
<g>
</g>
<g>
</g>
<g>
</g>
<g>
</g>
<g>
</g>
<g>
</g>
</svg>
