<?xml version="1.0" encoding="iso-8859-1"?>
<!-- Generator: Adobe Illustrator 16.0.0, SVG Export Plug-In . SVG Version: 6.00 Build 0)  -->
<!DOCTYPE svg PUBLIC "-//W3C//DTD SVG 1.1//EN" "http://www.w3.org/Graphics/SVG/1.1/DTD/svg11.dtd">
<svg version="1.1" id="Capa_1" xmlns="http://www.w3.org/2000/svg" xmlns:xlink="http://www.w3.org/1999/xlink" x="0px" y="0px"
	 width="533.333px" height="533.333px" viewBox="0 0 533.333 533.333" style="enable-background:new 0 0 533.333 533.333;"
	 xml:space="preserve">
<g>
	<path d="M398.785,117.888c-3.585,5.107-33.587,45.433-104.457,71.994c-32.658-60.003-68.857-109.297-74.365-116.673
		c14.987-3.613,30.624-5.542,46.705-5.542C317.308,67.667,363.588,86.662,398.785,117.888z M280.6,268.71
		c-102.788,33.227-157.486,123.791-162.001,131.522c-31.831-35.335-51.236-82.07-51.236-133.26c0-2.04,0.041-4.067,0.102-6.092
		c8.721,0.179,105.302,1.423,204.832-28.363c5.704,11.167,11.155,22.501,16.158,33.823
		C285.817,267.084,283.199,267.872,280.6,268.71z M266.667,0C119.391,0,0,119.391,0,266.667
		c0,147.275,119.391,266.666,266.667,266.666c147.275,0,266.667-119.391,266.667-266.666C533.333,119.391,413.942,0,266.667,0z
		 M266.667,500C138.006,500,33.333,395.329,33.333,266.667c0-128.661,104.673-233.333,233.334-233.333
		C395.33,33.333,500,138.006,500,266.667C500,395.329,395.33,500,266.667,500z M322.874,248.387
		c-4.138-9.719-8.584-19.374-13.222-28.869c73.688-30.084,107.089-72.898,111.289-78.583
		c27.756,33.915,44.564,77.111,45.005,124.152c-6.571-1.39-72.462-14.754-138.779-6.415
		C325.77,255.26,324.34,251.832,322.874,248.387z M255.827,201.869c-93.227,24.756-175.338,24.4-184.253,24.282
		c12.924-61.845,54.602-113.246,110.361-139.544C187.188,93.812,222.805,143.166,255.827,201.869z M300.688,299.739
		c0.437-0.152,0.874-0.294,1.312-0.443c27.981,72.711,39.553,133.651,42.52,151.139c-23.932,10.191-50.243,15.839-77.853,15.839
		c-46.075,0-88.542-15.721-122.334-42.073C147.919,416.868,188.273,338.912,300.688,299.739z M339.304,290.086
		c62.456-9.998,117.326,6.37,124.146,8.521c-8.886,55.454-40.714,103.348-85.427,133.579
		C375.981,420.062,365.373,361.72,339.304,290.086z"/>
</g>
<g>
</g>
<g>
</g>
<g>
</g>
<g>
</g>
<g>
</g>
<g>
</g>
<g>
</g>
<g>
</g>
<g>
</g>
<g>
</g>
<g>
</g>
<g>
</g>
<g>
</g>
<g>
</g>
<g>
</g>
</svg>
