<?xml version="1.0" encoding="iso-8859-1"?>
<!-- Generator: Adobe Illustrator 16.0.0, SVG Export Plug-In . SVG Version: 6.00 Build 0)  -->
<!DOCTYPE svg PUBLIC "-//W3C//DTD SVG 1.1//EN" "http://www.w3.org/Graphics/SVG/1.1/DTD/svg11.dtd">
<svg version="1.1" id="Capa_1" xmlns="http://www.w3.org/2000/svg" xmlns:xlink="http://www.w3.org/1999/xlink" x="0px" y="0px"
	 width="533.333px" height="533.333px" viewBox="0 0 533.333 533.333" style="enable-background:new 0 0 533.333 533.333;"
	 xml:space="preserve">
<g>
	<path d="M466.667,233.333H475c13.751,0,25-11.25,25-25V125c0-13.75-11.249-25-25-25h-8.333V0H400v100h-8.333
		c-13.75,0-25,11.25-25,25v83.333c0,13.75,11.25,25,25,25H400v300h66.667V233.333z M400,133.333h66.667V200H400V133.333z
		 M308.334,433.333c13.75,0,25-11.249,25-25V325c0-13.75-11.25-25-25-25H300V0h-66.667v300H225c-13.75,0-25,11.25-25,25v83.333
		c0,13.751,11.25,25,25,25h8.333v100H300v-100H308.334z M233.333,333.333H300V400h-66.667V333.333z M141.667,233.333
		c13.75,0,25-11.25,25-25V125c0-13.75-11.25-25-25-25h-8.333V0H66.667v100h-8.333c-13.75,0-25,11.25-25,25v83.333
		c0,13.75,11.25,25,25,25h8.333v300h66.667v-300H141.667z M66.667,133.333h66.667V200H66.667V133.333z"/>
</g>
<g>
</g>
<g>
</g>
<g>
</g>
<g>
</g>
<g>
</g>
<g>
</g>
<g>
</g>
<g>
</g>
<g>
</g>
<g>
</g>
<g>
</g>
<g>
</g>
<g>
</g>
<g>
</g>
<g>
</g>
</svg>
