<?xml version="1.0" encoding="iso-8859-1"?>
<!-- Generator: Adobe Illustrator 16.0.0, SVG Export Plug-In . SVG Version: 6.00 Build 0)  -->
<!DOCTYPE svg PUBLIC "-//W3C//DTD SVG 1.1//EN" "http://www.w3.org/Graphics/SVG/1.1/DTD/svg11.dtd">
<svg version="1.1" id="Capa_1" xmlns="http://www.w3.org/2000/svg" xmlns:xlink="http://www.w3.org/1999/xlink" x="0px" y="0px"
	 width="533.333px" height="533.333px" viewBox="0 0 533.333 533.333" style="enable-background:new 0 0 533.333 533.333;"
	 xml:space="preserve">
<g>
	<path d="M267.187,400c-68.913,0-136.288-10.089-201.093-30.052l10.546-31.637c61.408,18.834,125.248,28.355,190.547,28.355
		c8.513,0,16.999-0.171,25.46-0.495C294.848,325.777,300,300,300,300s-33.333,0-100,0c0-91.151,31.155-171.903,65.067-232.812H0
		v398.958h294.883c-2.434-23.793-3.284-46.28-3.205-66.583C283.537,399.848,275.373,400,267.187,400z M100,133.333h33.333V200H100
		V133.333z M533.333,67.188H310.871c-1.016,1.665-2.027,3.341-3.042,5.044c-20.01,33.631-35.905,68.104-47.247,102.459
		c-9.482,28.714-15.783,57.412-18.84,85.726h106.696l-9.612,47.309c-0.164,0.842-4.258,22.314-6.356,55.7
		c42.638-4.231,84.491-12.607,125.268-25.111l10.546,31.636c-44.565,13.728-90.344,22.784-137.005,27.105
		c-0.02,2.279-0.029,4.58-0.021,6.918c0.064,21.161,1.222,41.962,3.438,62.174h198.641V67.188z M433.333,200H400v-66.667h33.334V200
		z M305.867,533.333h40.712c-2.842-11.361-5.306-23.016-7.361-34.94c-1.82-10.548-3.324-21.312-4.526-32.247h-39.808
		C297.087,487.697,300.585,510.314,305.867,533.333z M358.566,0H308.36c-13.412,18.162-28.609,40.818-43.292,67.188h45.802
		C328.409,38.379,345.85,15.416,358.566,0z"/>
</g>
<g>
</g>
<g>
</g>
<g>
</g>
<g>
</g>
<g>
</g>
<g>
</g>
<g>
</g>
<g>
</g>
<g>
</g>
<g>
</g>
<g>
</g>
<g>
</g>
<g>
</g>
<g>
</g>
<g>
</g>
</svg>
