<?xml version="1.0" encoding="iso-8859-1"?>
<!-- Generator: Adobe Illustrator 16.0.0, SVG Export Plug-In . SVG Version: 6.00 Build 0)  -->
<!DOCTYPE svg PUBLIC "-//W3C//DTD SVG 1.1//EN" "http://www.w3.org/Graphics/SVG/1.1/DTD/svg11.dtd">
<svg version="1.1" id="Capa_1" xmlns="http://www.w3.org/2000/svg" xmlns:xlink="http://www.w3.org/1999/xlink" x="0px" y="0px"
	 width="536.979px" height="536.979px" viewBox="0 0 536.979 536.979" style="enable-background:new 0 0 536.979 536.979;"
	 xml:space="preserve">
<g>
	<path d="M268.489,0C121.213,0,1.823,120.207,1.823,268.49s119.391,268.489,266.667,268.489
		c147.275,0,266.667-120.206,266.667-268.489S415.765,0,268.489,0z M151.823,350c-46.024,0-83.333-37.31-83.333-83.333
		c0-46.024,37.309-83.333,83.333-83.333c46.024,0,83.333,37.309,83.333,83.333C235.156,312.691,197.847,350,151.823,350z
		 M385.156,350c-46.024,0-83.334-37.31-83.334-83.333c0-46.024,37.31-83.333,83.334-83.333s83.333,37.309,83.333,83.333
		C468.489,312.691,431.181,350,385.156,350z"/>
</g>
<g>
</g>
<g>
</g>
<g>
</g>
<g>
</g>
<g>
</g>
<g>
</g>
<g>
</g>
<g>
</g>
<g>
</g>
<g>
</g>
<g>
</g>
<g>
</g>
<g>
</g>
<g>
</g>
<g>
</g>
</svg>
