<?xml version="1.0" encoding="iso-8859-1"?>
<!-- Generator: Adobe Illustrator 16.0.0, SVG Export Plug-In . SVG Version: 6.00 Build 0)  -->
<!DOCTYPE svg PUBLIC "-//W3C//DTD SVG 1.1//EN" "http://www.w3.org/Graphics/SVG/1.1/DTD/svg11.dtd">
<svg version="1.1" id="Capa_1" xmlns="http://www.w3.org/2000/svg" xmlns:xlink="http://www.w3.org/1999/xlink" x="0px" y="0px"
	 width="533.063px" height="533.063px" viewBox="0 0 533.063 533.063" style="enable-background:new 0 0 533.063 533.063;"
	 xml:space="preserve">
<g>
	<path d="M33.198,299.865h200v200l-72.01-72.01L55.979,533.063L0,477.083l105.208-105.208L33.198,299.865z M427.854,371.875
		l105.209,105.208l-55.979,55.979L371.875,427.855l-72.01,72.01v-200h200L427.854,371.875z M499.865,233.198h-200v-200l72.01,72.01
		L477.083,0l55.979,55.979L427.854,161.188L499.865,233.198z M161.188,105.208l72.01-72.01v200h-200l72.01-72.01L0,55.979L55.979,0
		L161.188,105.208z"/>
</g>
<g>
</g>
<g>
</g>
<g>
</g>
<g>
</g>
<g>
</g>
<g>
</g>
<g>
</g>
<g>
</g>
<g>
</g>
<g>
</g>
<g>
</g>
<g>
</g>
<g>
</g>
<g>
</g>
<g>
</g>
</svg>
