<?xml version="1.0" encoding="iso-8859-1"?>
<!-- Generator: Adobe Illustrator 16.0.0, SVG Export Plug-In . SVG Version: 6.00 Build 0)  -->
<!DOCTYPE svg PUBLIC "-//W3C//DTD SVG 1.1//EN" "http://www.w3.org/Graphics/SVG/1.1/DTD/svg11.dtd">
<svg version="1.1" id="Capa_1" xmlns="http://www.w3.org/2000/svg" xmlns:xlink="http://www.w3.org/1999/xlink" x="0px" y="0px"
	 width="533.333px" height="533.333px" viewBox="0 0 533.333 533.333" style="enable-background:new 0 0 533.333 533.333;"
	 xml:space="preserve">
<g>
	<path d="M444.449,0H88.898C40.006,0,0,40.005,0,88.901v355.533c0,48.926,40.006,88.899,88.898,88.899h355.55
		c48.895,0,88.885-39.974,88.885-88.9V88.901C533.333,40.005,493.343,0,444.449,0z M489.548,489.553
		c-12.11,12.11-28.127,18.78-45.1,18.78H88.898c-16.973,0-32.994-6.67-45.108-18.782C31.672,477.437,25,461.414,25,444.434V88.901
		c0-16.971,6.674-32.991,18.792-45.109C55.91,31.674,71.93,25,88.898,25h355.55c3.696,0,7.344,0.336,10.92,0.956L345.318,177.029
		l-51.065-51.068c-7.189-7.191-16.754-11.152-26.93-11.152c-10.173,0-19.737,3.96-26.936,11.152l-23.184,23.186
		c-1.301-1.773-2.651-3.523-4.103-5.221c-31.588-36.916-87.12-41.254-124.036-9.657c-36.92,31.583-41.243,87.109-9.654,124.031
		c7.245,8.473,15.762,15.207,25.016,20.206c0.188,9.499,3.884,18.945,11.114,26.179l124.846,124.833
		c7.194,7.198,16.761,11.163,26.938,11.163c10.178,0,19.743-3.966,26.93-11.161l124.845-124.834
		c7.197-7.196,11.163-16.763,11.163-26.937c0-10.176-3.966-19.744-11.161-26.936l-14.364-14.365l103.599-91.116v299.101
		C508.333,461.416,501.662,477.439,489.548,489.553z M229.373,172.331l28.688-28.689c2.474-2.472,5.763-3.833,9.262-3.833
		c3.496,0,6.784,1.361,9.252,3.83l53.842,53.845l-58.521,80.334c-5.777,6.446-10.87,3.055-12.877,0.659
		c-0.689-0.811-14.42-18.788-32.174-42.073C235.658,216.226,236.612,193.27,229.373,172.331z M260.438,350.019
		c0,0,4.534,4.209,9.54,0.143l115.582-97.531l15.864,15.864c2.474,2.473,3.837,5.759,3.837,9.257c0,3.496-1.363,6.782-3.839,9.259
		L276.57,411.847c-2.47,2.472-5.753,3.834-9.247,3.834c-3.496,0-6.783-1.362-9.258-3.839L134.491,288.28
		c14.385,1.934,29.205,0.326,43.045-4.938L260.438,350.019z"/>
</g>
<g>
</g>
<g>
</g>
<g>
</g>
<g>
</g>
<g>
</g>
<g>
</g>
<g>
</g>
<g>
</g>
<g>
</g>
<g>
</g>
<g>
</g>
<g>
</g>
<g>
</g>
<g>
</g>
<g>
</g>
</svg>
