<?xml version="1.0" encoding="iso-8859-1"?>
<!-- Generator: Adobe Illustrator 16.0.0, SVG Export Plug-In . SVG Version: 6.00 Build 0)  -->
<!DOCTYPE svg PUBLIC "-//W3C//DTD SVG 1.1//EN" "http://www.w3.org/Graphics/SVG/1.1/DTD/svg11.dtd">
<svg version="1.1" id="Capa_1" xmlns="http://www.w3.org/2000/svg" xmlns:xlink="http://www.w3.org/1999/xlink" x="0px" y="0px"
	 width="474.893px" height="474.894px" viewBox="0 0 474.893 474.894" style="enable-background:new 0 0 474.893 474.894;"
	 xml:space="preserve">
<g>
	<path d="M474.891,17.106h-58.895l-128.96,177.029l-51.063-51.068c-7.189-7.191-16.754-11.152-26.931-11.152
		c-10.173,0-19.737,3.959-26.935,11.152l-23.184,23.186c-1.301-1.773-2.651-3.523-4.103-5.221
		c-31.588-36.916-87.12-41.254-124.036-9.657c-36.92,31.582-41.243,87.11-9.654,124.031c7.245,8.473,15.762,15.207,25.016,20.206
		c0.188,9.499,3.884,18.945,11.113,26.179l124.846,124.833c7.194,7.198,16.761,11.164,26.937,11.164
		c10.178,0,19.743-3.967,26.931-11.161l124.843-124.835c7.198-7.196,11.164-16.762,11.164-26.937
		c0-10.176-3.966-19.743-11.162-26.936l-14.363-14.365l128.438-108.38L474.891,17.106L474.891,17.106z M199.781,160.748
		c2.474-2.472,5.763-3.833,9.261-3.833c3.496,0,6.785,1.36,9.252,3.829l53.841,53.845l-58.521,80.335
		c-5.777,6.446-10.87,3.055-12.877,0.659c-0.689-0.812-14.42-18.789-32.174-42.074c8.815-20.177,9.769-43.133,2.529-64.072
		L199.781,160.748z M343.14,285.598c2.475,2.473,3.838,5.76,3.838,9.257c0,3.496-1.363,6.783-3.84,9.257L218.29,428.953
		c-2.468,2.472-5.752,3.834-9.247,3.834c-3.496,0-6.783-1.363-9.258-3.84L76.211,305.386c14.384,1.934,29.204,0.327,43.045-4.938
		l82.901,66.676c0,0,4.535,4.209,9.54,0.143l115.582-97.53L343.14,285.598z"/>
</g>
<g>
</g>
<g>
</g>
<g>
</g>
<g>
</g>
<g>
</g>
<g>
</g>
<g>
</g>
<g>
</g>
<g>
</g>
<g>
</g>
<g>
</g>
<g>
</g>
<g>
</g>
<g>
</g>
<g>
</g>
</svg>
