<?xml version="1.0" encoding="iso-8859-1"?>
<!-- Generator: Adobe Illustrator 16.0.0, SVG Export Plug-In . SVG Version: 6.00 Build 0)  -->
<!DOCTYPE svg PUBLIC "-//W3C//DTD SVG 1.1//EN" "http://www.w3.org/Graphics/SVG/1.1/DTD/svg11.dtd">
<svg version="1.1" id="Capa_1" xmlns="http://www.w3.org/2000/svg" xmlns:xlink="http://www.w3.org/1999/xlink" x="0px" y="0px"
	 width="533.333px" height="533.333px" viewBox="0 0 533.333 533.333" style="enable-background:new 0 0 533.333 533.333;"
	 xml:space="preserve">
<g>
	<path d="M266.667,0C119.391,0,0,119.391,0,266.667c0,147.275,119.388,266.666,266.667,266.666
		c147.275,0,266.667-119.391,266.667-266.666C533.333,119.391,413.942,0,266.667,0z M366.667,122.917
		c33.314,0,60.417,27.104,60.417,60.417c0,3.322-0.285,6.706-0.849,10.059c-0.843,5.017-5.186,8.691-10.271,8.691
		c-5.085,0-9.433-3.675-10.272-8.692c-3.209-19.107-19.62-27.766-39.024-27.766s-35.815,8.659-39.022,27.766
		c-0.842,5.017-5.188,8.692-10.272,8.692c-0.001,0,0,0-0.001,0c-5.087,0-9.43-3.675-10.272-8.691
		c-0.563-3.353-0.849-6.737-0.849-10.059C306.25,150.02,333.352,122.917,366.667,122.917z M166.667,122.917
		c33.313,0,60.417,27.104,60.417,60.417c0,3.322-0.285,6.706-0.848,10.059c-0.843,5.017-5.186,8.691-10.273,8.691
		s-9.43-3.675-10.272-8.692c-3.208-19.107-19.62-27.766-39.024-27.766s-35.815,8.659-39.023,27.766
		c-0.842,5.017-5.186,8.692-10.272,8.692l0,0c-5.086,0-9.43-3.675-10.273-8.691c-0.563-3.353-0.849-6.737-0.849-10.059
		C106.25,150.02,133.353,122.917,166.667,122.917z M100,300h100v129.086C142.659,414.188,100,361.835,100,300z M233.333,433.333V300
		H300v133.333H233.333z M333.333,429.086V300h100C433.333,361.835,390.674,414.188,333.333,429.086z"/>
</g>
<g>
</g>
<g>
</g>
<g>
</g>
<g>
</g>
<g>
</g>
<g>
</g>
<g>
</g>
<g>
</g>
<g>
</g>
<g>
</g>
<g>
</g>
<g>
</g>
<g>
</g>
<g>
</g>
<g>
</g>
</svg>
