<?xml version="1.0" encoding="iso-8859-1"?>
<!-- Generator: Adobe Illustrator 16.0.0, SVG Export Plug-In . SVG Version: 6.00 Build 0)  -->
<!DOCTYPE svg PUBLIC "-//W3C//DTD SVG 1.1//EN" "http://www.w3.org/Graphics/SVG/1.1/DTD/svg11.dtd">
<svg version="1.1" id="Capa_1" xmlns="http://www.w3.org/2000/svg" xmlns:xlink="http://www.w3.org/1999/xlink" x="0px" y="0px"
	 width="533.332px" height="533.331px" viewBox="0 0 533.332 533.331" style="enable-background:new 0 0 533.332 533.331;"
	 xml:space="preserve">
<g>
	<path d="M526.04,415.093L368.985,258.038c-9.723-9.723-25.631-9.723-35.354,0l-11.785,11.785l-95.833-95.834l157.32-157.322
		H216.667l-73.988,73.989l-7.323-7.322H100v35.355l7.321,7.322L0,233.334l83.333,83.333l107.322-107.322l95.834,95.833
		l-11.785,11.785c-9.723,9.723-9.723,25.632,0,35.354l157.055,157.054c9.723,9.723,25.631,9.723,35.354,0l58.926-58.926
		C535.762,440.726,535.762,424.815,526.04,415.093z"/>
</g>
<g>
</g>
<g>
</g>
<g>
</g>
<g>
</g>
<g>
</g>
<g>
</g>
<g>
</g>
<g>
</g>
<g>
</g>
<g>
</g>
<g>
</g>
<g>
</g>
<g>
</g>
<g>
</g>
<g>
</g>
</svg>
