<?xml version="1.0" encoding="iso-8859-1"?>
<!-- Generator: Adobe Illustrator 16.0.0, SVG Export Plug-In . SVG Version: 6.00 Build 0)  -->
<!DOCTYPE svg PUBLIC "-//W3C//DTD SVG 1.1//EN" "http://www.w3.org/Graphics/SVG/1.1/DTD/svg11.dtd">
<svg version="1.1" id="Capa_1" xmlns="http://www.w3.org/2000/svg" xmlns:xlink="http://www.w3.org/1999/xlink" x="0px" y="0px"
	 width="533.333px" height="533.334px" viewBox="0 0 533.333 533.334" style="enable-background:new 0 0 533.333 533.334;"
	 xml:space="preserve">
<g>
	<path d="M466.667,183.333h-181.15c11.696-42.141,17.608-52.392,17.608-96.875c0-38.483-31.309-69.792-69.792-69.792
		c-38.482,0-69.792,31.309-69.792,69.792c0,54.152-20.167,79.141-59.942,107.141c-1.182,0.831-2.385,1.647-3.599,2.453V150H0
		v333.333h100v-29.689c33.157,2.241,42.25,11.559,53.357,22.961c8.569,8.797,19.233,19.745,38.557,27.747
		c20.289,8.401,46.691,12.315,83.085,12.315h25h8.845c32.259,0,58.503-26.702,58.503-59.523c0-5.454-0.741-10.874-2.185-16.095
		c10.267-10.936,16.128-25.521,16.128-41.049c0-5.452-0.741-10.872-2.182-16.093c10.264-10.937,16.125-25.524,16.125-41.051
		c0-9.393-2.157-18.28-5.983-26.189h77.416c36.819,0,66.667-29.847,66.667-66.667C533.333,213.181,503.486,183.333,466.667,183.333z
		 M50,450c-9.204,0-16.667-7.462-16.667-16.667S40.796,416.667,50,416.667s16.667,7.461,16.667,16.666S59.204,450,50,450z
		 M463.542,283.333H333.61h-3.401v33.334h3.401c13.878,0,25.17,11.749,25.17,26.189c0,9.049-4.409,17.341-11.799,22.181
		l-12.91,8.462l7.447,13.52c2.17,3.938,3.316,8.429,3.316,12.982c0,9.047-4.411,17.339-11.799,22.179l-12.91,8.46l7.445,13.52
		c2.17,3.938,3.318,8.43,3.318,12.985c0,14.438-11.293,26.189-25.17,26.189h-8.845h-25c-65.917,0-79.212-19.898-93.287-34.348
		c-14.369-14.751-30.463-31.242-78.587-34.755V240.077c8.206-4.304,15.99-8.992,23.259-14.109
		C173.463,190.625,200,153.288,200,86.458c0-16.658,15.635-30.208,32.292-30.208s31.25,13.551,31.25,30.208
		c0,44.615-6.466,54.902-19.25,96.875c-3.189,11.845-6.209,23.578-8.269,32.986l227.519,0.347c18.38,0,33.333,14.953,33.333,33.333
		C496.875,268.38,481.921,283.333,463.542,283.333z"/>
</g>
<g>
</g>
<g>
</g>
<g>
</g>
<g>
</g>
<g>
</g>
<g>
</g>
<g>
</g>
<g>
</g>
<g>
</g>
<g>
</g>
<g>
</g>
<g>
</g>
<g>
</g>
<g>
</g>
<g>
</g>
</svg>
