<?xml version="1.0" encoding="iso-8859-1"?>
<!-- Generator: Adobe Illustrator 16.0.0, SVG Export Plug-In . SVG Version: 6.00 Build 0)  -->
<!DOCTYPE svg PUBLIC "-//W3C//DTD SVG 1.1//EN" "http://www.w3.org/Graphics/SVG/1.1/DTD/svg11.dtd">
<svg version="1.1" id="Capa_1" xmlns="http://www.w3.org/2000/svg" xmlns:xlink="http://www.w3.org/1999/xlink" x="0px" y="0px"
	 width="533.333px" height="533.333px" viewBox="0 0 533.333 533.333" style="enable-background:new 0 0 533.333 533.333;"
	 xml:space="preserve">
<g>
	<path d="M200,33.333h333.333V100H200V33.333z M200,233.333h333.333V300H200V233.333z M200,433.333h333.333V500H200V433.333z
		 M0,66.667c0,36.819,29.848,66.667,66.667,66.667s66.667-29.848,66.667-66.667C133.333,29.848,103.485,0,66.667,0
		S0,29.848,0,66.667z M0,266.667c0,36.818,29.848,66.666,66.667,66.666s66.667-29.848,66.667-66.666
		c0-36.819-29.848-66.667-66.667-66.667S0,229.848,0,266.667z M0,466.667c0,36.819,29.848,66.666,66.667,66.666
		s66.667-29.847,66.667-66.666S103.485,400,66.667,400S0,429.848,0,466.667z"/>
</g>
<g>
</g>
<g>
</g>
<g>
</g>
<g>
</g>
<g>
</g>
<g>
</g>
<g>
</g>
<g>
</g>
<g>
</g>
<g>
</g>
<g>
</g>
<g>
</g>
<g>
</g>
<g>
</g>
<g>
</g>
</svg>
