<?xml version="1.0" encoding="iso-8859-1"?>
<!-- Generator: Adobe Illustrator 16.0.0, SVG Export Plug-In . SVG Version: 6.00 Build 0)  -->
<!DOCTYPE svg PUBLIC "-//W3C//DTD SVG 1.1//EN" "http://www.w3.org/Graphics/SVG/1.1/DTD/svg11.dtd">
<svg version="1.1" id="Capa_1" xmlns="http://www.w3.org/2000/svg" xmlns:xlink="http://www.w3.org/1999/xlink" x="0px" y="0px"
	 width="466.753px" height="466.753px" viewBox="0 0 466.753 466.753" style="enable-background:new 0 0 466.753 466.753;"
	 xml:space="preserve">
<g>
	<path d="M344.361,352.657c-6.398,0-12.795-2.439-17.678-7.321c-9.764-9.764-9.764-25.591,0-35.354
		c42.239-42.238,42.239-110.967,0-153.206c-9.764-9.764-9.764-25.593,0-35.355c9.764-9.762,25.593-9.762,35.355,0
		c61.734,61.735,61.734,162.184,0,223.917C357.158,350.218,350.759,352.657,344.361,352.657z M267.441,7.683
		c13.368-13.369,24.306-8.837,24.306,10.069v431.249c0,18.907-10.938,23.438-24.306,10.069L141.747,333.376H58.414V133.377h83.333
		L267.441,7.683z"/>
</g>
<g>
</g>
<g>
</g>
<g>
</g>
<g>
</g>
<g>
</g>
<g>
</g>
<g>
</g>
<g>
</g>
<g>
</g>
<g>
</g>
<g>
</g>
<g>
</g>
<g>
</g>
<g>
</g>
<g>
</g>
</svg>
