<?xml version="1.0" encoding="iso-8859-1"?>
<!-- Generator: Adobe Illustrator 16.0.0, SVG Export Plug-In . SVG Version: 6.00 Build 0)  -->
<!DOCTYPE svg PUBLIC "-//W3C//DTD SVG 1.1//EN" "http://www.w3.org/Graphics/SVG/1.1/DTD/svg11.dtd">
<svg version="1.1" id="Capa_1" xmlns="http://www.w3.org/2000/svg" xmlns:xlink="http://www.w3.org/1999/xlink" x="0px" y="0px"
	 width="533.334px" height="533.335px" viewBox="0 0 533.334 533.335" style="enable-background:new 0 0 533.334 533.335;"
	 xml:space="preserve">
<g>
	<path d="M133.333,100L66.667,33.333H33.333v33.333L100,133.333L133.333,100z M166.667,0H200v66.667h-33.333V0z M300,166.667h66.666
		V200H300V166.667z M333.333,66.667V33.333H300L233.333,100l33.333,33.333L333.333,66.667z M0,166.667h66.667V200H0V166.667z
		 M166.667,300H200v66.667h-33.333V300z M33.333,300v33.334h33.333l66.667-66.667L100,233.333L33.333,300z M526.042,459.375
		L194.73,128.064c-9.723-9.723-25.632-9.723-35.355,0l-31.312,31.312c-9.723,9.723-9.723,25.632,0,35.355l331.312,331.312
		c9.723,9.723,25.633,9.723,35.355,0l31.311-31.311C535.765,485.008,535.765,469.099,526.042,459.375z M250,283.334l-100-100
		L183.333,150l100,100L250,283.334z"/>
</g>
<g>
</g>
<g>
</g>
<g>
</g>
<g>
</g>
<g>
</g>
<g>
</g>
<g>
</g>
<g>
</g>
<g>
</g>
<g>
</g>
<g>
</g>
<g>
</g>
<g>
</g>
<g>
</g>
<g>
</g>
</svg>
