<?xml version="1.0" encoding="iso-8859-1"?>
<!-- Generator: Adobe Illustrator 16.0.0, SVG Export Plug-In . SVG Version: 6.00 Build 0)  -->
<!DOCTYPE svg PUBLIC "-//W3C//DTD SVG 1.1//EN" "http://www.w3.org/Graphics/SVG/1.1/DTD/svg11.dtd">
<svg version="1.1" id="Capa_1" xmlns="http://www.w3.org/2000/svg" xmlns:xlink="http://www.w3.org/1999/xlink" x="0px" y="0px"
	 width="533.333px" height="533.333px" viewBox="0 0 533.333 533.333" style="enable-background:new 0 0 533.333 533.333;"
	 xml:space="preserve">
<g>
	<path d="M444.449,0H88.898C40.006,0,0,40.005,0,88.901v355.533c0,48.926,40.006,88.899,88.898,88.899h355.55
		c48.895,0,88.885-39.974,88.885-88.9V88.901C533.333,40.005,493.343,0,444.449,0z M444.449,66.667c4.16,0,8.098,1.216,11.469,3.303
		L266.667,226.43L77.42,69.972c3.374-2.088,7.314-3.305,11.479-3.305H444.449z M88.898,466.667c-1.002,0-1.989-0.077-2.96-0.213
		L203.452,303.45l-15.237-15.236L66.667,409.762V91.46l200,241.873l200-241.872v318.3L345.119,288.214L329.88,303.45
		l117.516,163.005c-0.968,0.135-1.951,0.212-2.949,0.212H88.898z"/>
</g>
<g>
</g>
<g>
</g>
<g>
</g>
<g>
</g>
<g>
</g>
<g>
</g>
<g>
</g>
<g>
</g>
<g>
</g>
<g>
</g>
<g>
</g>
<g>
</g>
<g>
</g>
<g>
</g>
<g>
</g>
</svg>
