<?xml version="1.0" encoding="iso-8859-1"?>
<!-- Generator: Adobe Illustrator 16.0.0, SVG Export Plug-In . SVG Version: 6.00 Build 0)  -->
<!DOCTYPE svg PUBLIC "-//W3C//DTD SVG 1.1//EN" "http://www.w3.org/Graphics/SVG/1.1/DTD/svg11.dtd">
<svg version="1.1" id="Capa_1" xmlns="http://www.w3.org/2000/svg" xmlns:xlink="http://www.w3.org/1999/xlink" x="0px" y="0px"
	 width="500px" height="500px" viewBox="0 0 500 500" style="enable-background:new 0 0 500 500;" xml:space="preserve">
<g>
	<path d="M467.896,0H66.667v66.667H17.896C8.729,66.667,0,73.192,0,82.358v33.333c0,9.167,8.729,17.642,17.896,17.642h48.771v33.333
		H17.896C8.729,166.667,0,173.192,0,182.358v33.333c0,9.167,8.729,17.642,17.896,17.642h48.771v33.333H17.896
		C8.729,266.667,0,273.192,0,282.359v33.333c0,9.166,8.729,17.642,17.896,17.642h48.771v33.333H17.896
		C8.729,366.667,0,373.192,0,382.359v33.333c0,9.167,8.729,17.642,17.896,17.642h48.771V500h401.229
		c18.41,0,32.104-15.899,32.104-34.309V32.358C500,13.949,486.306,0,467.896,0z M166.667,466.667H100v-33.333h17.896
		c9.167,0,15.438-8.475,15.438-17.642v-33.333c0-9.167-6.272-15.692-15.438-15.692H100v-33.333h17.896
		c9.167,0,15.438-8.475,15.438-17.642v-33.333c0-9.167-6.272-15.692-15.438-15.692H100v-33.333h17.896
		c9.167,0,15.438-8.475,15.438-17.642v-33.333c0-9.167-6.272-15.691-15.438-15.691H100v-33.333h17.896
		c9.167,0,15.438-8.475,15.438-17.642V82.358c0-9.167-6.271-15.691-15.438-15.691H100V33.333h66.667V466.667z"/>
</g>
<g>
</g>
<g>
</g>
<g>
</g>
<g>
</g>
<g>
</g>
<g>
</g>
<g>
</g>
<g>
</g>
<g>
</g>
<g>
</g>
<g>
</g>
<g>
</g>
<g>
</g>
<g>
</g>
<g>
</g>
</svg>
