<?xml version="1.0" encoding="iso-8859-1"?>
<!-- Generator: Adobe Illustrator 16.0.0, SVG Export Plug-In . SVG Version: 6.00 Build 0)  -->
<!DOCTYPE svg PUBLIC "-//W3C//DTD SVG 1.1//EN" "http://www.w3.org/Graphics/SVG/1.1/DTD/svg11.dtd">
<svg version="1.1" id="Capa_1" xmlns="http://www.w3.org/2000/svg" xmlns:xlink="http://www.w3.org/1999/xlink" x="0px" y="0px"
	 width="533.333px" height="533.333px" viewBox="0 0 533.333 533.333" style="enable-background:new 0 0 533.333 533.333;"
	 xml:space="preserve">
<g>
	<path d="M433.333,233.333H400v-100C400,59.696,340.304,0,266.667,0c-73.637,0-133.333,59.696-133.333,133.333v100H100
		c-18.333,0-33.333,15-33.333,33.333V500c0,18.333,15,33.333,33.333,33.333h333.333c18.333,0,33.333-15,33.333-33.333V266.667
		C466.667,248.333,451.667,233.333,433.333,233.333z M266.667,433.333c-18.409,0-33.333-14.924-33.333-33.333
		s14.924-33.333,33.333-33.333S300,381.591,300,400S285.076,433.333,266.667,433.333z M333.333,233.333H200v-100
		c0-36.761,29.906-66.667,66.667-66.667c36.761,0,66.667,29.906,66.667,66.667V233.333z"/>
</g>
<g>
</g>
<g>
</g>
<g>
</g>
<g>
</g>
<g>
</g>
<g>
</g>
<g>
</g>
<g>
</g>
<g>
</g>
<g>
</g>
<g>
</g>
<g>
</g>
<g>
</g>
<g>
</g>
<g>
</g>
</svg>
