<?xml version="1.0" encoding="iso-8859-1"?>
<!-- Generator: Adobe Illustrator 16.0.0, SVG Export Plug-In . SVG Version: 6.00 Build 0)  -->
<!DOCTYPE svg PUBLIC "-//W3C//DTD SVG 1.1//EN" "http://www.w3.org/Graphics/SVG/1.1/DTD/svg11.dtd">
<svg version="1.1" id="Capa_1" xmlns="http://www.w3.org/2000/svg" xmlns:xlink="http://www.w3.org/1999/xlink" x="0px" y="0px"
	 width="533.333px" height="533.334px" viewBox="0 0 533.333 533.334" style="enable-background:new 0 0 533.333 533.334;"
	 xml:space="preserve">
<g>
	<path d="M533.333,283.333v-200h-100V50c0-18.333-15.001-33.333-33.334-33.333H33.333C15,16.667,0,31.667,0,50v100
		c0,18.333,15,33.333,33.333,33.333H400c18.333,0,33.334-15,33.334-33.333v-33.333H500V250H200v66.667h-16.667
		c-9.205,0-16.667,7.461-16.667,16.666V500c0,9.205,7.461,16.667,16.667,16.667H250c9.205,0,16.667-7.462,16.667-16.667V333.333
		c0-9.205-7.461-16.666-16.667-16.666h-16.667v-33.334H533.333z M400,83.333H33.333V50H400V83.333z"/>
</g>
<g>
</g>
<g>
</g>
<g>
</g>
<g>
</g>
<g>
</g>
<g>
</g>
<g>
</g>
<g>
</g>
<g>
</g>
<g>
</g>
<g>
</g>
<g>
</g>
<g>
</g>
<g>
</g>
<g>
</g>
</svg>
