<?xml version="1.0" encoding="iso-8859-1"?>
<!-- Generator: Adobe Illustrator 16.0.0, SVG Export Plug-In . SVG Version: 6.00 Build 0)  -->
<!DOCTYPE svg PUBLIC "-//W3C//DTD SVG 1.1//EN" "http://www.w3.org/Graphics/SVG/1.1/DTD/svg11.dtd">
<svg version="1.1" id="Capa_1" xmlns="http://www.w3.org/2000/svg" xmlns:xlink="http://www.w3.org/1999/xlink" x="0px" y="0px"
	 width="533.333px" height="533.333px" viewBox="0 0 533.333 533.333" style="enable-background:new 0 0 533.333 533.333;"
	 xml:space="preserve">
<g>
	<path d="M363.455,170.337l-33.83-33.813L160.454,305.659c-28.028,28.018-28.028,73.464,0,101.481
		c28.022,28.018,73.468,28.018,101.497,0l203.006-202.972c46.725-46.699,46.725-122.428,0-169.128
		c-46.7-46.721-122.454-46.721-169.159,0L82.641,248.137l0.018,0.017c-0.151,0.158-0.319,0.3-0.457,0.44
		c-65.157,65.155-65.157,170.758,0,235.888c65.132,65.134,170.765,65.134,235.932,0c0.143-0.143,0.269-0.294,0.427-0.456
		l0.018,0.018L464.063,338.58l-33.849-33.812L284.74,450.216h-0.009c-0.154,0.14-0.293,0.298-0.441,0.439
		c-46.392,46.385-121.864,46.385-168.268,0c-46.386-46.376-46.386-121.834,0-168.218c0.159-0.157,0.315-0.303,0.463-0.44
		l-0.024-0.031L329.627,68.859c27.975-27.989,73.511-27.989,101.502,0c27.977,27.987,27.977,73.515,0,101.479L228.123,373.307
		c-9.341,9.335-24.507,9.335-33.839,0c-9.32-9.315-9.32-24.496,0-33.812L363.455,170.337z"/>
</g>
<g>
</g>
<g>
</g>
<g>
</g>
<g>
</g>
<g>
</g>
<g>
</g>
<g>
</g>
<g>
</g>
<g>
</g>
<g>
</g>
<g>
</g>
<g>
</g>
<g>
</g>
<g>
</g>
<g>
</g>
</svg>
