<?xml version="1.0" encoding="iso-8859-1"?>
<!-- Generator: Adobe Illustrator 16.0.0, SVG Export Plug-In . SVG Version: 6.00 Build 0)  -->
<!DOCTYPE svg PUBLIC "-//W3C//DTD SVG 1.1//EN" "http://www.w3.org/Graphics/SVG/1.1/DTD/svg11.dtd">
<svg version="1.1" id="Capa_1" xmlns="http://www.w3.org/2000/svg" xmlns:xlink="http://www.w3.org/1999/xlink" x="0px" y="0px"
	 width="533.333px" height="533.333px" viewBox="0 0 533.333 533.333" style="enable-background:new 0 0 533.333 533.333;"
	 xml:space="preserve">
<g>
	<path d="M337.678,33.333c14.756,0,29.645,3.022,43.056,8.742c14.105,6.015,25.689,14.543,34.429,25.35
		c17.501,21.637,22.417,51.11,14.609,87.614c-8.493,39.78-28.332,72.896-57.375,95.766c-28.311,22.292-64.062,34.078-103.39,34.078
		H170.95h-26.974l-5.626,26.379l-28.001,131.291H86.444h-7.261H41.378l89.154-409.218H337.678 M148.847,260.424h41.708h64.457
		c24.707,0,49.737-9.463,70.478-26.648c20.219-16.751,34.52-39.334,40.311-63.646c7.24-27.356,2.412-54.767-13.288-75.289
		c-15.196-19.864-38.993-31.257-65.284-31.257h-67.257h-26.64l-5.873,25.985L158.04,219.743L148.847,260.424 M337.678,0H103.68
		L0,475.885h79.184l-12.517,57.448H203.99l33.627-157.67h98.058c93.88,0,172.363-57.853,193.363-156.216
		c17.561-82.125-21.253-131.214-70.373-151.335c13.384,6.55,25.048,15.878,33.595,27.334c17.986,24.114,23.037,56.964,15.019,97.638
		c-8.104,41.16-26.259,75.904-52.69,101.064c-4.837,5.054-10.013,9.764-15.523,14.104c-28.311,22.293-64.062,34.077-103.39,34.077
		h-6.308H210.643L177.016,500h-68.971l5.253-24.115h24.025l33.627-157.67h98.057c93.881,0,172.363-57.851,193.363-156.215
		C486.185,50.627,406.331,0,337.678,0L337.678,0z M190.555,227.09l29.417-130.172h67.257c33.642,0,56.042,28.926,46.242,65.081
		c-8.403,36.167-43.43,65.091-78.458,65.091H190.555L190.555,227.09z"/>
</g>
<g>
</g>
<g>
</g>
<g>
</g>
<g>
</g>
<g>
</g>
<g>
</g>
<g>
</g>
<g>
</g>
<g>
</g>
<g>
</g>
<g>
</g>
<g>
</g>
<g>
</g>
<g>
</g>
<g>
</g>
</svg>
