<?xml version="1.0" encoding="iso-8859-1"?>
<!-- Generator: Adobe Illustrator 16.0.0, SVG Export Plug-In . SVG Version: 6.00 Build 0)  -->
<!DOCTYPE svg PUBLIC "-//W3C//DTD SVG 1.1//EN" "http://www.w3.org/Graphics/SVG/1.1/DTD/svg11.dtd">
<svg version="1.1" id="Capa_1" xmlns="http://www.w3.org/2000/svg" xmlns:xlink="http://www.w3.org/1999/xlink" x="0px" y="0px"
	 width="533.333px" height="533.333px" viewBox="0 0 533.333 533.333" style="enable-background:new 0 0 533.333 533.333;"
	 xml:space="preserve">
<g>
	<path d="M458.665,68.112c13.384,6.549,25.048,15.877,33.595,27.334c17.986,24.114,23.037,56.964,15.019,97.638
		c-8.104,41.16-26.259,75.904-52.69,101.064c-4.837,5.054-10.013,9.764-15.523,14.104c-28.311,22.293-64.062,34.077-103.39,34.077
		h-6.308H210.643L177.016,500h-68.971l5.253-24.115h24.025l33.627-157.67h98.057c93.881,0,172.363-57.851,193.363-156.215
		C486.185,50.627,406.331,0,337.678,0H103.68L0,475.885h79.184l-12.517,57.448H203.99l33.627-157.67h98.058
		c93.88,0,172.363-57.853,193.363-156.216C546.598,137.322,507.785,88.232,458.665,68.112z M333.47,161.999
		c-7.148,30.76-33.557,56.271-62.842,63.212l16.009-70.845h48.431C334.689,156.87,334.17,159.414,333.47,161.999z M219.971,96.918
		h67.257c19.146,0,34.639,9.377,42.64,24.114h-69.872l-23.967,106.057h-45.475L219.971,96.918z"/>
</g>
<g>
</g>
<g>
</g>
<g>
</g>
<g>
</g>
<g>
</g>
<g>
</g>
<g>
</g>
<g>
</g>
<g>
</g>
<g>
</g>
<g>
</g>
<g>
</g>
<g>
</g>
<g>
</g>
<g>
</g>
</svg>
