<?xml version="1.0" encoding="iso-8859-1"?>
<!-- Generator: Adobe Illustrator 16.0.0, SVG Export Plug-In . SVG Version: 6.00 Build 0)  -->
<!DOCTYPE svg PUBLIC "-//W3C//DTD SVG 1.1//EN" "http://www.w3.org/Graphics/SVG/1.1/DTD/svg11.dtd">
<svg version="1.1" id="Capa_1" xmlns="http://www.w3.org/2000/svg" xmlns:xlink="http://www.w3.org/1999/xlink" x="0px" y="0px"
	 width="533.333px" height="533.333px" viewBox="0 0 533.333 533.333" style="enable-background:new 0 0 533.333 533.333;"
	 xml:space="preserve">
<g>
	<path d="M529.884,283.33c4.168,28.897,6.882,68.434-6.075,83.566c-21.429,25.022-157.143,25.022-157.143-25.021
		c0-25.207,22.321-41.736,0.893-66.761c-21.08-24.614-58.869-25.014-100.893-25.021c-42.024,0.006-79.814,0.406-100.893,25.021
		c-21.428,25.024,0.893,41.553,0.893,66.76c0,50.045-135.714,50.045-157.143,25.022c-12.957-15.133-10.244-54.668-6.074-83.566
		c3.208-19.292,11.314-40.102,37.265-66.664c0-0.001,0.001-0.001,0.001-0.002c38.926-36.323,97.836-66.008,223.868-66.649V150
		c0.7,0,1.388,0.005,2.083,0.007c0.697-0.002,1.383-0.007,2.083-0.007v0.015c126.031,0.641,184.941,30.326,223.867,66.65
		c0.001,0.001,0.001,0.002,0.001,0.002C518.568,243.227,526.675,264.039,529.884,283.33z"/>
</g>
<g>
</g>
<g>
</g>
<g>
</g>
<g>
</g>
<g>
</g>
<g>
</g>
<g>
</g>
<g>
</g>
<g>
</g>
<g>
</g>
<g>
</g>
<g>
</g>
<g>
</g>
<g>
</g>
<g>
</g>
</svg>
