<?xml version="1.0" encoding="iso-8859-1"?>
<!-- Generator: Adobe Illustrator 16.0.0, SVG Export Plug-In . SVG Version: 6.00 Build 0)  -->
<!DOCTYPE svg PUBLIC "-//W3C//DTD SVG 1.1//EN" "http://www.w3.org/Graphics/SVG/1.1/DTD/svg11.dtd">
<svg version="1.1" id="Capa_1" xmlns="http://www.w3.org/2000/svg" xmlns:xlink="http://www.w3.org/1999/xlink" x="0px" y="0px"
	 width="533.333px" height="533.333px" viewBox="0 0 533.333 533.333" style="enable-background:new 0 0 533.333 533.333;"
	 xml:space="preserve">
<g>
	<path d="M444.466,0H88.9C40.006,0,0,40.006,0,88.896v355.535c0,48.928,40.006,88.901,88.9,88.901H444.46
		c48.896,0,88.873-39.976,88.873-88.903V88.896C533.333,40.006,493.356,0,444.466,0z M266.667,33.333
		c35.789,0,69.689,8.068,100,22.467v149.543L203.355,42.032C223.488,36.369,244.723,33.333,266.667,33.333z M33.333,266.667
		c0-91.608,52.8-170.872,129.622-209.055l59.055,59.055L36.086,302.59C34.277,290.88,33.333,278.884,33.333,266.667z
		 M133.333,458.157c-38.897-27.134-69.147-65.806-85.767-111.067l85.767-85.767V458.157z M266.667,500
		c-35.789,0-69.689-8.068-100-22.468V400h291.49C415.992,460.444,345.955,500,266.667,500z M477.532,366.667H400V75.175
		c60.444,42.166,100,112.203,100,191.492C500,302.456,491.932,336.356,477.532,366.667z"/>
</g>
<g>
</g>
<g>
</g>
<g>
</g>
<g>
</g>
<g>
</g>
<g>
</g>
<g>
</g>
<g>
</g>
<g>
</g>
<g>
</g>
<g>
</g>
<g>
</g>
<g>
</g>
<g>
</g>
<g>
</g>
</svg>
