<?xml version="1.0" encoding="iso-8859-1"?>
<!-- Generator: Adobe Illustrator 16.0.0, SVG Export Plug-In . SVG Version: 6.00 Build 0)  -->
<!DOCTYPE svg PUBLIC "-//W3C//DTD SVG 1.1//EN" "http://www.w3.org/Graphics/SVG/1.1/DTD/svg11.dtd">
<svg version="1.1" id="Capa_1" xmlns="http://www.w3.org/2000/svg" xmlns:xlink="http://www.w3.org/1999/xlink" x="0px" y="0px"
	 width="533.333px" height="533.333px" viewBox="0 0 533.333 533.333" style="enable-background:new 0 0 533.333 533.333;"
	 xml:space="preserve">
<g>
	<path d="M200,305.556c0,0,106.221-63.73,166.024-38.556c12.396-18.89,24.608-39.238,36.564-60.011
		c-58.504-14.333-135.922-1.434-135.922-1.434s99.069-59.438,159.722-40.833c12.161-21.931,23.987-43.563,35.394-63.7
		c-48.32-3.265-95.115,4.533-95.115,4.533s62.057-37.233,118.01-43.541C502.279,33.442,518.619,11.035,533.333,0
		C241.146,0,66.667,333.333,0,533.333h33.333l100-166.666c0,0,33.333,33.333,133.333,0c23.684-7.896,47.369-29.819,70.61-59.341
		C278.624,292.454,200,305.556,200,305.556z"/>
</g>
<g>
</g>
<g>
</g>
<g>
</g>
<g>
</g>
<g>
</g>
<g>
</g>
<g>
</g>
<g>
</g>
<g>
</g>
<g>
</g>
<g>
</g>
<g>
</g>
<g>
</g>
<g>
</g>
<g>
</g>
</svg>
