<?xml version="1.0" encoding="iso-8859-1"?>
<!-- Generator: Adobe Illustrator 16.0.0, SVG Export Plug-In . SVG Version: 6.00 Build 0)  -->
<!DOCTYPE svg PUBLIC "-//W3C//DTD SVG 1.1//EN" "http://www.w3.org/Graphics/SVG/1.1/DTD/svg11.dtd">
<svg version="1.1" id="Capa_1" xmlns="http://www.w3.org/2000/svg" xmlns:xlink="http://www.w3.org/1999/xlink" x="0px" y="0px"
	 width="533.333px" height="533.334px" viewBox="0 0 533.333 533.334" style="enable-background:new 0 0 533.333 533.334;"
	 xml:space="preserve">
<g>
	<path d="M133.333,300c0,18.41,14.924,33.333,33.333,33.333S200,318.41,200,300s-14.924-33.333-33.333-33.333
		S133.333,281.59,133.333,300z M333.333,300c0,18.41,14.924,33.333,33.333,33.333S400,318.41,400,300s-14.924-33.333-33.333-33.333
		S333.333,281.59,333.333,300z M334.954,371.238c8.585-6.763,21.029-5.288,27.796,3.298c6.765,8.587,5.287,21.03-3.3,27.796
		c-23.905,18.832-60.324,31.001-92.783,31.001c-32.459,0-68.879-12.169-92.783-31.001c-8.586-6.766-10.062-19.209-3.298-27.796
		c6.765-8.584,19.209-10.061,27.794-3.298c13.762,10.843,41.001,22.512,68.287,22.512S321.191,382.081,334.954,371.238z
		 M533.333,233.333c0-36.819-29.849-66.667-66.667-66.667c-25.06,0-46.871,13.839-58.256,34.282
		c-34.268-18.747-76.019-30.857-121.501-33.65l39.782-89.336l76.142,21.979c6.852,19.449,25.376,33.393,47.166,33.393
		c27.614,0,50-22.386,50-50s-22.386-50-50-50c-19.042,0-35.595,10.647-44.038,26.309l-84.848-24.491
		c-9.49-2.739-19.551,1.938-23.567,10.964l-54.048,121.368c-44.342,3.123-85.032,15.116-118.56,33.456
		c-11.388-20.443-33.211-34.273-58.272-34.273C29.848,166.667,0,196.515,0,233.333c0,27.246,16.355,50.653,39.777,60.991
		c-4.203,12.514-6.444,25.575-6.444,39.009C33.333,425.381,137.8,500,266.667,500C395.532,500,500,425.381,500,333.333
		c0-13.434-2.239-26.491-6.44-39.003C516.98,283.991,533.333,260.58,533.333,233.333z M450,64.583c10.355,0,18.75,8.395,18.75,18.75
		c0,10.355-8.395,18.75-18.75,18.75s-18.75-8.395-18.75-18.75C431.25,72.978,439.644,64.583,450,64.583z M33.333,233.333
		c0-18.38,14.953-33.333,33.333-33.333c13.285,0,24.777,7.814,30.128,19.087c-17.42,13.211-31.857,28.449-42.534,45.174
		C42.008,259.33,33.333,247.329,33.333,233.333z M266.667,460.417c-107.005,0-193.75-56.897-193.75-127.084
		c0-70.186,86.745-127.083,193.75-127.083c107.005,0,193.75,56.897,193.75,127.083C460.417,403.52,373.671,460.417,266.667,460.417z
		 M479.073,264.261c-10.677-16.725-25.113-31.964-42.534-45.175C441.89,207.814,453.381,200,466.667,200
		c18.38,0,33.333,14.953,33.333,33.333C500,247.329,491.325,259.33,479.073,264.261z"/>
</g>
<g>
</g>
<g>
</g>
<g>
</g>
<g>
</g>
<g>
</g>
<g>
</g>
<g>
</g>
<g>
</g>
<g>
</g>
<g>
</g>
<g>
</g>
<g>
</g>
<g>
</g>
<g>
</g>
<g>
</g>
</svg>
