<?xml version="1.0" encoding="iso-8859-1"?>
<!-- Generator: Adobe Illustrator 16.0.0, SVG Export Plug-In . SVG Version: 6.00 Build 0)  -->
<!DOCTYPE svg PUBLIC "-//W3C//DTD SVG 1.1//EN" "http://www.w3.org/Graphics/SVG/1.1/DTD/svg11.dtd">
<svg version="1.1" id="Capa_1" xmlns="http://www.w3.org/2000/svg" xmlns:xlink="http://www.w3.org/1999/xlink" x="0px" y="0px"
	 width="466.667px" height="466.666px" viewBox="0 0 466.667 466.666" style="enable-background:new 0 0 466.667 466.666;"
	 xml:space="preserve">
<g>
	<path d="M290.237,423.569l166.666-166.666c13.019-13.017,13.019-34.123,0-47.141L290.237,43.096
		c-13.018-13.017-34.123-13.017-47.141,0c-13.018,13.018-13.018,34.123,0,47.141L352.86,200H33.333C14.924,200,0,214.924,0,233.333
		c0,18.409,14.924,33.334,33.333,33.334H352.86L243.096,376.431c-6.509,6.508-9.763,15.039-9.763,23.569s3.254,17.062,9.763,23.569
		C256.114,436.588,277.219,436.588,290.237,423.569z"/>
</g>
<g>
</g>
<g>
</g>
<g>
</g>
<g>
</g>
<g>
</g>
<g>
</g>
<g>
</g>
<g>
</g>
<g>
</g>
<g>
</g>
<g>
</g>
<g>
</g>
<g>
</g>
<g>
</g>
<g>
</g>
</svg>
