<?xml version="1.0" encoding="iso-8859-1"?>
<!-- Generator: Adobe Illustrator 16.0.0, SVG Export Plug-In . SVG Version: 6.00 Build 0)  -->
<!DOCTYPE svg PUBLIC "-//W3C//DTD SVG 1.1//EN" "http://www.w3.org/Graphics/SVG/1.1/DTD/svg11.dtd">
<svg version="1.1" id="Capa_1" xmlns="http://www.w3.org/2000/svg" xmlns:xlink="http://www.w3.org/1999/xlink" x="0px" y="0px"
	 width="533.333px" height="533.333px" viewBox="0 0 533.333 533.333" style="enable-background:new 0 0 533.333 533.333;"
	 xml:space="preserve">
<g>
	<path d="M266.667,0C119.391,0,0,119.391,0,266.667c0,147.275,119.391,266.666,266.667,266.666
		c147.275,0,266.667-119.391,266.667-266.666C533.333,119.391,413.942,0,266.667,0z M166.667,233.333
		c-18.409,0-33.333-22.386-33.333-50s14.924-50,33.333-50s33.333,22.386,33.333,50S185.076,233.333,166.667,233.333z
		 M266.667,433.333c-36.819,0-66.667-29.848-66.667-66.666S229.848,300,266.667,300c36.818,0,66.667,29.849,66.667,66.667
		S303.485,433.333,266.667,433.333z M366.667,233.333c-18.409,0-33.333-22.386-33.333-50s14.924-50,33.333-50
		s33.333,22.386,33.333,50S385.076,233.333,366.667,233.333z"/>
</g>
<g>
</g>
<g>
</g>
<g>
</g>
<g>
</g>
<g>
</g>
<g>
</g>
<g>
</g>
<g>
</g>
<g>
</g>
<g>
</g>
<g>
</g>
<g>
</g>
<g>
</g>
<g>
</g>
<g>
</g>
</svg>
