<?xml version="1.0" encoding="iso-8859-1"?>
<!-- Generator: Adobe Illustrator 16.0.0, SVG Export Plug-In . SVG Version: 6.00 Build 0)  -->
<!DOCTYPE svg PUBLIC "-//W3C//DTD SVG 1.1//EN" "http://www.w3.org/Graphics/SVG/1.1/DTD/svg11.dtd">
<svg version="1.1" id="Capa_1" xmlns="http://www.w3.org/2000/svg" xmlns:xlink="http://www.w3.org/1999/xlink" x="0px" y="0px"
	 width="600px" height="600px" viewBox="0 0 600 600" style="enable-background:new 0 0 600 600;" xml:space="preserve">
<g>
	<path d="M566.667,502.818c0,23.697,13.556,44.223,33.333,54.262v8.301c-5.534,0.76-11.184,1.159-16.927,1.159
		c-35.421,0-67.369-14.858-89.96-38.679c-13.656,3.637-28.126,5.6-43.113,5.6c-82.843,0-150-59.695-150-133.333
		s67.157-133.333,150-133.333s150,59.696,150,133.333c0,28.826-10.294,55.517-27.789,77.326
		C568.656,485.173,566.667,493.761,566.667,502.818z M120.145,148.661c-34.486,28.021-53.478,64.055-53.478,101.466
		c0,20.989,5.828,41.343,17.319,60.496c11.85,19.75,29.678,37.805,51.557,52.214c15.81,10.413,26.447,27.056,29.258,45.778
		c0.938,6.242,1.525,12.545,1.755,18.814c3.891-3.226,7.683-6.69,11.396-10.403c12.58-12.579,29.573-19.527,47.136-19.527
		c2.796,0,5.605,0.175,8.415,0.535c10.91,1.386,22.054,2.092,33.122,2.094v66.666c-14.129-0.001-27.997-0.905-41.532-2.625
		c-57.28,57.278-125.651,67.551-191.758,69.06v-14.02C69.029,501.72,100,469.865,100,433.46c0-5.08-0.395-10.067-1.127-14.945
		C38.562,378.793,0,318.123,0,250.127C0,130.466,119.391,33.46,266.667,33.46c145.03,0,263.017,94.07,266.582,211.208
		c-21.404-9.539-44.708-15.324-68.887-16.967c-6.006-29.202-23.646-56.675-51.173-79.04c-18.396-14.946-40.061-26.765-64.39-35.126
		c-25.889-8.896-53.521-13.408-82.132-13.408c-28.61,0-56.244,4.512-82.132,13.408C160.205,121.896,138.542,133.714,120.145,148.661
		z"/>
</g>
<g>
</g>
<g>
</g>
<g>
</g>
<g>
</g>
<g>
</g>
<g>
</g>
<g>
</g>
<g>
</g>
<g>
</g>
<g>
</g>
<g>
</g>
<g>
</g>
<g>
</g>
<g>
</g>
<g>
</g>
</svg>
