<?xml version="1.0" encoding="iso-8859-1"?>
<!-- Generator: Adobe Illustrator 16.0.0, SVG Export Plug-In . SVG Version: 6.00 Build 0)  -->
<!DOCTYPE svg PUBLIC "-//W3C//DTD SVG 1.1//EN" "http://www.w3.org/Graphics/SVG/1.1/DTD/svg11.dtd">
<svg version="1.1" id="Capa_1" xmlns="http://www.w3.org/2000/svg" xmlns:xlink="http://www.w3.org/1999/xlink" x="0px" y="0px"
	 width="600px" height="600px" viewBox="0 0 600 600" style="enable-background:new 0 0 600 600;" xml:space="preserve">
<g>
	<path d="M566.667,502.818c0,23.697,13.556,44.223,33.333,54.262v8.301c-5.534,0.76-11.184,1.159-16.927,1.159
		c-35.421,0-67.369-14.858-89.96-38.679c-13.656,3.637-28.126,5.6-43.113,5.6c-82.843,0-150-59.695-150-133.333
		s67.157-133.333,150-133.333s150,59.696,150,133.333c0,28.826-10.294,55.517-27.789,77.326
		C568.656,485.173,566.667,493.761,566.667,502.818z M266.667,33.46c145.03,0,263.017,94.07,266.582,211.208
		C507.633,233.252,479.297,227.21,450,227.21c-49.771,0-96.779,17.42-132.363,49.051c-36.899,32.799-57.22,76.789-57.22,123.866
		c0,23.267,4.971,45.774,14.446,66.556c-2.723,0.066-5.453,0.11-8.196,0.11c-14.144,0-28.026-0.903-41.575-2.627
		c-57.28,57.28-125.651,67.553-191.758,69.062v-14.02C69.029,501.72,100,469.865,100,433.46c0-5.08-0.395-10.067-1.127-14.945
		C38.562,378.793,0,318.123,0,250.127C0,130.466,119.391,33.46,266.667,33.46z"/>
</g>
<g>
</g>
<g>
</g>
<g>
</g>
<g>
</g>
<g>
</g>
<g>
</g>
<g>
</g>
<g>
</g>
<g>
</g>
<g>
</g>
<g>
</g>
<g>
</g>
<g>
</g>
<g>
</g>
<g>
</g>
</svg>
