<?xml version="1.0" encoding="iso-8859-1"?>
<!-- Generator: Adobe Illustrator 16.0.0, SVG Export Plug-In . SVG Version: 6.00 Build 0)  -->
<!DOCTYPE svg PUBLIC "-//W3C//DTD SVG 1.1//EN" "http://www.w3.org/Graphics/SVG/1.1/DTD/svg11.dtd">
<svg version="1.1" id="Capa_1" xmlns="http://www.w3.org/2000/svg" xmlns:xlink="http://www.w3.org/1999/xlink" x="0px" y="0px"
	 width="512px" height="512px" viewBox="0 0 512 512" style="enable-background:new 0 0 512 512;" xml:space="preserve">
<g>
	<path d="M256,16c141.385,0,256,114.615,256,256c0,96.396-53.287,180.333-132.004,224H132.004C53.288,452.333,0,368.396,0,272
		C0,130.615,114.615,16,256,16z M400.957,416.957C439.676,378.236,461,326.758,461,272h-45v-32h42.52
		c-3.508-22.499-10.695-44.073-21.281-64H384v-32h32.143c-4.719-5.881-9.775-11.548-15.186-16.957
		c-23.111-23.11-50.77-40.019-80.957-49.899V112h-32V69.48C277.509,67.846,266.82,67,256,67c-10.82,0-21.509,0.845-32,2.48V112h-32
		V77.144c-30.186,9.88-57.846,26.788-80.957,49.899c-5.409,5.409-10.466,11.076-15.185,16.957H128v32H74.762
		c-10.587,19.927-17.776,41.501-21.282,64H96v32H51c0,54.758,21.324,106.236,60.043,144.957c5.355,5.355,10.962,10.364,16.78,15.043
		H224l18.286-256h27.428L288,432h96.178C389.994,427.321,395.604,422.311,400.957,416.957z"/>
</g>
<g>
</g>
<g>
</g>
<g>
</g>
<g>
</g>
<g>
</g>
<g>
</g>
<g>
</g>
<g>
</g>
<g>
</g>
<g>
</g>
<g>
</g>
<g>
</g>
<g>
</g>
<g>
</g>
<g>
</g>
</svg>
