<?xml version="1.0" encoding="iso-8859-1"?>
<!-- Generator: Adobe Illustrator 16.0.0, SVG Export Plug-In . SVG Version: 6.00 Build 0)  -->
<!DOCTYPE svg PUBLIC "-//W3C//DTD SVG 1.1//EN" "http://www.w3.org/Graphics/SVG/1.1/DTD/svg11.dtd">
<svg version="1.1" id="Capa_1" xmlns="http://www.w3.org/2000/svg" xmlns:xlink="http://www.w3.org/1999/xlink" x="0px" y="0px"
	 width="533.333px" height="533.333px" viewBox="0 0 533.333 533.333" style="enable-background:new 0 0 533.333 533.333;"
	 xml:space="preserve">
<g>
	<path d="M266.667,0C119.391,0,0,119.391,0,266.667c0,147.275,119.391,266.666,266.667,266.666
		c147.275,0,266.667-119.391,266.667-266.666C533.333,119.391,413.942,0,266.667,0z M266.667,133.333
		c73.638,0,133.333,59.696,133.333,133.333C400,340.304,340.304,400,266.667,400c-73.637,0-133.333-59.696-133.333-133.333
		C133.333,193.029,193.029,133.333,266.667,133.333z M425.766,425.766c-42.498,42.497-99,65.901-159.1,65.901
		s-116.602-23.404-159.099-65.901c-42.498-42.497-65.901-99-65.901-159.099c0-60.099,23.404-116.603,65.901-159.099l35.355,35.355
		l0,0c-68.232,68.232-68.232,179.255,0,247.487c33.053,33.054,76.999,51.257,123.744,51.257c46.744,0,90.69-18.203,123.744-51.257
		c68.231-68.232,68.231-179.254,0-247.487l35.355-35.355c42.496,42.497,65.9,99,65.9,159.099
		C491.667,326.766,468.262,383.269,425.766,425.766z"/>
</g>
<g>
</g>
<g>
</g>
<g>
</g>
<g>
</g>
<g>
</g>
<g>
</g>
<g>
</g>
<g>
</g>
<g>
</g>
<g>
</g>
<g>
</g>
<g>
</g>
<g>
</g>
<g>
</g>
<g>
</g>
</svg>
