<?xml version="1.0" encoding="iso-8859-1"?>
<!-- Generator: Adobe Illustrator 16.0.0, SVG Export Plug-In . SVG Version: 6.00 Build 0)  -->
<!DOCTYPE svg PUBLIC "-//W3C//DTD SVG 1.1//EN" "http://www.w3.org/Graphics/SVG/1.1/DTD/svg11.dtd">
<svg version="1.1" id="Capa_1" xmlns="http://www.w3.org/2000/svg" xmlns:xlink="http://www.w3.org/1999/xlink" x="0px" y="0px"
	 width="533.333px" height="533.333px" viewBox="0 0 533.333 533.333" style="enable-background:new 0 0 533.333 533.333;"
	 xml:space="preserve">
<g>
	<path d="M283.333,100.631V66.667H350V33.333C350,14.924,335.075,0,316.665,0h-99.999c-18.409,0-33.333,14.924-33.333,33.333v33.333
		H250v33.965c-111.874,8.509-200,101.98-200,216.036c0,119.661,97.005,216.666,216.667,216.666s216.667-97.005,216.667-216.666
		C483.333,202.612,395.207,109.142,283.333,100.631z M384.517,434.518c-31.479,31.479-73.331,48.815-117.85,48.815
		c-44.519,0-86.372-17.336-117.852-48.815C117.336,403.039,100,361.184,100,316.667c0-44.518,17.337-86.372,48.815-117.851
		c30.229-30.229,70.025-47.405,112.56-48.723l-11.291,163.553c-0.969,13.693,6.492,19.688,16.582,19.688
		c10.09,0,17.552-5.995,16.581-19.688l-11.289-163.554c42.534,1.319,82.331,18.496,112.56,48.724
		c31.481,31.479,48.816,73.333,48.816,117.851C433.333,361.184,415.997,403.039,384.517,434.518z"/>
</g>
<g>
</g>
<g>
</g>
<g>
</g>
<g>
</g>
<g>
</g>
<g>
</g>
<g>
</g>
<g>
</g>
<g>
</g>
<g>
</g>
<g>
</g>
<g>
</g>
<g>
</g>
<g>
</g>
<g>
</g>
</svg>
