<?xml version="1.0" encoding="iso-8859-1"?>
<!-- Generator: Adobe Illustrator 16.0.0, SVG Export Plug-In . SVG Version: 6.00 Build 0)  -->
<!DOCTYPE svg PUBLIC "-//W3C//DTD SVG 1.1//EN" "http://www.w3.org/Graphics/SVG/1.1/DTD/svg11.dtd">
<svg version="1.1" id="Capa_1" xmlns="http://www.w3.org/2000/svg" xmlns:xlink="http://www.w3.org/1999/xlink" x="0px" y="0px"
	 width="448px" height="448px" viewBox="0 0 448 448" style="enable-background:new 0 0 448 448;" xml:space="preserve">
<g>
	<path d="M112,128H16c-8.8,0-16,7.2-16,16v288c0,8.8,7.2,16,16,16h96c8.8,0,16-7.2,16-16V144C128,135.2,120.8,128,112,128z M112,416
		H16V288h96V416z M272,64h-96c-8.8,0-16,7.2-16,16v352c0,8.8,7.2,16,16,16h96c8.801,0,16-7.2,16-16V80C288,71.2,280.801,64,272,64z
		 M272,416h-96V256h96V416z M432,0h-96c-8.801,0-16,7.2-16,16v416c0,8.8,7.199,16,16,16h96c8.801,0,16-7.2,16-16V16
		C448,7.2,440.801,0,432,0z M432,416h-96V224h96V416z"/>
</g>
<g>
</g>
<g>
</g>
<g>
</g>
<g>
</g>
<g>
</g>
<g>
</g>
<g>
</g>
<g>
</g>
<g>
</g>
<g>
</g>
<g>
</g>
<g>
</g>
<g>
</g>
<g>
</g>
<g>
</g>
</svg>
