<?xml version="1.0" encoding="iso-8859-1"?>
<!-- Generator: Adobe Illustrator 16.0.0, SVG Export Plug-In . SVG Version: 6.00 Build 0)  -->
<!DOCTYPE svg PUBLIC "-//W3C//DTD SVG 1.1//EN" "http://www.w3.org/Graphics/SVG/1.1/DTD/svg11.dtd">
<svg version="1.1" id="Capa_1" xmlns="http://www.w3.org/2000/svg" xmlns:xlink="http://www.w3.org/1999/xlink" x="0px" y="0px"
	 width="533.333px" height="533.333px" viewBox="0 0 533.333 533.333" style="enable-background:new 0 0 533.333 533.333;"
	 xml:space="preserve">
<g>
	<path d="M57.445,233.333c-38.021,0-16.667-100,16.667-100c-16.667,0,0-83.333,33.333-83.333c0-33.333,33.333-50,66.667-50
		c140.808,0,91.283,35.234,233.333,50v266.667c-125.48,37.639-250,131.991-250,216.666c-27.604,0-100-33.333,0-200
		c0,0-83.333,0-100,0C7.445,333.333,24.111,233.333,57.445,233.333z M440.777,316.667V50h-33.333V33.333h66.667
		c18.332,0,33.333,22.5,33.333,50v200c0,27.501-15.001,50-33.333,50h-66.667v-16.666H440.777z"/>
</g>
<g>
</g>
<g>
</g>
<g>
</g>
<g>
</g>
<g>
</g>
<g>
</g>
<g>
</g>
<g>
</g>
<g>
</g>
<g>
</g>
<g>
</g>
<g>
</g>
<g>
</g>
<g>
</g>
<g>
</g>
</svg>
