<?xml version="1.0" encoding="iso-8859-1"?>
<!-- Generator: Adobe Illustrator 16.0.0, SVG Export Plug-In . SVG Version: 6.00 Build 0)  -->
<!DOCTYPE svg PUBLIC "-//W3C//DTD SVG 1.1//EN" "http://www.w3.org/Graphics/SVG/1.1/DTD/svg11.dtd">
<svg version="1.1" id="Capa_1" xmlns="http://www.w3.org/2000/svg" xmlns:xlink="http://www.w3.org/1999/xlink" x="0px" y="0px"
	 width="533.333px" height="533.333px" viewBox="0 0 533.333 533.333" style="enable-background:new 0 0 533.333 533.333;"
	 xml:space="preserve">
<g>
	<path d="M475.888,300c38.021,0,16.667,100-16.666,100c16.666,0,0,83.333-33.334,83.333c0,33.334-33.333,50-66.666,50
		c-140.809,0-91.283-35.234-233.333-50V216.667c125.48-37.639,250-131.991,250-216.667c27.604,0,100,33.333,0,200
		c0,0,83.334,0,100,0C525.888,200,509.222,300,475.888,300z M92.555,216.667v266.667h33.333V500H59.221
		c-18.333,0-33.333-22.5-33.333-50V250c0-27.5,15-50,33.333-50h66.667v16.667H92.555z"/>
</g>
<g>
</g>
<g>
</g>
<g>
</g>
<g>
</g>
<g>
</g>
<g>
</g>
<g>
</g>
<g>
</g>
<g>
</g>
<g>
</g>
<g>
</g>
<g>
</g>
<g>
</g>
<g>
</g>
<g>
</g>
</svg>
