<?xml version="1.0" encoding="iso-8859-1"?>
<!-- Generator: Adobe Illustrator 16.0.0, SVG Export Plug-In . SVG Version: 6.00 Build 0)  -->
<!DOCTYPE svg PUBLIC "-//W3C//DTD SVG 1.1//EN" "http://www.w3.org/Graphics/SVG/1.1/DTD/svg11.dtd">
<svg version="1.1" id="Capa_1" xmlns="http://www.w3.org/2000/svg" xmlns:xlink="http://www.w3.org/1999/xlink" x="0px" y="0px"
	 width="533.337px" height="533.337px" viewBox="0 0 533.337 533.337" style="enable-background:new 0 0 533.337 533.337;"
	 xml:space="preserve">
<g>
	<path d="M300,166.667l66.665,66.666l-133.33,133.331l-66.666-66.666L300,166.667z M521.629,154.95l-38.289-38.289l-16.671,16.67
		c-8.528,8.531-20.317,13.807-33.333,13.807c-26.035,0-47.143-21.105-47.143-47.14c0-13.022,5.281-24.812,13.819-33.343
		l16.661-16.66l-38.291-38.29c-15.608-15.608-41.149-15.608-56.759,0L11.708,321.622c-15.607,15.608-15.607,41.152,0,56.759
		L50,416.671l16.647-16.647c8.532-8.545,20.328-13.828,33.356-13.828c26.036,0,47.141,21.105,47.141,47.141
		c0,13.023-5.281,24.812-13.82,33.345l-16.658,16.659l38.29,38.29c15.607,15.608,41.15,15.608,56.759,0l309.916-309.916
		C537.237,196.1,537.237,170.559,521.629,154.95z M233.336,433.332L100.003,299.998l200-200l133.333,133.333L233.336,433.332z"/>
</g>
<g>
</g>
<g>
</g>
<g>
</g>
<g>
</g>
<g>
</g>
<g>
</g>
<g>
</g>
<g>
</g>
<g>
</g>
<g>
</g>
<g>
</g>
<g>
</g>
<g>
</g>
<g>
</g>
<g>
</g>
</svg>
