<?xml version="1.0" encoding="iso-8859-1"?>
<!-- Generator: Adobe Illustrator 16.0.0, SVG Export Plug-In . SVG Version: 6.00 Build 0)  -->
<!DOCTYPE svg PUBLIC "-//W3C//DTD SVG 1.1//EN" "http://www.w3.org/Graphics/SVG/1.1/DTD/svg11.dtd">
<svg version="1.1" id="Capa_1" xmlns="http://www.w3.org/2000/svg" xmlns:xlink="http://www.w3.org/1999/xlink" x="0px" y="0px"
	 width="533.333px" height="533.333px" viewBox="0 0 533.333 533.333" style="enable-background:new 0 0 533.333 533.333;"
	 xml:space="preserve">
<g>
	<path d="M444.469,0H88.9C40.004,0,0,40.007,0,88.899v355.535c0,48.926,40.004,88.899,88.899,88.899h355.569
		c48.891,0,88.864-39.974,88.864-88.899V88.898C533.329,40.007,493.355,0,444.469,0z M381.103,429.524
		c-15.705,7.39-29.965,12.598-42.709,15.593c-12.758,2.965-26.542,4.458-41.355,4.458c-16.829,0-26.758-2.114-39.681-6.348
		c-12.92-4.265-23.958-10.352-33.073-18.164c-9.145-7.878-15.461-16.249-18.993-25.101c-3.534-8.856-5.29-21.715-5.29-38.544
		V232.356h-49.998v-52.118c14.45-4.688,31.217-11.424,41.502-20.182c10.333-8.788,18.603-19.301,24.835-31.606
		c6.252-12.274,10.547-27.93,12.892-46.91h52.343v85.126h85.09v65.691h-85.092v94.369c0,21.354-0.275,33.659,1.986,39.713
		c2.246,6.021,7.879,12.271,14.012,15.886c8.154,4.884,17.45,7.323,27.931,7.323c18.639,0,37.175-6.056,55.6-18.165V429.524
		L381.103,429.524z"/>
</g>
<g>
</g>
<g>
</g>
<g>
</g>
<g>
</g>
<g>
</g>
<g>
</g>
<g>
</g>
<g>
</g>
<g>
</g>
<g>
</g>
<g>
</g>
<g>
</g>
<g>
</g>
<g>
</g>
<g>
</g>
</svg>
