<?xml version="1.0" encoding="iso-8859-1"?>
<!-- Generator: Adobe Illustrator 16.0.0, SVG Export Plug-In . SVG Version: 6.00 Build 0)  -->
<!DOCTYPE svg PUBLIC "-//W3C//DTD SVG 1.1//EN" "http://www.w3.org/Graphics/SVG/1.1/DTD/svg11.dtd">
<svg version="1.1" id="Capa_1" xmlns="http://www.w3.org/2000/svg" xmlns:xlink="http://www.w3.org/1999/xlink" x="0px" y="0px"
	 width="533.333px" height="533.334px" viewBox="0 0 533.333 533.334" style="enable-background:new 0 0 533.333 533.334;"
	 xml:space="preserve">
<g>
	<path d="M508.333,529.167h-350c-13.807,0-25-11.193-25-25c0-35.865,15.14-79.272,40.499-116.115
		c21.194-30.791,47.231-53.971,75.353-67.505c-12.395-11.273-23.07-25.016-31.515-40.69c-13.542-25.136-20.701-54.191-20.701-84.025
		c0-41.462,13.648-80.637,38.431-110.308C261.267,54.556,296.046,37.5,333.333,37.5c37.286,0,72.065,17.056,97.934,48.026
		c24.781,29.671,38.432,68.845,38.432,110.308c0,29.833-7.158,58.889-20.7,84.025c-8.445,15.675-19.12,29.415-31.516,40.688
		c28.122,13.537,54.16,36.714,75.354,67.505c25.357,36.843,40.497,80.25,40.497,116.115
		C533.333,517.974,522.14,529.167,508.333,529.167z M186.497,479.167h293.673c-4.806-20.49-14.854-42.909-28.521-62.766
		c-21.591-31.368-48.529-51.888-75.854-57.774c-11.514-2.48-19.731-12.661-19.731-24.439v-17.86c0-8.989,4.825-17.286,12.64-21.73
		c30.978-17.621,50.995-56.388,50.995-98.763c0-59.736-38.742-108.333-86.363-108.333c-47.622,0-86.364,48.598-86.364,108.333
		c0,42.375,20.018,81.142,50.997,98.763c7.813,4.445,12.641,12.739,12.641,21.729v17.859c0,11.779-8.222,21.959-19.732,24.44
		c-27.325,5.886-54.263,26.406-75.855,57.774C201.35,436.258,191.303,458.677,186.497,479.167z M102.664,445.833h-49.5
		c4.806-20.489,14.853-42.907,28.521-62.765c21.592-31.368,48.53-51.888,75.854-57.774c11.514-2.481,19.734-12.662,19.734-24.439
		v-17.861c0-8.989-4.827-17.286-12.64-21.729c-30.979-17.622-50.997-56.389-50.997-98.764c0-59.735,38.742-108.333,86.364-108.333
		c3.257,0,6.472,0.236,9.636,0.678c13.729-15.278,29.289-27.695,46.167-36.981C238.516,8.889,219.605,4.167,200,4.167
		c-37.287,0-72.067,17.057-97.935,48.026C77.284,81.863,63.636,121.039,63.636,162.5c0,29.833,7.158,58.889,20.701,84.025
		c8.444,15.675,19.12,29.415,31.514,40.688c-28.121,13.538-54.159,36.715-75.353,67.505C15.14,391.561,0,434.968,0,470.833
		c0,13.808,11.193,25,25,25h68.951C94.72,479.674,97.7,462.807,102.664,445.833z"/>
</g>
<g>
</g>
<g>
</g>
<g>
</g>
<g>
</g>
<g>
</g>
<g>
</g>
<g>
</g>
<g>
</g>
<g>
</g>
<g>
</g>
<g>
</g>
<g>
</g>
<g>
</g>
<g>
</g>
<g>
</g>
</svg>
