<?xml version="1.0" encoding="iso-8859-1"?>
<!-- Generator: Adobe Illustrator 16.0.0, SVG Export Plug-In . SVG Version: 6.00 Build 0)  -->
<!DOCTYPE svg PUBLIC "-//W3C//DTD SVG 1.1//EN" "http://www.w3.org/Graphics/SVG/1.1/DTD/svg11.dtd">
<svg version="1.1" id="Capa_1" xmlns="http://www.w3.org/2000/svg" xmlns:xlink="http://www.w3.org/1999/xlink" x="0px" y="0px"
	 width="533.333px" height="533.334px" viewBox="0 0 533.333 533.334" style="enable-background:new 0 0 533.333 533.334;"
	 xml:space="preserve">
<g>
	<path d="M382.809,394.008c-9.87-1.556-10.096-28.467-10.096-28.467s29.006-28.465,35.325-66.744
		c17.006,0,27.507-40.697,10.502-55.014c0.71-15.075,21.858-118.323-85.207-118.323c-107.065,0-85.916,103.248-85.208,118.322
		c-17.007,14.316-6.504,55.014,10.501,55.014c6.32,38.279,35.327,66.745,35.327,66.745s-0.227,26.91-10.097,28.467
		c-31.795,5.016-150.524,56.935-150.524,113.867h200h200C533.333,450.942,414.606,399.023,382.809,394.008z M179.194,403.089
		c22.966-14.142,50.847-27.244,73.718-35.117c-8.204-11.684-17.34-27.571-23.088-46.387c-8.024-6.545-14.554-15.901-18.749-27.396
		c-4.201-11.513-5.793-24.401-4.483-36.294c0.939-8.538,3.374-16.493,7.109-23.483c-2.266-24.263-3.861-71.893,27.317-106.631
		c12.09-13.472,27.373-23.156,45.676-29.003C283.426,65.047,266.299,25.459,200,25.459c-107.065,0-85.916,103.248-85.208,118.321
		c-17.007,14.318-6.504,55.015,10.501,55.015c6.319,38.278,35.326,66.745,35.326,66.745s-0.225,26.909-10.096,28.466
		C118.728,299.023,0,350.943,0,407.875h171.664C174.117,406.273,176.615,404.677,179.194,403.089z"/>
</g>
<g>
</g>
<g>
</g>
<g>
</g>
<g>
</g>
<g>
</g>
<g>
</g>
<g>
</g>
<g>
</g>
<g>
</g>
<g>
</g>
<g>
</g>
<g>
</g>
<g>
</g>
<g>
</g>
<g>
</g>
</svg>
