<?xml version="1.0" encoding="iso-8859-1"?>
<!-- Generator: Adobe Illustrator 16.0.0, SVG Export Plug-In . SVG Version: 6.00 Build 0)  -->
<!DOCTYPE svg PUBLIC "-//W3C//DTD SVG 1.1//EN" "http://www.w3.org/Graphics/SVG/1.1/DTD/svg11.dtd">
<svg version="1.1" id="Capa_1" xmlns="http://www.w3.org/2000/svg" xmlns:xlink="http://www.w3.org/1999/xlink" x="0px" y="0px"
	 width="533.333px" height="533.333px" viewBox="0 0 533.333 533.333" style="enable-background:new 0 0 533.333 533.333;"
	 xml:space="preserve">
<g>
	<path d="M266.667,0C119.391,0,0,119.39,0,266.667c0,147.275,119.389,266.666,266.667,266.666
		c147.275,0,266.667-119.391,266.667-266.666C533.333,119.39,413.942,0,266.667,0z M366.667,133.333
		c18.409,0,33.333,22.386,33.333,50s-14.924,50-33.333,50s-33.333-22.386-33.333-50S348.257,133.333,366.667,133.333z
		 M183.333,162.533c31.066,0,53.125,11.631,53.125,29.834c0,3.853,1.986,22.393-0.088,25.83
		c-7.723-12.8-28.547-21.973-53.037-21.973c-24.489,0-45.313,9.173-53.036,21.973c-2.074-3.438-0.089-21.977-0.089-25.83
		C130.208,174.164,152.267,162.533,183.333,162.533z M260.596,433.333c-62.105,0-116.593-33.479-147.339-83.829
		c36.672,28.678,101.32,34.277,169.421,20.823c73.046-14.433,129.744-47.679,150.235-91.979
		C421.635,365.828,348.79,433.333,260.596,433.333z"/>
</g>
<g>
</g>
<g>
</g>
<g>
</g>
<g>
</g>
<g>
</g>
<g>
</g>
<g>
</g>
<g>
</g>
<g>
</g>
<g>
</g>
<g>
</g>
<g>
</g>
<g>
</g>
<g>
</g>
<g>
</g>
</svg>
