<?xml version="1.0" encoding="iso-8859-1"?>
<!-- Generator: Adobe Illustrator 16.0.0, SVG Export Plug-In . SVG Version: 6.00 Build 0)  -->
<!DOCTYPE svg PUBLIC "-//W3C//DTD SVG 1.1//EN" "http://www.w3.org/Graphics/SVG/1.1/DTD/svg11.dtd">
<svg version="1.1" id="Capa_1" xmlns="http://www.w3.org/2000/svg" xmlns:xlink="http://www.w3.org/1999/xlink" x="0px" y="0px"
	 width="533.333px" height="533.333px" viewBox="0 0 533.333 533.333" style="enable-background:new 0 0 533.333 533.333;"
	 xml:space="preserve">
<g>
	<path d="M266.667,0C119.391,0,0,119.391,0,266.667c0,147.275,119.391,266.666,266.667,266.666
		c147.275,0,266.667-119.391,266.667-266.666C533.333,119.391,413.942,0,266.667,0z M366.667,133.333
		c18.409,0,33.333,14.924,33.333,33.333S385.076,200,366.667,200s-33.333-14.924-33.333-33.333S348.257,133.333,366.667,133.333z
		 M133.333,166.667c0-18.409,14.924-33.333,33.333-33.333S200,148.257,200,166.667S185.076,200,166.667,200
		S133.333,185.076,133.333,166.667z M172.523,419.993l-11.713-39.986l227.604-66.667l11.713,39.986L172.523,419.993z"/>
</g>
<g>
</g>
<g>
</g>
<g>
</g>
<g>
</g>
<g>
</g>
<g>
</g>
<g>
</g>
<g>
</g>
<g>
</g>
<g>
</g>
<g>
</g>
<g>
</g>
<g>
</g>
<g>
</g>
<g>
</g>
</svg>
