<?xml version="1.0" encoding="iso-8859-1"?>
<!-- Generator: Adobe Illustrator 16.0.0, SVG Export Plug-In . SVG Version: 6.00 Build 0)  -->
<!DOCTYPE svg PUBLIC "-//W3C//DTD SVG 1.1//EN" "http://www.w3.org/Graphics/SVG/1.1/DTD/svg11.dtd">
<svg version="1.1" id="Capa_1" xmlns="http://www.w3.org/2000/svg" xmlns:xlink="http://www.w3.org/1999/xlink" x="0px" y="0px"
	 width="533.333px" height="533.333px" viewBox="0 0 533.333 533.333" style="enable-background:new 0 0 533.333 533.333;"
	 xml:space="preserve">
<g>
	<path d="M270.178,283.699l61.474,164.034c0.406,0.964,0.902,1.848,1.432,2.685c-20.787,7.126-43.126,11.041-66.415,11.041
		c-19.632,0-38.579-2.802-56.504-7.937L270.178,283.699z M466.667,266.664c0,71.859-39.987,134.599-99.447,168.363l61.086-172.017
		c11.412-27.789,15.212-50.011,15.212-69.766c0-7.173-0.49-13.827-1.348-20.03C457.781,200.955,466.667,232.794,466.667,266.664z
		 M66.667,266.662c0-28.242,6.221-55.051,17.319-79.273l95.405,254.575C112.667,410.396,66.667,343.759,66.667,266.662z
		 M99.564,159.671c35.759-52.876,97.231-87.796,167.106-87.796c52.067,0,99.476,19.388,135.057,51.144
		c-0.862-0.051-1.703-0.157-2.592-0.157c-19.646,0-33.587,16.667-33.587,34.57c0,16.053,9.512,29.633,19.646,45.686
		c7.604,12.972,16.486,29.64,16.486,53.72c0,16.667-6.581,36.015-15.217,62.968l-19.954,64.913l-72.281-209.385
		c12.039-0.613,22.889-1.849,22.889-1.849c10.78-1.244,9.511-16.669-1.273-16.053c0,0-32.397,2.475-53.307,2.475
		c-19.653,0-52.674-2.475-52.674-2.475c-10.787-0.614-12.053,15.433-1.27,16.053c0,0,10.203,1.232,20.978,1.849l31.157,83.151
		l-43.773,127.842l-72.831-210.993c12.054-0.615,22.892-1.849,22.892-1.849c10.768-1.244,9.496-16.669-1.28-16.053
		c0,0-32.388,2.475-53.302,2.475C108.682,159.907,104.257,159.817,99.564,159.671z M443.75,0H89.583C40.312,0,0,40.312,0,89.583
		V443.75c0,49.271,40.312,89.583,89.583,89.583H443.75c49.271,0,89.584-40.312,89.584-89.583V89.583
		C533.333,40.312,493.02,0,443.75,0z M500,266.667C500,395.533,395.533,500,266.667,500C137.8,500,33.333,395.533,33.333,266.667
		C33.333,137.8,137.8,33.333,266.667,33.333C395.533,33.333,500,137.8,500,266.667z"/>
</g>
<g>
</g>
<g>
</g>
<g>
</g>
<g>
</g>
<g>
</g>
<g>
</g>
<g>
</g>
<g>
</g>
<g>
</g>
<g>
</g>
<g>
</g>
<g>
</g>
<g>
</g>
<g>
</g>
<g>
</g>
</svg>
