<?xml version="1.0" encoding="iso-8859-1"?>
<!-- Generator: Adobe Illustrator 16.0.0, SVG Export Plug-In . SVG Version: 6.00 Build 0)  -->
<!DOCTYPE svg PUBLIC "-//W3C//DTD SVG 1.1//EN" "http://www.w3.org/Graphics/SVG/1.1/DTD/svg11.dtd">
<svg version="1.1" id="Capa_1" xmlns="http://www.w3.org/2000/svg" xmlns:xlink="http://www.w3.org/1999/xlink" x="0px" y="0px"
	 width="530.658px" height="530.659px" viewBox="0 0 530.658 530.659" style="enable-background:new 0 0 530.658 530.659;"
	 xml:space="preserve">
<g>
	<path d="M441.667,331.996l-7.738-216.676c-0.328-9.162,6.905-16.657,16.071-16.657h66.667c9.166,0,15.348,7.383,13.736,16.407
		l-38.736,216.926 M500,402.83c0,16.042-13.125,29.166-29.167,29.166H462.5c-16.042,0-29.167-13.124-29.167-29.166v-8.334
		c0-16.042,13.125-29.166,29.167-29.166h8.333c16.042,0,29.167,13.124,29.167,29.166V402.83z M200,98.663
		C89.542,98.663,0,173.281,0,265.33c0,92.047,89.542,166.666,200,166.666c110.457,0,200-74.619,200-166.666
		C400,173.281,310.457,98.663,200,98.663z M333.333,231.996h-38.678l-61.322,61.323v38.677h50v33.334H150v-33.334h50v-38.677
		l-94.656-94.656H83.437v-33.333h99.794v33.333h-21.908l55.343,55.344l16.667-16.667v-38.677h100V231.996z"/>
</g>
<g>
</g>
<g>
</g>
<g>
</g>
<g>
</g>
<g>
</g>
<g>
</g>
<g>
</g>
<g>
</g>
<g>
</g>
<g>
</g>
<g>
</g>
<g>
</g>
<g>
</g>
<g>
</g>
<g>
</g>
</svg>
