<?xml version="1.0" encoding="utf-8"?>
<!-- Generator: Adobe Illustrator 17.1.0, SVG Export Plug-In . SVG Version: 6.00 Build 0)  -->
<!DOCTYPE svg PUBLIC "-//W3C//DTD SVG 1.1//EN" "http://www.w3.org/Graphics/SVG/1.1/DTD/svg11.dtd">
<svg version="1.1" id="ad-billboard" xmlns="http://www.w3.org/2000/svg" xmlns:xlink="http://www.w3.org/1999/xlink" x="0px"
	 y="0px" viewBox="0 0 1024 1024" enable-background="new 0 0 1024 1024" xml:space="preserve">
<g>
	<g id="ad-billboard-label">
		<rect fill="#B6D161" width="1024" height="1024"/>
	</g>
	<g id="ad-billboard-ad-billboard">
		<g>
			<g>
				<polygon fill="#FFFFFF" points="457.1201,780.7998 436.6396,780.7998 436.6396,650.5605 457.1201,650.5605 457.1201,780.7998 
									"/>
			</g>
			<g>
				<polygon fill="#FFFFFF" points="587.3599,780.7998 566.8799,780.7998 566.8799,650.5605 587.3599,650.5605 587.3599,780.7998 
									"/>
			</g>
		</g>
		<g>
			<path fill="#FFFFFF" d="M750.7998,663.0605H273.21c-23.605,0-42.8101-19.1005-42.8101-42.58V275.5601
				c0-23.4898,19.2051-42.6001,42.8101-42.6001h477.5898c23.6006,0,42.7998,19.1103,42.7998,42.6001v344.9204
				C793.5996,643.96,774.4004,663.0605,750.7998,663.0605L750.7998,663.0605z M273.21,253.4399
				c-12.315,0-22.3301,9.9205-22.3301,22.1202v344.9204c0,12.1894,10.0151,22.0995,22.3301,22.0995h477.5898
				c12.3057,0,22.3203-9.9102,22.3203-22.0995V275.5601c0-12.1997-10.0146-22.1202-22.3203-22.1202H273.21L273.21,253.4399z"/>
		</g>
		<g>
			<path fill="#FFFFFF" d="M711.6797,581.1201H312.3203V314.8799h399.3594V581.1201L711.6797,581.1201z M332.7998,560.6406h358.4004
				V335.3604H332.7998V560.6406L332.7998,560.6406z"/>
		</g>
		<g>
			<g>
				<g>
					<g>
						<path fill="#FFFFFF" d="M503.23,520.4004h-20.48V406.2803c0-10.0801-8.21-18.2803-18.2998-18.2803h-9.5
							c-10.085,0-18.29,8.2002-18.29,18.2803v114.1201h-20.4805V406.2803c0-21.3701,17.3901-38.7603,38.7705-38.7603h9.5
							c21.3848,0,38.7798,17.3902,38.7798,38.7603V520.4004L503.23,520.4004z"/>
					</g>
				</g>
				<g>
					<polygon fill="#FFFFFF" points="492.9902,473.5703 426.4199,473.5703 426.4199,453.0898 492.9902,453.0898 492.9902,473.5703 
											"/>
				</g>
			</g>
			<g>
				<g>
					<path fill="none" d="M531.02,368.2402"/>
				</g>
				<g>
					<path fill="#FFFFFF" d="M569.0498,521.1201h-48.2695V367.52h48.2695c21.3857,0,38.7803,17.3902,38.7803,38.7603v76.0801
						C607.8301,503.7305,590.4355,521.1201,569.0498,521.1201L569.0498,521.1201z M541.2598,500.6406h27.79
						c10.0898,0,18.2998-8.2011,18.2998-18.2802v-76.0801c0-10.0801-8.21-18.2803-18.2998-18.2803h-27.79V500.6406
						L541.2598,500.6406z"/>
				</g>
			</g>
		</g>
		<g>
			<polygon fill="#FFFFFF" points="666.21,458.2402 644.5098,458.2402 644.5098,437.7598 666.21,437.7598 666.21,458.2402 			"/>
		</g>
		<g>
			<polygon fill="#FFFFFF" points="379.4902,458.2402 357.79,458.2402 357.79,437.7598 379.4902,437.7598 379.4902,458.2402 			"/>
		</g>
		<g>
			<polygon fill="#FFFFFF" points="685.6602,791.04 338.3398,791.04 338.3398,770.5605 685.6602,770.5605 685.6602,791.04 			"/>
		</g>
	</g>
</g>
</svg>
