<?xml version="1.0" encoding="utf-8"?>
<!-- Generator: Adobe Illustrator 17.1.0, SVG Export Plug-In . SVG Version: 6.00 Build 0)  -->
<!DOCTYPE svg PUBLIC "-//W3C//DTD SVG 1.1//EN" "http://www.w3.org/Graphics/SVG/1.1/DTD/svg11.dtd">
<svg version="1.1" id="atm-machine" xmlns="http://www.w3.org/2000/svg" xmlns:xlink="http://www.w3.org/1999/xlink" x="0px"
	 y="0px" viewBox="0 0 1024 1024" enable-background="new 0 0 1024 1024" xml:space="preserve">
<g>
	<g id="atm-machine-label">
		<rect fill="#B6D161" width="1024" height="1024"/>
	</g>
	<g id="atm-machine-atm-machine">
		<g>
			<polygon fill="#FFFFFF" points="808.9697,722.0195 476.4102,722.0195 476.4102,701.54 788.4902,701.54 788.4902,263.2803 
				235.5303,263.2803 235.5303,701.54 299.5996,701.54 299.5996,722.0195 215.0498,722.0195 215.0498,242.7998 808.9697,242.7998 
				808.9697,722.0195 			"/>
		</g>
		<g>
			<path fill="#FFFFFF" d="M505.7598,496.2598H270.23V303.7197h235.5298V496.2598L505.7598,496.2598z M290.71,475.7803h194.5703
				V324.2002H290.71V475.7803L290.71,475.7803z"/>
		</g>
		<g>
			<g>
				<g>
					<path fill="#FFFFFF" d="M616.5996,494.1797H550.27v-66.3594h66.3296V494.1797L616.5996,494.1797z M570.75,473.7002h25.3701
						v-25.4004H570.75V473.7002L570.75,473.7002z"/>
				</g>
				<g>
					<path fill="#FFFFFF" d="M688.5498,494.1797h-66.3701v-66.3594h66.3701V494.1797L688.5498,494.1797z M642.6602,473.7002h25.4101
						v-25.4004h-25.4101V473.7002L642.6602,473.7002z"/>
				</g>
				<g>
					<path fill="#FFFFFF" d="M758.2002,494.1797h-66.3604v-66.3594h66.3604V494.1797L758.2002,494.1797z M712.3203,473.7002h25.3994
						v-25.4004h-25.3994V473.7002L712.3203,473.7002z"/>
				</g>
			</g>
			<g>
				<g>
					<path fill="#FFFFFF" d="M616.5996,581.9004H550.27V515.54h66.3296V581.9004L616.5996,581.9004z M570.75,561.4199h25.3701
						v-25.4004H570.75V561.4199L570.75,561.4199z"/>
				</g>
				<g>
					<path fill="#FFFFFF" d="M688.5498,581.9004h-66.3701V515.54h66.3701V581.9004L688.5498,581.9004z M642.6602,561.4199h25.4101
						v-25.4004h-25.4101V561.4199L642.6602,561.4199z"/>
				</g>
				<g>
					<path fill="#FFFFFF" d="M758.2002,581.9004h-66.3604V515.54h66.3604V581.9004L758.2002,581.9004z M712.3203,561.4199h25.3994
						v-25.4004h-25.3994V561.4199L712.3203,561.4199z"/>
				</g>
			</g>
			<g>
				<g>
					<path fill="#FFFFFF" d="M616.5996,669.6406H550.27v-66.3408h66.3296V669.6406L616.5996,669.6406z M570.75,649.1602h25.3701
						v-25.3799H570.75V649.1602L570.75,649.1602z"/>
				</g>
				<g>
					<path fill="#FFFFFF" d="M688.5498,669.6406h-66.3701v-66.3408h66.3701V669.6406L688.5498,669.6406z M642.6602,649.1602h25.4101
						v-25.3799h-25.4101V649.1602L642.6602,649.1602z"/>
				</g>
				<g>
					<path fill="#FFFFFF" d="M758.2002,669.6406h-66.3604v-66.3408h66.3604V669.6406L758.2002,669.6406z M712.3203,649.1602h25.3994
						v-25.3799h-25.3994V649.1602L712.3203,649.1602z"/>
				</g>
			</g>
		</g>
		<g>
			<path fill="#FFFFFF" d="M758.1797,385.1602H550.27v-67.7203h207.9097V385.1602L758.1797,385.1602z M570.75,364.6802h166.9502
				v-26.7603H570.75V364.6802L570.75,364.6802z"/>
		</g>
		<g>
			<polygon fill="#FFFFFF" points="486.6499,781.1797 289.3599,781.1797 289.3599,566.0605 309.8398,566.0605 309.8398,760.7002 
				466.1699,760.7002 466.1699,566.0605 486.6499,566.0605 486.6499,781.1797 			"/>
		</g>
		<g>
			<g>
				<path fill="#FFFFFF" d="M428.7002,749.2002h-81.3901c-3.8501,0-7.5201-1.6504-10.0699-4.5303
					c-2.5205-3.0996-3.5903-6.6094-3.2705-10.2197c0.0205-0.2002,0.1299-1.0801,0.1602-1.2705c0-0.8594-1.0098-1.8799-2.25-1.8799
					c-3.6797,0.2998-7.3198-0.9199-10.0098-3.3096c-3.0703-3.0703-4.4805-6.4502-4.4805-9.9707V568.4199
					c0-5.6601,4.5801-10.2402,10.2403-10.2402c5.6601,0,10.2402,4.5801,10.2402,10.2402v143.2002
					c8.0996,2.2197,14.4102,8.8301,16.2197,17.0996h67.8301c0.9199-4.2197,3.0303-8.0996,6.1699-11.2197
					c2.8301-2.8105,6.2803-4.7998,10.0498-5.8301v-143.25c0-5.6601,4.5801-10.2402,10.2403-10.2402
					c5.6601,0,10.2402,4.5801,10.2402,10.2402v149.5995c0,3.4611-1.3603,6.791-3.8398,9.3907
					c-3.2803,2.9599-6.9004,4.2002-10.4903,3.9502c-0.83,0.0595-1.4502,0.3496-1.7597,0.6699
					c-0.3003,0.29-0.6504,0.7998-0.6504,1.5498c0.6504,4.1396-0.5996,8.2998-3.3198,11.2002
					C436.1499,747.5098,432.48,749.2002,428.7002,749.2002L428.7002,749.2002z"/>
			</g>
		</g>
		<g>
			<g>
				<path fill="#FFFFFF" d="M388.0303,657.9395c-21.9805,0-39.8604-17.8594-39.8604-39.8194
					c0-21.9795,17.8799-39.8603,39.8604-39.8603c21.9599,0,39.8193,17.8808,39.8193,39.8603
					C427.8496,640.0801,409.9902,657.9395,388.0303,657.9395L388.0303,657.9395z M388.0303,598.7402
					c-10.6905,0-19.3804,8.6895-19.3804,19.3799c0,10.6602,8.6899,19.3399,19.3804,19.3399
					c10.6596,0,19.3398-8.6797,19.3398-19.3399C407.3701,607.4297,398.6899,598.7402,388.0303,598.7402L388.0303,598.7402z"/>
			</g>
			<g>
				<polygon fill="#FFFFFF" points="392.54,708.2402 379.7402,708.2402 379.7402,668.6602 392.54,668.6602 392.54,708.2402 				"/>
			</g>
		</g>
		<g>
			<polygon fill="#FFFFFF" points="506.27,571.5 269.7197,571.5 269.7197,551.0195 506.27,551.0195 506.27,571.5 			"/>
		</g>
		<g>
			<g>
				<polygon fill="#FFFFFF" points="371.9199,378.8799 312.3301,378.8799 312.3301,358.4004 371.9199,358.4004 371.9199,378.8799 
									"/>
			</g>
			<g>
				<polygon fill="#FFFFFF" points="465.9297,440.3203 433.9297,440.3203 433.9297,419.8398 465.9297,419.8398 465.9297,440.3203 
									"/>
			</g>
			<g>
				<polygon fill="#FFFFFF" points="401.9297,440.3203 312.3301,440.3203 312.3301,419.8398 401.9297,419.8398 401.9297,440.3203 
									"/>
			</g>
			<g>
				<polygon fill="#FFFFFF" points="465.9297,409.6001 433.9297,409.6001 433.9297,389.1201 465.9297,389.1201 465.9297,409.6001 
									"/>
			</g>
			<g>
				<polygon fill="#FFFFFF" points="401.9297,409.6001 312.3301,409.6001 312.3301,389.1201 401.9297,389.1201 401.9297,409.6001 
									"/>
			</g>
		</g>
	</g>
</g>
</svg>
