<?xml version="1.0" encoding="utf-8"?>
<!-- Generator: Adobe Illustrator 17.1.0, SVG Export Plug-In . SVG Version: 6.00 Build 0)  -->
<!DOCTYPE svg PUBLIC "-//W3C//DTD SVG 1.1//EN" "http://www.w3.org/Graphics/SVG/1.1/DTD/svg11.dtd">
<svg version="1.1" id="basket" xmlns="http://www.w3.org/2000/svg" xmlns:xlink="http://www.w3.org/1999/xlink" x="0px" y="0px"
	 viewBox="0 0 1024 1024" enable-background="new 0 0 1024 1024" xml:space="preserve">
<g>
	<g id="basket-label">
		<rect fill="#B6D161" width="1024" height="1024"/>
	</g>
	<g id="basket-basket">
		<g>
			<g>
				<path fill="#FFFFFF" d="M348.8799,443.2402h-63.7002c-4.1397,0-7.875-2.4902-9.46-6.3203
					c-1.5849-3.8301-0.7099-8.23,2.2202-11.1601L453.1797,250.52c12.3203-12.3598,33.9253-12.3598,46.3154-0.0102
					c6.1997,6.2202,9.6045,14.4502,9.6045,23.2002s-3.4097,16.9799-9.6045,23.1601l-143.375,143.3701
					C354.2002,442.1602,351.5947,443.2402,348.8799,443.2402L348.8799,443.2402z M309.8999,422.7598h34.7397L485.02,282.3799
					c2.3198-2.3198,3.6001-5.3897,3.6001-8.6699c0-3.2798-1.2754-6.3702-3.6001-8.69c-4.645-4.6596-12.7451-4.6299-17.3501-0.0298
					L309.8999,422.7598L309.8999,422.7598z"/>
			</g>
			<g>
				<path fill="#FFFFFF" d="M738.8203,443.2402h-63.7207c-2.7148,0-5.3193-1.08-7.2402-3L524.48,296.8604
					c-12.7554-12.7603-12.7603-33.5303-0.0103-46.3106c12.4199-12.4199,33.9702-12.3799,46.3405-0.04l175.2504,175.25
					c2.9297,2.9301,3.8047,7.33,2.2198,11.1601C746.6953,440.75,742.96,443.2402,738.8203,443.2402L738.8203,443.2402z
					 M679.3398,422.7598h34.7598L556.3398,265c-4.6201-4.6099-12.7197-4.6299-17.3598,0c-4.7949,4.8101-4.8003,12.6001-0.02,17.3799
					L679.3398,422.7598L679.3398,422.7598z"/>
			</g>
		</g>
		<g>
			<path fill="#FFFFFF" d="M798.7197,485.7197H225.2803c-5.6553,0-10.2403-4.5791-10.2403-10.2392V433
				c0-5.6602,4.585-10.2402,10.2403-10.2402h573.4393c5.6553,0,10.2404,4.58,10.2404,10.2402v42.4805
				C808.96,481.1406,804.375,485.7197,798.7197,485.7197L798.7197,485.7197z M235.52,465.2402h552.9604v-22H235.52V465.2402
				L235.52,465.2402z"/>
		</g>
		<g>
			<path fill="#FFFFFF" d="M698.1797,783.0605H325.8203c-26.0454,0-48.4756-19.4501-52.1753-45.2402l-37.2602-260.8906
				c-0.42-2.9395,0.455-5.9199,2.4004-8.1602c1.9448-2.2392,4.7646-3.5293,7.7348-3.5293h530.9604
				c2.9697,0,5.789,1.2901,7.7343,3.5293c1.9454,2.2403,2.8204,5.2207,2.4004,8.1602L750.335,737.8105
				C746.6602,763.5996,724.2344,783.0605,698.1797,783.0605L698.1797,783.0605z M258.3252,485.7197l35.5898,249.1905
				c2.2647,15.7695,15.98,27.6699,31.9053,27.6699h372.3594c15.9258,0,29.6348-11.8906,31.8848-27.6699l35.6103-249.1905H258.3252
				L258.3252,485.7197z"/>
		</g>
		<g>
			<g>
				<path fill="#FFFFFF" d="M703.1396,570.6797h-42.4794c-5.6553,0-10.2404-4.5801-10.2404-10.2402
					c0-5.6592,4.585-10.2393,10.2404-10.2393h42.4794c5.6553,0,10.2403,4.5801,10.2403,10.2393
					C713.3799,566.0996,708.7949,570.6797,703.1396,570.6797L703.1396,570.6797z"/>
			</g>
			<g>
				<path fill="#FFFFFF" d="M618.1797,570.6797h-42.46c-5.6548,0-10.2397-4.5801-10.2397-10.2402
					c0-5.6592,4.5849-10.2393,10.2397-10.2393h42.46c5.6553,0,10.2402,4.5801,10.2402,10.2393
					C628.4199,566.0996,623.835,570.6797,618.1797,570.6797L618.1797,570.6797z"/>
			</g>
			<g>
				<path fill="#FFFFFF" d="M533.2402,570.6797h-42.4804c-5.6548,0-10.2398-4.5801-10.2398-10.2402
					c0-5.6592,4.585-10.2393,10.2398-10.2393h42.4804c5.6548,0,10.2398,4.5801,10.2398,10.2393
					C543.48,566.0996,538.895,570.6797,533.2402,570.6797L533.2402,570.6797z"/>
			</g>
			<g>
				<path fill="#FFFFFF" d="M448.2803,570.6797h-42.4605c-5.6548,0-10.2397-4.5801-10.2397-10.2402
					c0-5.6592,4.5849-10.2393,10.2397-10.2393h42.4605c5.6548,0,10.2397,4.5801,10.2397,10.2393
					C458.52,566.0996,453.9351,570.6797,448.2803,570.6797L448.2803,570.6797z"/>
			</g>
			<g>
				<path fill="#FFFFFF" d="M363.3198,570.6797h-42.48c-5.6547,0-10.2402-4.5801-10.2402-10.2402
					c0-5.6592,4.5855-10.2393,10.2402-10.2393h42.48c5.6548,0,10.2403,4.5801,10.2403,10.2393
					C373.5601,566.0996,368.9746,570.6797,363.3198,570.6797L363.3198,570.6797z"/>
			</g>
			<g>
				<path fill="#FFFFFF" d="M703.1396,634.3799h-42.4794c-5.6553,0-10.2404-4.5801-10.2404-10.2393
					c0-5.6601,4.585-10.2402,10.2404-10.2402h42.4794c5.6553,0,10.2403,4.5801,10.2403,10.2402
					C713.3799,629.7998,708.7949,634.3799,703.1396,634.3799L703.1396,634.3799z"/>
			</g>
			<g>
				<path fill="#FFFFFF" d="M618.1797,634.3799h-42.46c-5.6548,0-10.2397-4.5801-10.2397-10.2393
					c0-5.6601,4.5849-10.2402,10.2397-10.2402h42.46c5.6553,0,10.2402,4.5801,10.2402,10.2402
					C628.4199,629.7998,623.835,634.3799,618.1797,634.3799L618.1797,634.3799z"/>
			</g>
			<g>
				<path fill="#FFFFFF" d="M533.2402,634.3799h-42.4804c-5.6548,0-10.2398-4.5801-10.2398-10.2393
					c0-5.6601,4.585-10.2402,10.2398-10.2402h42.4804c5.6548,0,10.2398,4.5801,10.2398,10.2402
					C543.48,629.7998,538.895,634.3799,533.2402,634.3799L533.2402,634.3799z"/>
			</g>
			<g>
				<path fill="#FFFFFF" d="M448.2803,634.3799h-42.4605c-5.6548,0-10.2397-4.5801-10.2397-10.2393
					c0-5.6601,4.5849-10.2402,10.2397-10.2402h42.4605c5.6548,0,10.2397,4.5801,10.2397,10.2402
					C458.52,629.7998,453.9351,634.3799,448.2803,634.3799L448.2803,634.3799z"/>
			</g>
			<g>
				<path fill="#FFFFFF" d="M363.3198,634.3799h-42.48c-5.6547,0-10.2402-4.5801-10.2402-10.2393
					c0-5.6601,4.5855-10.2402,10.2402-10.2402h42.48c5.6548,0,10.2403,4.5801,10.2403,10.2402
					C373.5601,629.7998,368.9746,634.3799,363.3198,634.3799L363.3198,634.3799z"/>
			</g>
			<g>
				<path fill="#FFFFFF" d="M703.1396,698.0996h-42.4794c-5.6553,0-10.2404-4.5801-10.2404-10.2392
					c0-5.6602,4.585-10.2403,10.2404-10.2403h42.4794c5.6553,0,10.2403,4.5801,10.2403,10.2403
					C713.3799,693.5195,708.7949,698.0996,703.1396,698.0996L703.1396,698.0996z"/>
			</g>
			<g>
				<path fill="#FFFFFF" d="M618.1797,698.0996h-42.46c-5.6548,0-10.2397-4.5801-10.2397-10.2392
					c0-5.6602,4.5849-10.2403,10.2397-10.2403h42.46c5.6553,0,10.2402,4.5801,10.2402,10.2403
					C628.4199,693.5195,623.835,698.0996,618.1797,698.0996L618.1797,698.0996z"/>
			</g>
			<g>
				<path fill="#FFFFFF" d="M533.2402,698.0996h-42.4804c-5.6548,0-10.2398-4.5801-10.2398-10.2392
					c0-5.6602,4.585-10.2403,10.2398-10.2403h42.4804c5.6548,0,10.2398,4.5801,10.2398,10.2403
					C543.48,693.5195,538.895,698.0996,533.2402,698.0996L533.2402,698.0996z"/>
			</g>
			<g>
				<path fill="#FFFFFF" d="M448.2803,698.0996h-42.4605c-5.6548,0-10.2397-4.5801-10.2397-10.2392
					c0-5.6602,4.5849-10.2403,10.2397-10.2403h42.4605c5.6548,0,10.2397,4.5801,10.2397,10.2403
					C458.52,693.5195,453.9351,698.0996,448.2803,698.0996L448.2803,698.0996z"/>
			</g>
			<g>
				<path fill="#FFFFFF" d="M363.3198,698.0996h-42.48c-5.6547,0-10.2402-4.5801-10.2402-10.2392
					c0-5.6602,4.5855-10.2403,10.2402-10.2403h42.48c5.6548,0,10.2403,4.5801,10.2403,10.2403
					C373.5601,693.5195,368.9746,698.0996,363.3198,698.0996L363.3198,698.0996z"/>
			</g>
		</g>
	</g>
</g>
</svg>
