<?xml version="1.0" encoding="utf-8"?>
<!-- Generator: Adobe Illustrator 17.1.0, SVG Export Plug-In . SVG Version: 6.00 Build 0)  -->
<!DOCTYPE svg PUBLIC "-//W3C//DTD SVG 1.1//EN" "http://www.w3.org/Graphics/SVG/1.1/DTD/svg11.dtd">
<svg version="1.1" id="bitcoin-coin" xmlns="http://www.w3.org/2000/svg" xmlns:xlink="http://www.w3.org/1999/xlink" x="0px"
	 y="0px" viewBox="0 0 1024 1024" enable-background="new 0 0 1024 1024" xml:space="preserve">
<g>
	<g id="bitcoin-coin-label">
		<rect fill="#4EC0B5" width="1024" height="1024"/>
	</g>
	<g id="bitcoin-coin-bitcoin-coin">
		<g>
			<g>
				<path fill="#FFFFFF" d="M513.5601,757.7695l-0.1402-20.4796c13.0898-0.08,26.2002-1.2998,38.9697-3.6103l3.6407,20.1602
					C542.1099,756.3496,527.8198,757.6797,513.5601,757.7695L513.5601,757.7695z M471.02,754.3604
					c-14-2.3506-27.8999-5.96-41.3003-10.71l6.8404-19.3008c12.2797,4.3506,25.02,7.6504,37.8598,9.8106L471.02,754.3604
					L471.02,754.3604z M597.21,742.5898l-7.1006-19.1992c12.2109-4.5205,24.1006-10.1406,35.3506-16.7109l10.3203,17.6807
					C623.5195,731.5303,610.54,737.6602,597.21,742.5898L597.21,742.5898z M390.8896,725.8906
					c-12.3696-7.0205-24.1997-15.1601-35.1596-24.2109l13.04-15.7998c10.0498,8.2998,20.8902,15.7705,32.2202,22.1904
					L390.8896,725.8906L390.8896,725.8906z M670.6299,699.7305l-13.2403-15.6407c9.9502-8.4101,19.2305-17.7597,27.5909-27.7597
					l15.7197,13.1396C691.5801,680.3701,681.4697,690.5498,670.6299,699.7305L670.6299,699.7305z M325.2803,671.7803
					c-9.25-10.7997-17.6104-22.4698-24.8506-34.6807l17.6201-10.4394c6.6299,11.1894,14.2998,21.8896,22.79,31.7998
					L325.2803,671.7803L325.2803,671.7803z M725.1299,634.4697L707.3701,624.25c6.5195-11.3301,12.0694-23.2695,16.5-35.4805
					l19.2598,6.9805C738.29,609.0801,732.2402,622.1104,725.1299,634.4697L725.1299,634.4697z M281.96,598.6406
					c-5.0201-13.3301-8.8799-27.1601-11.5-41.1103l20.1396-3.7608c2.3906,12.7704,5.9307,25.4405,10.5205,37.6504L281.96,598.6406
					L281.96,598.6406z M754.1094,554.5l-20.1797-3.5195C736.1602,538.21,737.29,525.0996,737.29,512
					c0-1.8896-0.0205-3.79-0.0703-5.6699l20.4805-0.5196c0.0498,2.0596,0.0693,4.1192,0.0693,6.1895
					C757.7695,526.2695,756.54,540.5703,754.1094,554.5L754.1094,554.5z M266.27,515.0498L266.25,512
					c0-13.25,1.0601-26.5303,3.1499-39.46l20.2202,3.2598c-1.9199,11.8604-2.8901,24.04-2.8901,36.2002l0.02,2.8496L266.27,515.0498
					L266.27,515.0498z M732.8896,467.4395c-2.5595-12.7891-6.2597-25.4092-11.0097-37.5196l19.0703-7.4599
					c5.1797,13.2202,9.2197,27,12.0195,40.9599L732.8896,467.4395L732.8896,467.4395z M299.2002,437.8799l-19.3403-6.7398
					c4.6601-13.3901,10.5503-26.5,17.5102-38.9502l17.8799,10C308.8701,413.5898,303.4697,425.6001,299.2002,437.8799
					L299.2002,437.8799z M704.5,394.8901c-6.7598-11.1001-14.5498-21.7002-23.1699-31.5102l15.3799-13.5195
					c9.3994,10.6997,17.9101,22.2597,25.29,34.3696L704.5,394.8901L704.5,394.8901z M337.23,369.8301l-15.8804-12.94
					c8.9805-11.0102,18.9707-21.3198,29.7002-30.6303l13.4199,15.4599C354.6299,350.27,345.46,359.7197,337.23,369.8301
					L337.23,369.8301z M653.0498,336.3101c-10.1699-8.1802-21.1103-15.5103-32.4893-21.7798l9.879-17.9405
					c12.4199,6.8404,24.3505,14.8404,35.4501,23.7603L653.0498,336.3101L653.0498,336.3101z M396.1299,318.7598l-10.5601-17.5596
					c12.23-7.3501,25.1304-13.6401,38.3501-18.71l7.3399,19.1202C419.1499,306.25,407.3301,312.02,396.1299,318.7598
					L396.1299,318.7598z M584.7803,298.7002c-12.3301-4.1904-25.1104-7.3301-37.9805-9.3301l3.1401-20.2402
					c14.0503,2.1802,27.9898,5.6103,41.44,10.1904L584.7803,298.7002L584.7803,298.7002z M468.8496,290.8203l-3.8994-20.1006
					c13.9199-2.6997,28.1997-4.1997,42.4394-4.4599l0.3604,20.4804C494.7002,286.9697,481.6099,288.3501,468.8496,290.8203
					L468.8496,290.8203z"/>
			</g>
			<g>
				<path fill="#FFFFFF" d="M512.0098,808.96c-163.7398,0-296.96-133.2198-296.96-296.96s133.2202-296.96,296.96-296.96
					c163.7402,0,296.9599,133.2198,296.9599,296.96S675.75,808.96,512.0098,808.96L512.0098,808.96z M512.0098,235.52
					c-152.4497,0-276.4795,124.0298-276.4795,276.48s124.0298,276.4805,276.4795,276.4805
					c152.4503,0,276.4804-124.0303,276.4804-276.4805S664.46,235.52,512.0098,235.52L512.0098,235.52z"/>
			</g>
		</g>
		<g>
			<g>
				<path fill="#FFFFFF" d="M549.6602,661.0605H439.5498c-5.6602,0-10.2397-4.58-10.2397-10.2402V393
					c0-5.6602,4.5795-10.2402,10.2397-10.2402h110.1104c37.2597,0,62.29,36.0605,62.29,69.7402
					c0,21.8105-11.4502,42.4502-28.1699,55.54c30.2695,11.8799,50.4795,39.5205,50.4795,73.3604
					C634.2598,626.8105,597.8896,661.0605,549.6602,661.0605L549.6602,661.0605z M449.79,640.5801h99.8702
					c37.1499,0,64.1201-24.8906,64.1201-59.1797c0-34.2803-26.9702-59.1602-64.1201-59.1602h-90.2901v-20.4804h85.3096
					c24.0503,0,46.79-23.9395,46.79-49.2598c0-23.79-16.7997-49.2598-41.8094-49.2598H449.79V640.5801L449.79,640.5801z"/>
			</g>
			<g>
				<path fill="#FFFFFF" d="M490.0098,425.7197c-5.6602,0-10.2398-4.5796-10.2398-10.2397v-49.5796
					c0-5.6602,4.5796-10.2402,10.2398-10.2402c5.6601,0,10.2402,4.58,10.2402,10.2402V415.48
					C500.25,421.1401,495.6699,425.7197,490.0098,425.7197L490.0098,425.7197z"/>
			</g>
			<g>
				<path fill="#FFFFFF" d="M529.6797,425.7197c-5.6597,0-10.2398-4.5796-10.2398-10.2397v-49.5796
					c0-5.6602,4.5801-10.2402,10.2398-10.2402c5.6601,0,10.2402,4.58,10.2402,10.2402V415.48
					C539.9199,421.1401,535.3398,425.7197,529.6797,425.7197L529.6797,425.7197z"/>
			</g>
			<g>
				<path fill="#FFFFFF" d="M490.0098,684.9004c-5.6602,0-10.2398-4.5801-10.2398-10.2402v-49.5997
					c0-5.6601,4.5796-10.2402,10.2398-10.2402c5.6601,0,10.2402,4.5801,10.2402,10.2402v49.5997
					C500.25,680.3203,495.6699,684.9004,490.0098,684.9004L490.0098,684.9004z"/>
			</g>
			<g>
				<path fill="#FFFFFF" d="M529.6797,684.9004c-5.6597,0-10.2398-4.5801-10.2398-10.2402v-49.5997
					c0-5.6601,4.5801-10.2402,10.2398-10.2402c5.6601,0,10.2402,4.5801,10.2402,10.2402v49.5997
					C539.9199,680.3203,535.3398,684.9004,529.6797,684.9004L529.6797,684.9004z"/>
			</g>
		</g>
	</g>
</g>
</svg>
