<?xml version="1.0" encoding="utf-8"?>
<!-- Generator: Adobe Illustrator 17.1.0, SVG Export Plug-In . SVG Version: 6.00 Build 0)  -->
<!DOCTYPE svg PUBLIC "-//W3C//DTD SVG 1.1//EN" "http://www.w3.org/Graphics/SVG/1.1/DTD/svg11.dtd">
<svg version="1.1" id="calculator" xmlns="http://www.w3.org/2000/svg" xmlns:xlink="http://www.w3.org/1999/xlink" x="0px" y="0px"
	 viewBox="0 0 1024 1024" enable-background="new 0 0 1024 1024" xml:space="preserve">
<g>
	<g id="calculator-label">
		<rect fill="#4EC0B5" width="1024" height="1024"/>
	</g>
	<g id="calculator-calculator">
		<g>
			<path fill="#FFFFFF" d="M742.4004,808.96H281.5996V215.04h460.8008V808.96L742.4004,808.96z M302.0801,788.4805h419.8398V235.52
				H302.0801V788.4805L302.0801,788.4805z"/>
		</g>
		<g>
			<path fill="#FFFFFF" d="M670.7197,389.1104H353.2803V266.2598h317.4394V389.1104L670.7197,389.1104z M373.7598,368.6299h276.4804
				v-81.8897H373.7598V368.6299L373.7598,368.6299z"/>
		</g>
		<g>
			<g>
				<path fill="#FFFFFF" d="M446.3999,527.8799h-93.1802v-93.1997h93.1802V527.8799L446.3999,527.8799z M373.7002,507.4004h52.2197
					v-52.2402h-52.2197V507.4004L373.7002,507.4004z"/>
			</g>
			<g>
				<path fill="#FFFFFF" d="M560.4297,527.8799h-93.21v-93.1997h93.21V527.8799L560.4297,527.8799z M487.7002,507.4004h52.25
					v-52.2402h-52.25V507.4004L487.7002,507.4004z"/>
			</g>
			<g>
				<path fill="#FFFFFF" d="M670.7803,527.8799h-93.2105v-93.1997h93.2105V527.8799L670.7803,527.8799z M598.0498,507.4004h52.25
					v-52.2402h-52.25V507.4004L598.0498,507.4004z"/>
			</g>
		</g>
		<g>
			<g>
				<path fill="#FFFFFF" d="M446.3999,645.1406h-93.1802v-93.2207h93.1802V645.1406L446.3999,645.1406z M373.7002,624.6602h52.2197
					v-52.2598h-52.2197V624.6602L373.7002,624.6602z"/>
			</g>
			<g>
				<path fill="#FFFFFF" d="M560.4297,645.1406h-93.21v-93.2207h93.21V645.1406L560.4297,645.1406z M487.7002,624.6602h52.25
					v-52.2598h-52.25V624.6602L487.7002,624.6602z"/>
			</g>
		</g>
		<g>
			<path fill="#FFFFFF" d="M446.3999,763.4199h-93.1802V670.21h93.1802V763.4199L446.3999,763.4199z M373.7002,742.9395h52.2197
				v-52.25h-52.2197V742.9395L373.7002,742.9395z"/>
		</g>
		<g>
			<path fill="#FFFFFF" d="M560.4297,763.4199h-93.21V670.21h93.21V763.4199L560.4297,763.4199z M487.7002,742.9395h52.25v-52.25
				h-52.25V742.9395L487.7002,742.9395z"/>
		</g>
		<g>
			<path fill="#FFFFFF" d="M670.7803,763.4199h-93.2105v-211.5h93.2105V763.4199L670.7803,763.4199z M598.0498,742.9395h52.25
				V572.4004h-52.25V742.9395L598.0498,742.9395z"/>
		</g>
	</g>
</g>
</svg>
