<?xml version="1.0" encoding="utf-8"?>
<!-- Generator: Adobe Illustrator 17.1.0, SVG Export Plug-In . SVG Version: 6.00 Build 0)  -->
<!DOCTYPE svg PUBLIC "-//W3C//DTD SVG 1.1//EN" "http://www.w3.org/Graphics/SVG/1.1/DTD/svg11.dtd">
<svg version="1.1" id="cash-register" xmlns="http://www.w3.org/2000/svg" xmlns:xlink="http://www.w3.org/1999/xlink" x="0px"
	 y="0px" viewBox="0 0 1024 1024" enable-background="new 0 0 1024 1024" xml:space="preserve">
<g>
	<g id="cash-register-label">
		<rect fill="#B6D161" width="1024" height="1024"/>
	</g>
	<g id="cash-register-cash-register">
		<g>
			<path fill="#FFFFFF" d="M521.6797,343.1201H269.96c-5.6602,0-10.2402-4.5801-10.2402-10.2402v-87.1201
				c0-5.6597,4.5801-10.2398,10.2402-10.2398h251.7197c5.6601,0,10.2402,4.5801,10.2402,10.2398v87.1201
				C531.9199,338.54,527.3398,343.1201,521.6797,343.1201L521.6797,343.1201z M280.2002,322.6401h231.2397V256H280.2002V322.6401
				L280.2002,322.6401z"/>
		</g>
		<g>
			<path fill="#FFFFFF" d="M792.7695,788.4805H231.25c-5.6602,0-10.2402-4.5801-10.2402-10.2404V710.46
				c0-5.6602,4.58-10.2403,10.2402-10.2403h561.5195c5.6602,0,10.2403,4.5801,10.2403,10.2403v67.7802
				C803.0098,783.9004,798.4297,788.4805,792.7695,788.4805L792.7695,788.4805z M241.4902,768h541.04v-47.2998h-541.04V768
				L241.4902,768z"/>
		</g>
		<g>
			<path fill="#FFFFFF" d="M704.2998,599.7002h-38.7197c-5.6602,0-10.2403-4.5801-10.2403-10.2402v-38.7403
				c0-5.6592,4.5801-10.2392,10.2403-10.2392h38.7197c5.6602,0,10.2402,4.58,10.2402,10.2392V589.46
				C714.54,595.1201,709.96,599.7002,704.2998,599.7002L704.2998,599.7002z M675.8203,579.2197h18.2402V560.96h-18.2402V579.2197
				L675.8203,579.2197z"/>
		</g>
		<g>
			<path fill="#FFFFFF" d="M607.4902,599.7002H568.75c-5.6602,0-10.2402-4.5801-10.2402-10.2402v-38.7403
				c0-5.6592,4.58-10.2392,10.2402-10.2392h38.7402c5.6602,0,10.2403,4.58,10.2403,10.2392V589.46
				C617.7305,595.1201,613.1504,599.7002,607.4902,599.7002L607.4902,599.7002z M578.9902,579.2197H597.25V560.96h-18.2598V579.2197
				L578.9902,579.2197z"/>
		</g>
		<g>
			<path fill="#FFFFFF" d="M510.6602,599.7002h-38.7203c-5.6596,0-10.2397-4.5801-10.2397-10.2402v-38.7403
				c0-5.6592,4.5801-10.2392,10.2397-10.2392h38.7203c5.6596,0,10.2397,4.58,10.2397,10.2392V589.46
				C520.8999,595.1201,516.3198,599.7002,510.6602,599.7002L510.6602,599.7002z M482.1797,579.2197h18.2402V560.96h-18.2402
				V579.2197L482.1797,579.2197z"/>
		</g>
		<g>
			<path fill="#FFFFFF" d="M704.2998,677.1406h-38.7197c-5.6602,0-10.2403-4.5801-10.2403-10.2402v-38.7207
				c0-5.6602,4.5801-10.2402,10.2403-10.2402h38.7197c5.6602,0,10.2402,4.58,10.2402,10.2402v38.7207
				C714.54,672.5605,709.96,677.1406,704.2998,677.1406L704.2998,677.1406z M675.8203,656.6602h18.2402v-18.2403h-18.2402V656.6602
				L675.8203,656.6602z"/>
		</g>
		<g>
			<path fill="#FFFFFF" d="M607.4902,677.1406H568.75c-5.6602,0-10.2402-4.5801-10.2402-10.2402v-38.7207
				c0-5.6602,4.58-10.2402,10.2402-10.2402h38.7402c5.6602,0,10.2403,4.58,10.2403,10.2402v38.7207
				C617.7305,672.5605,613.1504,677.1406,607.4902,677.1406L607.4902,677.1406z M578.9902,656.6602H597.25v-18.2403h-18.2598
				V656.6602L578.9902,656.6602z"/>
		</g>
		<g>
			<path fill="#FFFFFF" d="M510.6602,677.1406h-38.7203c-5.6596,0-10.2397-4.5801-10.2397-10.2402v-38.7207
				c0-5.6602,4.5801-10.2402,10.2397-10.2402h38.7203c5.6596,0,10.2397,4.58,10.2397,10.2402v38.7207
				C520.8999,672.5605,516.3198,677.1406,510.6602,677.1406L510.6602,677.1406z M482.1797,656.6602h18.2402v-18.2403h-18.2402
				V656.6602L482.1797,656.6602z"/>
		</g>
		<g>
			<path fill="#FFFFFF" d="M413.8301,677.1406H317.02c-5.6601,0-10.2397-4.5801-10.2397-10.2402v-38.7207
				c0-5.6602,4.5796-10.2402,10.2397-10.2402h96.8101c5.6601,0,10.2397,4.58,10.2397,10.2402v38.7207
				C424.0698,672.5605,419.4902,677.1406,413.8301,677.1406L413.8301,677.1406z M327.2598,656.6602h76.33v-18.2403h-76.33V656.6602
				L327.2598,656.6602z"/>
		</g>
		<g>
			<path fill="#FFFFFF" d="M413.8301,599.7002H317.02c-5.6601,0-10.2397-4.5801-10.2397-10.2402v-38.7403
				c0-5.6592,4.5796-10.2392,10.2397-10.2392h96.8101c5.6601,0,10.2397,4.58,10.2397,10.2392V589.46
				C424.0698,595.1201,419.4902,599.7002,413.8301,599.7002L413.8301,599.7002z M327.2598,579.2197h76.33V560.96h-76.33V579.2197
				L327.2598,579.2197z"/>
		</g>
		<g>
			<path fill="#FFFFFF" d="M510.6602,502.8604H317.02c-5.6601,0-10.2397-4.5801-10.2397-10.2403v-58.06
				c0-5.6597,4.5796-10.2398,10.2397-10.2398h193.6402c5.6596,0,10.2397,4.5801,10.2397,10.2398v58.06
				C520.8999,498.2803,516.3198,502.8604,510.6602,502.8604L510.6602,502.8604z M327.2598,482.3799h173.1601v-37.5801H327.2598
				V482.3799L327.2598,482.3799z"/>
		</g>
		<g>
			<path fill="#FFFFFF" d="M723.1094,503.7598H552.6499c-5.6597,0-10.2397-4.5801-10.2397-10.2403V391.6802h20.4794v91.6001
				h149.9805v-91.6001h20.4795v101.8393C733.3496,499.1797,728.7695,503.7598,723.1094,503.7598L723.1094,503.7598z"/>
		</g>
		<g>
			<path fill="#FFFFFF" d="M250.6099,715.8604c-5.6597,0-10.2398-4.5801-10.2398-10.2403V395.8203
				c0-5.6601,4.5801-10.2402,10.2398-10.2402h326.7099c5.6602,0,10.2404,4.5801,10.2404,10.2402
				c0,5.6597-4.5801,10.2398-10.2404,10.2398H260.8496v299.56C260.8496,711.2803,256.27,715.8604,250.6099,715.8604
				L250.6099,715.8604z"/>
		</g>
		<g>
			<path fill="#FFFFFF" d="M773.4102,715.8604c-5.6602,0-10.2404-4.5801-10.2404-10.2403v-299.56h-64.75
				c-5.6601,0-10.2402-4.5801-10.2402-10.2398c0-5.6601,4.5801-10.2402,10.2402-10.2402h74.9904
				c5.6601,0,10.2402,4.5801,10.2402,10.2402v309.7998C783.6504,711.2803,779.0703,715.8604,773.4102,715.8604L773.4102,715.8604z"
				/>
		</g>
		<g>
			<path fill="#FFFFFF" d="M400.0601,406.0601c-5.6602,0-10.2403-4.5801-10.2403-10.2398v-58.0801
				c0-5.6601,4.5801-10.2402,10.2403-10.2402c5.6596,0,10.2397,4.5801,10.2397,10.2402v58.0801
				C410.2998,401.48,405.7197,406.0601,400.0601,406.0601L400.0601,406.0601z"/>
		</g>
		<g>
			<polygon fill="#FFFFFF" points="541.0601,754.5996 482.9399,754.5996 482.9399,734.1201 541.0601,734.1201 541.0601,754.5996 			
				"/>
		</g>
		<g>
			<path fill="#FFFFFF" d="M698.4199,468.3398H577.3198c-5.6595,0-10.2397-4.58-10.2397-10.2402V285.1401
				c0-4.1401,2.4897-7.8701,6.3198-9.4599c3.8003-1.5503,8.2202-0.7002,11.1499,2.2099l5.5,5.4898l3.29-4.3799
				c1.9297-2.5801,4.96-4.0996,8.1797-4.0996c0.0108,0,0.0108,0,0.0108,0c3.2197,0,6.25,1.5098,8.1797,4.0898l3.3094,4.3999l5.5-5.5
				c2.1006-2.0903,5.0606-3.2202,7.9707-2.9599c2.96,0.2099,5.6797,1.6899,7.46,4.0698l3.29,4.3799l5.5-5.4898
				c2.0899-2.0903,5.0293-3.2202,7.9493-2.9599c2.9609,0.1997,5.6806,1.6802,7.4609,4.0498l3.3193,4.4101l5.5-5.5
				c2.1104-2.0903,5.0606-3.2202,7.9698-2.9599c2.9609,0.2099,5.6806,1.6899,7.4609,4.0698l3.2891,4.3799l5.5-5.4898
				c2.9404-2.9204,7.3505-3.77,11.1503-2.2099c3.8301,1.5898,6.3204,5.3198,6.3204,9.4599v172.9595
				C708.6602,463.7598,704.0801,468.3398,698.4199,468.3398L698.4199,468.3398z M587.5601,447.8604h100.6196V308.54
				c-1.3594,0.5098-2.8496,0.7803-4.3399,0.6299c-2.9599-0.2099-5.6796-1.6899-7.4599-4.0698l-3.2901-4.3804l-5.4804,5.4903
				c-2.0996,2.0898-5.0196,3.1904-7.959,2.9599c-2.9609-0.2002-5.6807-1.6797-7.4609-4.0498l-3.3194-4.4101l-5.5205,5.5
				c-2.0898,2.0898-5.0098,3.1904-7.96,2.9599c-2.9599-0.2099-5.6796-1.6899-7.4599-4.0698l-3.2901-4.3804l-5.4794,5.4903
				c-2.0997,2.0898-5.0206,3.1904-7.96,2.9599c-2.96-0.2099-5.6807-1.6899-7.46-4.0595l-2.2002-2.9102l-2.1806,2.8999
				c-1.7793,2.3799-4.5,3.8599-7.459,4.0698c-1.4805,0.1504-2.9805-0.1201-4.3403-0.6299V447.8604L587.5601,447.8604z"/>
		</g>
	</g>
</g>
</svg>
