<?xml version="1.0" encoding="utf-8"?>
<!-- Generator: Adobe Illustrator 17.1.0, SVG Export Plug-In . SVG Version: 6.00 Build 0)  -->
<!DOCTYPE svg PUBLIC "-//W3C//DTD SVG 1.1//EN" "http://www.w3.org/Graphics/SVG/1.1/DTD/svg11.dtd">
<svg version="1.1" id="checklist" xmlns="http://www.w3.org/2000/svg" xmlns:xlink="http://www.w3.org/1999/xlink" x="0px" y="0px"
	 viewBox="0 0 1024 1024" enable-background="new 0 0 1024 1024" xml:space="preserve">
<g>
	<g id="checklist-label">
		<rect fill="#B6D161" width="1024" height="1024"/>
	</g>
	<g id="checklist-checklist">
		<g>
			<g>
				<path fill="#FFFFFF" d="M706.2305,808.96H317.77c-15.8403,0-28.7397-12.8897-28.7397-28.7403V308.52
					c0-15.8501,12.8994-28.7397,28.7397-28.7397h111v20.4795h-111c-4.5503,0-8.2602,3.7099-8.2602,8.2602v471.6997
					c0,4.5497,3.7099,8.2608,8.2602,8.2608h388.4605c4.5595,0,8.2597-3.7111,8.2597-8.2608V308.52
					c0-4.5503-3.7002-8.2602-8.2597-8.2602H595.25v-20.4795h110.9805c15.8496,0,28.7392,12.8896,28.7392,28.7397v471.6997
					C734.9697,796.0703,722.0801,808.96,706.2305,808.96L706.2305,808.96z"/>
			</g>
			<g>
				<path fill="#FFFFFF" d="M576.75,355.7598H447.27c-15.8403,0-28.7397-12.8897-28.7397-28.7398v-37
					c0-15.4399,12.2295-28.0698,27.5097-28.7099c7.2701-1.6099,14.7798-3.6402,19.1202-5.1099
					C468.1499,233.02,488.02,215.04,512.0098,215.04c23.9902,0,43.8604,17.98,46.8501,41.1602
					c4.3502,1.4697,11.8598,3.5,19.1201,5.1099c15.2798,0.6401,27.5102,13.27,27.5102,28.7099v37
					C605.4902,342.8701,592.5996,355.7598,576.75,355.7598L576.75,355.7598z M512.0098,235.52c-14.75,0-26.7598,12-26.7598,26.7603
					c0,8.4697-5.4102,12.6499-35.8101,19.25c-0.7099,0.1499-1.4399,0.2295-2.1699,0.2295c-4.5503,0-8.2602,3.7099-8.2602,8.2602v37
					c0,4.5503,3.7099,8.2603,8.2602,8.2603h129.48c4.5601,0,8.2598-3.71,8.2598-8.2603v-37c0-4.5503-3.6996-8.2602-8.2598-8.2602
					c-0.73,0-1.46-0.0796-2.1699-0.2295c-30.4004-6.6001-35.8101-10.7803-35.8101-19.25
					C538.77,247.52,526.77,235.52,512.0098,235.52L512.0098,235.52z"/>
			</g>
		</g>
		<g>
			<g>
				<polygon fill="#FFFFFF" points="378.8896,477.4697 351.1699,449.75 365.6499,435.27 378.8896,448.5098 412.6099,414.79 
					427.0898,429.27 378.8896,477.4697 				"/>
			</g>
			<g>
				<polygon fill="#FFFFFF" points="378.8896,600.3496 351.1699,572.6299 365.6499,558.1504 378.8896,571.3906 412.6099,537.6699 
					427.0898,552.1504 378.8896,600.3496 				"/>
			</g>
			<g>
				<polygon fill="#FFFFFF" points="378.8896,723.2305 351.1699,695.5098 365.6499,681.0303 378.8896,694.2695 412.6099,660.5498 
					427.0898,675.0303 378.8896,723.2305 				"/>
			</g>
			<g>
				<polygon fill="#FFFFFF" points="686.0898,442.5098 481.29,442.5098 481.29,422.0303 686.0898,422.0303 686.0898,442.5098 				
					"/>
			</g>
			<g>
				<polygon fill="#FFFFFF" points="604.1699,483.4697 481.29,483.4697 481.29,462.9902 604.1699,462.9902 604.1699,483.4697 				
					"/>
			</g>
			<g>
				<polygon fill="#FFFFFF" points="542.73,565.3906 481.29,565.3906 481.29,544.9102 542.73,544.9102 542.73,565.3906 				"/>
			</g>
			<g>
				<polygon fill="#FFFFFF" points="686.0898,565.3906 563.21,565.3906 563.21,544.9102 686.0898,544.9102 686.0898,565.3906 				
					"/>
			</g>
			<g>
				<polygon fill="#FFFFFF" points="645.1299,606.3496 481.29,606.3496 481.29,585.8701 645.1299,585.8701 645.1299,606.3496 				
					"/>
			</g>
			<g>
				<polygon fill="#FFFFFF" points="686.0898,688.2695 481.29,688.2695 481.29,667.79 686.0898,667.79 686.0898,688.2695 				"/>
			</g>
			<g>
				<polygon fill="#FFFFFF" points="542.73,729.2305 481.29,729.2305 481.29,708.75 542.73,708.75 542.73,729.2305 				"/>
			</g>
			<g>
				<polygon fill="#FFFFFF" points="624.6504,729.2305 563.21,729.2305 563.21,708.75 624.6504,708.75 624.6504,729.2305 				"/>
			</g>
		</g>
	</g>
</g>
</svg>
