<?xml version="1.0" encoding="utf-8"?>
<!-- Generator: Adobe Illustrator 17.1.0, SVG Export Plug-In . SVG Version: 6.00 Build 0)  -->
<!DOCTYPE svg PUBLIC "-//W3C//DTD SVG 1.1//EN" "http://www.w3.org/Graphics/SVG/1.1/DTD/svg11.dtd">
<svg version="1.1" id="dollar-coin" xmlns="http://www.w3.org/2000/svg" xmlns:xlink="http://www.w3.org/1999/xlink" x="0px"
	 y="0px" viewBox="0 0 1024 1024" enable-background="new 0 0 1024 1024" xml:space="preserve">
<g>
	<g id="dollar-coin-label">
		<rect fill="#4EC0B5" width="1024" height="1024"/>
	</g>
	<g id="dollar-coin-dollar-coin">
		<g>
			<path fill="#FFFFFF" d="M512.0249,808.96c-163.7549,0-296.98-133.2198-296.98-296.96s133.2251-296.96,296.98-296.96
				c163.7349,0,296.9399,133.2198,296.9399,296.96S675.7598,808.96,512.0249,808.96L512.0249,808.96z M512.0249,235.52
				c-152.4648,0-276.5,124.0298-276.5,276.48s124.0352,276.4805,276.5,276.4805c152.4399,0,276.4595-124.0303,276.4595-276.4805
				S664.4648,235.52,512.0249,235.52L512.0249,235.52z"/>
		</g>
		<g>
			<path fill="#FFFFFF" d="M512.0049,742.4004C384.96,742.4004,281.605,639.04,281.605,512S384.96,281.6001,512.0049,281.6001
				S742.4053,384.96,742.4053,512S639.0498,742.4004,512.0049,742.4004L512.0049,742.4004z M512.0049,302.0801
				c-115.75,0-209.9199,94.1699-209.9199,209.9199s94.1699,209.9199,209.9199,209.9199S721.9248,627.75,721.9248,512
				S627.7549,302.0801,512.0049,302.0801L512.0049,302.0801z"/>
		</g>
		<g>
			<g>
				<path fill="#FFFFFF" d="M512.0146,663.5c-5.6547,0-10.2397-4.5801-10.2397-10.2402V370.7197
					c0-5.6596,4.585-10.2397,10.2397-10.2397c5.6553,0,10.2403,4.5801,10.2403,10.2397v282.5401
					C522.2549,658.9199,517.6699,663.5,512.0146,663.5L512.0146,663.5z"/>
			</g>
			<g>
				<path fill="#FFFFFF" d="M625.2646,426.1104L625.2646,426.1104l-226.5297-0.0206c-5.6548,0-10.2398-4.5898-10.2398-10.2397
					c0-5.6602,4.585-10.2397,10.2398-10.2397l0,0l226.5297,0.0195c5.6553,0,10.2403,4.5898,10.2403,10.2402
					C635.5049,421.5303,630.9199,426.1104,625.2646,426.1104L625.2646,426.1104z"/>
			</g>
			<g>
				<path fill="#FFFFFF" d="M625.2646,520.2803H398.7349c-5.6548,0-10.2398-4.5801-10.2398-10.2403
					c0-5.6601,4.585-10.2402,10.2398-10.2402h226.5297c5.6553,0,10.2403,4.5801,10.2403,10.2402
					C635.5049,515.7002,630.9199,520.2803,625.2646,520.2803L625.2646,520.2803z"/>
			</g>
			<g>
				<path fill="#FFFFFF" d="M625.2646,618.3604H398.7349c-5.6548,0-10.2398-4.5801-10.2398-10.2403
					c0-5.6601,4.585-10.2402,10.2398-10.2402h226.5297c5.6553,0,10.2403,4.5801,10.2403,10.2402
					C635.5049,613.7803,630.9199,618.3604,625.2646,618.3604L625.2646,618.3604z"/>
			</g>
			<g>
				<path fill="#FFFFFF" d="M398.7349,514.2197c0,0,0,0-0.0049,0c-5.6548,0-10.2349-4.5898-10.2349-10.2392l0.0298-83.4605
					c0-5.6596,4.585-10.2397,10.2397-10.2397c0,0,0,0,0.0054,0c5.6548,0,10.2349,4.5898,10.2349,10.2397l-0.0303,83.4605
					C408.9746,509.6406,404.3896,514.2197,398.7349,514.2197L398.7349,514.2197z"/>
			</g>
			<g>
				<path fill="#FFFFFF" d="M625.2646,617.8203c-5.6552,0-10.2392-4.5801-10.2392-10.2402v-97.5196
					c0-5.6601,4.584-10.2402,10.2392-10.2402c5.6553,0,10.2403,4.5801,10.2403,10.2402v97.5196
					C635.5049,613.2402,630.9199,617.8203,625.2646,617.8203L625.2646,617.8203z"/>
			</g>
		</g>
	</g>
</g>
</svg>
