<?xml version="1.0" encoding="utf-8"?>
<!-- Generator: Adobe Illustrator 17.1.0, SVG Export Plug-In . SVG Version: 6.00 Build 0)  -->
<!DOCTYPE svg PUBLIC "-//W3C//DTD SVG 1.1//EN" "http://www.w3.org/Graphics/SVG/1.1/DTD/svg11.dtd">
<svg version="1.1" id="dollar-bills" xmlns="http://www.w3.org/2000/svg" xmlns:xlink="http://www.w3.org/1999/xlink" x="0px"
	 y="0px" viewBox="0 0 1024 1024" enable-background="new 0 0 1024 1024" xml:space="preserve">
<g>
	<g id="dollar-bills-label">
		<rect fill="#4EC0B5" width="1024" height="1024"/>
	</g>
	<g id="dollar-bills-dollar-bills">
		<g>
			<polygon fill="#FFFFFF" points="788.4805,675.8398 235.52,675.8398 235.52,655.3604 788.4805,655.3604 788.4805,675.8398 			"/>
		</g>
		<g>
			<polygon fill="#FFFFFF" points="788.4805,716.7998 235.52,716.7998 235.52,696.3203 788.4805,696.3203 788.4805,716.7998 			"/>
		</g>
		<g>
			<polygon fill="#FFFFFF" points="788.4805,634.8799 235.52,634.8799 235.52,614.4004 788.4805,614.4004 788.4805,634.8799 			"/>
		</g>
		<g>
			<path fill="#FFFFFF" d="M788.4805,593.9199H235.52V307.2002h552.9604V593.9199L788.4805,593.9199z M256,573.4395h512V327.6802
				H256V573.4395L256,573.4395z"/>
		</g>
		<g>
			<path fill="#FFFFFF" d="M706.5605,552.96H327.6797v-10.2403c0-15.9599-4.96-30.7197-40.96-30.7197H276.48V389.1201h10.2397
				c36,0,40.96-14.7597,40.96-30.7197v-10.2402h378.8808v10.2402c0,25.3896,16.7041,30.7197,30.7198,30.7197h10.2392V512h-10.2392
				c-14.0157,0-30.7198,5.3301-30.7198,30.7197V552.96L706.5605,552.96z M347.415,532.4805H686.79
				c3.7051-25.4102,21.3399-37.1807,40.25-40.17v-83.5004c-18.9101-2.9898-36.5449-14.7603-40.25-40.17H347.415
				c-2.8798,18.8296-14.9453,37.5601-50.455,40.5498v82.7398C332.4697,494.9199,344.5352,513.6504,347.415,532.4805
				L347.415,532.4805z"/>
		</g>
		<g>
			<path fill="#FFFFFF" d="M512,512c-33.8799,0-61.4399-27.5605-61.4399-61.4395c0-33.8803,27.56-61.4404,61.4399-61.4404
				s61.4399,27.5601,61.4399,61.4404C573.4399,484.4395,545.8799,512,512,512L512,512z M512,409.6001
				c-22.585,0-40.96,18.3799-40.96,40.9604c0,22.5801,18.375,40.959,40.96,40.959c22.585,0,40.96-18.3789,40.96-40.959
				C552.96,427.98,534.585,409.6001,512,409.6001L512,409.6001z"/>
		</g>
		<g>
			<g>
				<polygon fill="#FFFFFF" points="394.2402,460.7998 373.7598,460.7998 373.7598,440.3203 394.2402,440.3203 394.2402,460.7998 
									"/>
			</g>
			<g>
				<polygon fill="#FFFFFF" points="650.2402,460.7998 629.7598,460.7998 629.7598,440.3203 650.2402,440.3203 650.2402,460.7998 
									"/>
			</g>
		</g>
	</g>
</g>
</svg>
