<?xml version="1.0" encoding="utf-8"?>
<!-- Generator: Adobe Illustrator 17.1.0, SVG Export Plug-In . SVG Version: 6.00 Build 0)  -->
<!DOCTYPE svg PUBLIC "-//W3C//DTD SVG 1.1//EN" "http://www.w3.org/Graphics/SVG/1.1/DTD/svg11.dtd">
<svg version="1.1" id="dollar-bill" xmlns="http://www.w3.org/2000/svg" xmlns:xlink="http://www.w3.org/1999/xlink" x="0px"
	 y="0px" viewBox="0 0 1024 1024" enable-background="new 0 0 1024 1024" xml:space="preserve">
<g>
	<g id="dollar-bill-label">
		<rect fill="#4EC0B5" width="1024" height="1024"/>
	</g>
	<g id="dollar-bill-dollar-bill">
		<g>
			<path fill="#FFFFFF" d="M760.4902,340.6401c-5.6601,0-10.2402-4.58-10.2402-10.2397v-47.1006h-476.5v47.1006
				c0,5.6597-4.5801,10.2397-10.2402,10.2397s-10.2397-4.58-10.2397-10.2397v-57.3403c0-5.6597,4.5796-10.2398,10.2397-10.2398
				h496.9804c5.6602,0,10.2403,4.5801,10.2403,10.2398v57.3403C770.7305,336.0601,766.1504,340.6401,760.4902,340.6401
				L760.4902,340.6401z"/>
		</g>
		<g>
			<path fill="#FFFFFF" d="M798.7197,761.1797H225.2803c-5.6602,0-10.2403-4.5801-10.2403-10.2402V330.4004
				c0-5.6602,4.5801-10.2402,10.2403-10.2402h573.4393c5.6602,0,10.2404,4.58,10.2404,10.2402v420.5391
				C808.96,756.5996,804.3799,761.1797,798.7197,761.1797L798.7197,761.1797z M235.52,740.7002h552.9604V340.6401H235.52V740.7002
				L235.52,740.7002z"/>
		</g>
		<g>
			<path fill="#FFFFFF" d="M645.79,684.7197H378.1899c-5.6596,0-10.2397-4.5791-10.2397-10.2392c0-39.1505-28.8506-71-64.3203-71
				c-5.5899,0-10.1397-4.4805-10.2403-10.0606L291.4902,483.5c-0.0503-2.75,1.0098-5.4004,2.9395-7.3594
				c1.9199-1.9609,4.5503-3.0605,7.3003-3.0605c37.1299,0,66.2202-29.0801,66.2202-66.2197c0-5.6602,4.5801-10.2403,10.2397-10.2403
				H645.79c5.6602,0,10.2403,4.5801,10.2403,10.2403c0,37.1396,29.0996,66.2197,66.2392,66.2197
				c5.6602,0,10.2403,4.5801,10.2403,10.2402v114.6992c0,5.6602-4.5801,10.2403-10.2403,10.2403
				c-37.1396,0-66.2392,29.08-66.2392,66.2207C656.0303,680.1406,651.4502,684.7197,645.79,684.7197L645.79,684.7197z
				 M387.8999,664.2402h248.2202c4.5497-40.2596,35.6299-71.3495,75.9102-75.8906v-95.3594
				c-40.2803-4.54-71.3604-35.6298-75.9102-75.8901H387.8599c-4.5401,40.2104-35.5396,71.2603-75.7203,75.8696l1.5704,90.6709
				C352.6201,588.6406,383.54,622.1699,387.8999,664.2402L387.8999,664.2402z"/>
		</g>
		<g>
			<path fill="#FFFFFF" d="M511.9902,608.2598c-37.2602,0-67.58-30.3203-67.58-67.5801c0-37.2793,30.3198-67.5996,67.58-67.5996
				c37.2696,0,67.5996,30.3203,67.5996,67.5996C579.5898,577.9395,549.2598,608.2598,511.9902,608.2598L511.9902,608.2598z
				 M511.9902,493.5605c-25.9702,0-47.1006,21.1397-47.1006,47.1192c0,25.9707,21.1304,47.1006,47.1006,47.1006
				c25.9795,0,47.1197-21.1299,47.1197-47.1006C559.1099,514.7002,537.9697,493.5605,511.9902,493.5605L511.9902,493.5605z"/>
		</g>
		<g>
			<g>
				<polygon fill="#FFFFFF" points="394.2402,546.8203 373.7598,546.8203 373.7598,526.3398 394.2402,526.3398 394.2402,546.8203 
									"/>
			</g>
			<g>
				<polygon fill="#FFFFFF" points="650.2402,546.8203 629.7598,546.8203 629.7598,526.3398 650.2402,526.3398 650.2402,546.8203 
									"/>
			</g>
		</g>
	</g>
</g>
</svg>
