<?xml version="1.0" encoding="utf-8"?>
<!-- Generator: Adobe Illustrator 17.1.0, SVG Export Plug-In . SVG Version: 6.00 Build 0)  -->
<!DOCTYPE svg PUBLIC "-//W3C//DTD SVG 1.1//EN" "http://www.w3.org/Graphics/SVG/1.1/DTD/svg11.dtd">
<svg version="1.1" id="dress" xmlns="http://www.w3.org/2000/svg" xmlns:xlink="http://www.w3.org/1999/xlink" x="0px" y="0px"
	 viewBox="0 0 1024 1024" enable-background="new 0 0 1024 1024" xml:space="preserve">
<g>
	<g id="dress-label">
		<rect fill="#F16750" width="1024" height="1024"/>
	</g>
	<g id="dress-dress">
		<g>
			<path fill="#FFFFFF" d="M620.1201,554.1895c-5.6553,0-10.2402-4.5791-10.2402-10.2393V405.8799
				c0-5.6602,4.5849-10.2398,10.2402-10.2398h42.1747c7.8604-6.4799,32.7451-29.7602,32.7451-64.6303
				c0-30-8.375-52.4395-24.9004-66.6797c-19.9697-17.2197-47.2451-19-61.0595-18.5401v61.5401c0,3.6201-1.9151,6.9697-5.0303,8.8203
				c-90.6548,53.5498-179.9297,6.1494-183.6846,4.0898c-3.2954-1.79-5.3452-5.2402-5.3452-8.9902v-65.4297
				c-13.8052-0.4302-41.355,1.3994-61.2451,18.6099c-16.4497,14.25-24.7949,36.6499-24.7949,66.5796
				c0,34.8403,24.81,58.1103,32.6948,64.6303h42.2651c5.6548,0,10.2398,4.5796,10.2398,10.2398v138.0703
				c0,5.6602-4.585,10.2393-10.2398,10.2393c-5.6547,0-10.2397-4.5791-10.2397-10.2393V416.1201h-35.54
				c-2.0953,0-4.1456-0.6401-5.8604-1.8398c-1.79-1.25-43.7998-31.1802-43.7998-83.2705c0-36.21,10.7646-63.8594,32.0049-82.17
				c34.7051-29.9296,84.185-22.9697,86.2597-22.6699c5.0206,0.75,8.7354,5.0601,8.7354,10.1299V304.79
				c19.0801,8.46,86.0996,33.0401,153.0996-3.4199v-65.0703c0-5.0698,3.7149-9.3799,8.7354-10.1299
				c2.0849-0.2998,51.5048-7.2597,86.1796,22.6504c21.2354,18.3096,32.0049,45.96,32.0049,82.1895
				c0,52.1006-42.0742,82.0205-43.8642,83.2705c-1.7158,1.1997-3.7608,1.8398-5.8555,1.8398h-35.4404v127.8301
				C630.3594,549.6104,625.7754,554.1895,620.1201,554.1895L620.1201,554.1895z"/>
		</g>
		<g>
			<path fill="#FFFFFF" d="M782.5996,798.7197H241.3999c-3.7749,0-7.2397-2.0791-9.0249-5.3994
				c-1.7852-3.3301-1.5898-7.3701,0.4951-10.5098l162.5401-244.5302c3.1298-4.7003,9.4697-6,14.1997-2.8604
				c4.7099,3.1299,5.9897,9.4903,2.8598,14.2002L260.5,778.2402h503L611.5898,549.6201
				c-3.1298-4.7099-1.8447-11.0703,2.8653-14.2002c4.7197-3.1299,11.0644-1.8301,14.1953,2.8604l162.4795,244.5302
				c2.0849,3.1495,2.2803,7.1797,0.4951,10.5098C789.8398,796.6406,786.375,798.7197,782.5996,798.7197L782.5996,798.7197z"/>
		</g>
		<g>
			<line fill="#FFFFFF" x1="412.8799" y1="538.0098" x2="611.1201" y2="538.0098"/>
			<path fill="#FFFFFF" d="M611.1201,548.25H412.8799c-5.6553,0-10.2403-4.5801-10.2403-10.2402
				c0-5.6602,4.585-10.2403,10.2403-10.2403h198.2402c5.6553,0,10.2393,4.5801,10.2393,10.2403
				C621.3594,543.6699,616.7754,548.25,611.1201,548.25L611.1201,548.25z"/>
		</g>
		<g>
			<path fill="#FFFFFF" d="M477.9746,409.2402c-1.4795,0-2.9844-0.3203-4.4048-1c-5.105-2.4404-7.2651-8.5503-4.8296-13.6504
				l29.6597-62.1201c1.6147-3.3799,4.9448-5.6093,8.6851-5.8193c3.8252-0.2002,7.2998,1.6597,9.2646,4.8496l38.3804,62.1201
				c2.9751,4.8101,1.4848,11.1201-3.3301,14.0899c-4.8052,2.9902-11.1196,1.4902-14.0898-3.3301L508.7949,358.23l-21.5752,45.1802
				C485.4648,407.0898,481.7949,409.2402,477.9746,409.2402L477.9746,409.2402z"/>
		</g>
		<g>
			<g>
				<g>
					<path fill="#FFFFFF" d="M431.1797,622.9395h-16.3799c-5.6548,0-10.2397-4.5791-10.2397-10.2393s4.5849-10.2402,10.2397-10.2402
						h16.3799c5.6553,0,10.2402,4.58,10.2402,10.2402S436.835,622.9395,431.1797,622.9395L431.1797,622.9395z"/>
				</g>
				<g>
					<path fill="#FFFFFF" d="M473.2002,622.9395H456.73c-5.6548,0-10.2398-4.5791-10.2398-10.2393s4.585-10.2402,10.2398-10.2402
						h16.4702c5.6548,0,10.2397,4.58,10.2397,10.2402S478.855,622.9395,473.2002,622.9395L473.2002,622.9395z"/>
				</g>
				<g>
					<path fill="#FFFFFF" d="M443.96,612.0195c-5.6553,0-10.2403-4.58-10.2403-10.2392v-16.4199
						c0-5.6602,4.585-10.2403,10.2403-10.2403c5.6552,0,10.2402,4.5801,10.2402,10.2403v16.4199
						C454.2002,607.4395,449.6152,612.0195,443.96,612.0195L443.96,612.0195z"/>
				</g>
				<g>
					<path fill="#FFFFFF" d="M443.96,653.9805c-5.6553,0-10.2403-4.5801-10.2403-10.2404v-16.4199
						c0-5.6601,4.585-10.2402,10.2403-10.2402c5.6552,0,10.2402,4.5801,10.2402,10.2402v16.4199
						C454.2002,649.4004,449.6152,653.9805,443.96,653.9805L443.96,653.9805z"/>
				</g>
			</g>
			<g>
				<g>
					<path fill="#FFFFFF" d="M499.2002,723.96h-16.4004c-5.6548,0-10.2397-4.5801-10.2397-10.2403
						c0-5.6592,4.5849-10.2392,10.2397-10.2392h16.4004c5.6548,0,10.2397,4.58,10.2397,10.2392
						C509.4399,719.3799,504.855,723.96,499.2002,723.96L499.2002,723.96z"/>
				</g>
				<g>
					<path fill="#FFFFFF" d="M541.2002,723.96H524.75c-5.6553,0-10.2402-4.5801-10.2402-10.2403
						c0-5.6592,4.5849-10.2392,10.2402-10.2392h16.4502c5.6548,0,10.2397,4.58,10.2397,10.2392
						C551.4399,719.3799,546.855,723.96,541.2002,723.96L541.2002,723.96z"/>
				</g>
				<g>
					<path fill="#FFFFFF" d="M511.98,713.0498c-5.6548,0-10.2398-4.5801-10.2398-10.2393v-16.4199
						c0-5.6601,4.585-10.2402,10.2398-10.2402c5.6548,0,10.2397,4.5801,10.2397,10.2402v16.4199
						C522.2197,708.4697,517.6348,713.0498,511.98,713.0498L511.98,713.0498z"/>
				</g>
				<g>
					<path fill="#FFFFFF" d="M511.98,755.0098c-5.6548,0-10.2398-4.5801-10.2398-10.2403v-16.4297
						c0-5.6601,4.585-10.2402,10.2398-10.2402c5.6548,0,10.2397,4.5801,10.2397,10.2402v16.4297
						C522.2197,750.4297,517.6348,755.0098,511.98,755.0098L511.98,755.0098z"/>
				</g>
			</g>
			<g>
				<g>
					<path fill="#FFFFFF" d="M632.3203,723.96h-16.4005c-5.6553,0-10.2402-4.5801-10.2402-10.2403
						c0-5.6592,4.5849-10.2392,10.2402-10.2392h16.4005c5.6543,0,10.2402,4.58,10.2402,10.2392
						C642.5605,719.3799,637.9746,723.96,632.3203,723.96L632.3203,723.96z"/>
				</g>
				<g>
					<path fill="#FFFFFF" d="M674.3203,723.96h-16.4502c-5.6553,0-10.2402-4.5801-10.2402-10.2403
						c0-5.6592,4.5849-10.2392,10.2402-10.2392h16.4502c5.6543,0,10.2402,4.58,10.2402,10.2392
						C684.5605,719.3799,679.9746,723.96,674.3203,723.96L674.3203,723.96z"/>
				</g>
				<g>
					<path fill="#FFFFFF" d="M645.0996,713.0498c-5.6543,0-10.2402-4.5801-10.2402-10.2393v-16.4199
						c0-5.6601,4.5859-10.2402,10.2402-10.2402c5.6553,0,10.2402,4.5801,10.2402,10.2402v16.4199
						C655.3398,708.4697,650.7549,713.0498,645.0996,713.0498L645.0996,713.0498z"/>
				</g>
				<g>
					<path fill="#FFFFFF" d="M645.0996,755.0098c-5.6543,0-10.2402-4.5801-10.2402-10.2403v-16.4297
						c0-5.6601,4.5859-10.2402,10.2402-10.2402c5.6553,0,10.2402,4.5801,10.2402,10.2402v16.4297
						C655.3398,750.4297,650.7549,755.0098,645.0996,755.0098L645.0996,755.0098z"/>
				</g>
			</g>
			<g>
				<g>
					<path fill="#FFFFFF" d="M366.0801,723.96h-16.4004c-5.6548,0-10.2398-4.5801-10.2398-10.2403
						c0-5.6592,4.585-10.2392,10.2398-10.2392h16.4004c5.6548,0,10.2397,4.58,10.2397,10.2392
						C376.3198,719.3799,371.7349,723.96,366.0801,723.96L366.0801,723.96z"/>
				</g>
				<g>
					<path fill="#FFFFFF" d="M408.0801,723.96h-16.4502c-5.6553,0-10.2403-4.5801-10.2403-10.2403
						c0-5.6592,4.585-10.2392,10.2403-10.2392h16.4502c5.6548,0,10.2397,4.58,10.2397,10.2392
						C418.3198,719.3799,413.7349,723.96,408.0801,723.96L408.0801,723.96z"/>
				</g>
				<g>
					<path fill="#FFFFFF" d="M378.8599,713.0498c-5.6548,0-10.2398-4.5801-10.2398-10.2393v-16.4199
						c0-5.6601,4.585-10.2402,10.2398-10.2402c5.6547,0,10.2397,4.5801,10.2397,10.2402v16.4199
						C389.0996,708.4697,384.5146,713.0498,378.8599,713.0498L378.8599,713.0498z"/>
				</g>
				<g>
					<path fill="#FFFFFF" d="M378.8599,755.0098c-5.6548,0-10.2398-4.5801-10.2398-10.2403v-16.4297
						c0-5.6601,4.585-10.2402,10.2398-10.2402c5.6547,0,10.2397,4.5801,10.2397,10.2402v16.4297
						C389.0996,750.4297,384.5146,755.0098,378.8599,755.0098L378.8599,755.0098z"/>
				</g>
			</g>
			<g>
				<g>
					<path fill="#FFFFFF" d="M560.0698,620.6602h-16.4095c-5.6553,0-10.2403-4.5801-10.2403-10.2403
						c0-5.6601,4.585-10.2402,10.2403-10.2402h16.4095c5.6548,0,10.2404,4.5801,10.2404,10.2402
						C570.3101,616.0801,565.7246,620.6602,560.0698,620.6602L560.0698,620.6602z"/>
				</g>
				<g>
					<path fill="#FFFFFF" d="M602,620.6602h-16.4302c-5.6548,0-10.2397-4.5801-10.2397-10.2403
						c0-5.6601,4.5849-10.2402,10.2397-10.2402H602c5.6553,0,10.2402,4.5801,10.2402,10.2402
						C612.2402,616.0801,607.6553,620.6602,602,620.6602L602,620.6602z"/>
				</g>
				<g>
					<path fill="#FFFFFF" d="M572.8398,609.71c-5.6547,0-10.2402-4.5801-10.2402-10.2403v-16.4092
						c0-5.6601,4.5855-10.2402,10.2402-10.2402c5.6553,0,10.2403,4.5801,10.2403,10.2402v16.4092
						C583.0801,605.1299,578.4951,609.71,572.8398,609.71L572.8398,609.71z"/>
				</g>
				<g>
					<path fill="#FFFFFF" d="M572.8398,651.6797c-5.6547,0-10.2402-4.5801-10.2402-10.2402V625
						c0-5.6602,4.5855-10.2402,10.2402-10.2402c5.6553,0,10.2403,4.58,10.2403,10.2402v16.4395
						C583.0801,647.0996,578.4951,651.6797,572.8398,651.6797L572.8398,651.6797z"/>
				</g>
			</g>
		</g>
	</g>
</g>
</svg>
