<?xml version="1.0" encoding="utf-8"?>
<!-- Generator: Adobe Illustrator 17.1.0, SVG Export Plug-In . SVG Version: 6.00 Build 0)  -->
<!DOCTYPE svg PUBLIC "-//W3C//DTD SVG 1.1//EN" "http://www.w3.org/Graphics/SVG/1.1/DTD/svg11.dtd">
<svg version="1.1" id="euro-bill" xmlns="http://www.w3.org/2000/svg" xmlns:xlink="http://www.w3.org/1999/xlink" x="0px" y="0px"
	 viewBox="0 0 1024 1024" enable-background="new 0 0 1024 1024" xml:space="preserve">
<g>
	<g id="euro-bill-label">
		<rect fill="#B6D161" width="1024" height="1024"/>
	</g>
	<g id="euro-bill-euro-bill">
		<g>
			<path fill="#FFFFFF" d="M780.2197,719.3906H243.7803c-15.8506,0-28.7403-14.4306-28.7403-32.1601V336.77
				c0-17.73,12.8897-32.1596,28.7403-32.1596h536.4393c15.8506,0,28.7404,14.4296,28.7404,32.1596v350.4605
				C808.96,704.96,796.0703,719.3906,780.2197,719.3906L780.2197,719.3906z M243.7803,325.0898
				c-4.4805,0-8.2603,5.3501-8.2603,11.6802v350.4605c0,6.33,3.7798,11.6797,8.2603,11.6797h536.4393
				c4.4805,0,8.2608-5.3497,8.2608-11.6797V336.77c0-6.2202-3.8604-11.6802-8.2608-11.6802H243.7803L243.7803,325.0898z"/>
		</g>
		<g>
			<path fill="#FFFFFF" d="M652.0801,662.3398H371.8999c-5.6597,0-10.2397-4.58-10.2397-10.2402
				c0-41.2598-30.4302-74.8193-67.8399-74.8193c-5.5903,0-10.1406-4.4805-10.2402-10.0606l-1.9805-115.0791
				c-0.0498-2.75,1.0103-5.4004,2.9404-7.3603c1.92-1.96,4.5498-3.0606,7.2998-3.0606c39.1504,0,69.8204-30.6699,69.8204-69.8193
				c0-5.6602,4.58-10.2402,10.2397-10.2402h280.1802c5.6601,0,10.2402,4.58,10.2402,10.2402
				c0,39.1494,30.6797,69.8193,69.8399,69.8193c5.6601,0,10.2402,4.5801,10.2402,10.2403v120.0898
				c0,5.6504-4.5801,10.2402-10.2402,10.2402c-39.1602,0-69.8399,30.67-69.8399,69.8096
				C662.3203,657.7598,657.7402,662.3398,652.0801,662.3398L652.0801,662.3398z M381.6299,641.8604h260.7597
				c4.5704-42.2803,37.2305-74.9307,79.5303-79.5v-100.71c-42.2997-4.5703-74.9598-37.2305-79.5303-79.5103H381.5898
				c-4.5698,42.23-37.1396,74.8501-79.3398,79.5005l1.6499,95.7793C344.7598,562.4395,377.2402,597.6797,381.6299,641.8604
				L381.6299,641.8604z"/>
		</g>
		<g>
			<g>
				<polygon fill="#FFFFFF" points="524.0601,535.5498 444.7803,535.5498 444.7803,515.0703 524.0601,515.0703 524.0601,535.5498 
									"/>
			</g>
			<g>
				<polygon fill="#FFFFFF" points="524.0601,508.9395 444.8198,508.9395 444.8198,488.46 524.0601,488.46 524.0601,508.9395 				
					"/>
			</g>
			<g>
				<path fill="#FFFFFF" d="M516.2197,588.8105c-34.0097,0-61.6797-34.4501-61.6797-76.8007
					c0-42.3496,27.67-76.8096,61.6797-76.8096c15.5303,0,30.3301,7.1201,41.6802,20.0693l-15.3999,13.5
					c-7.4004-8.4394-16.7402-13.0898-26.2803-13.0898c-22.7197,0-41.1997,25.2705-41.1997,56.3301
					c0,31.0507,18.48,56.3203,41.1997,56.3203c9.8301,0,19.3701-4.8906,26.8501-13.7696l15.6602,13.2198
					C547.2803,581.3398,532.1899,588.8105,516.2197,588.8105L516.2197,588.8105z"/>
			</g>
		</g>
		<g>
			<g>
				<polygon fill="#FFFFFF" points="384,517.6299 363.52,517.6299 363.52,497.1504 384,497.1504 384,517.6299 				"/>
			</g>
			<g>
				<polygon fill="#FFFFFF" points="660.4805,517.6299 640,517.6299 640,497.1504 660.4805,497.1504 660.4805,517.6299 				"/>
			</g>
		</g>
	</g>
</g>
</svg>
