<?xml version="1.0" encoding="utf-8"?>
<!-- Generator: Adobe Illustrator 17.1.0, SVG Export Plug-In . SVG Version: 6.00 Build 0)  -->
<!DOCTYPE svg PUBLIC "-//W3C//DTD SVG 1.1//EN" "http://www.w3.org/Graphics/SVG/1.1/DTD/svg11.dtd">
<svg version="1.1" id="giftbox" xmlns="http://www.w3.org/2000/svg" xmlns:xlink="http://www.w3.org/1999/xlink" x="0px" y="0px"
	 viewBox="0 0 1024 1024" enable-background="new 0 0 1024 1024" xml:space="preserve">
<g>
	<g id="giftbox-label">
		<rect fill="#F16750" width="1024" height="1024"/>
	</g>
	<g id="giftbox-giftbox">
		<g>
			<polygon fill="#FFFFFF" points="471.9399,798.7197 451.46,798.7197 451.46,356.0601 471.9399,356.0601 471.9399,798.7197 			"/>
		</g>
		<g>
			<polygon fill="#FFFFFF" points="572.54,798.7197 552.0601,798.7197 552.0601,356.0601 572.54,356.0601 572.54,798.7197 			"/>
		</g>
		<g>
			<path fill="#FFFFFF" d="M754.4902,808.96H270.77c-5.6602,0-10.2397-4.5801-10.2397-10.2403V456.6602h20.4795v331.8203H744.25
				V456.6602h20.4805v342.0595C764.7305,804.3799,760.1504,808.96,754.4902,808.96L754.4902,808.96z"/>
		</g>
		<g>
			<path fill="#FFFFFF" d="M773.5703,466.9004H250.4297c-5.6597,0-10.2398-4.5801-10.2398-10.2402V356.0601
				c0-5.6597,4.5801-10.2398,10.2398-10.2398h523.1406c5.6602,0,10.2402,4.5801,10.2402,10.2398v100.6001
				C783.8105,462.3203,779.2305,466.9004,773.5703,466.9004L773.5703,466.9004z M260.6699,446.4199h502.6602v-80.1201H260.6699
				V446.4199L260.6699,446.4199z"/>
		</g>
		<g>
			<g>
				<path fill="#FFFFFF" d="M512,356.2402c-0.3398,0-0.6802-0.0205-1.0098-0.0503c-3.33-0.3295-81.7705-8.4497-112.4599-39.1298
					c-23.2901-23.3003-23.2901-61.2203,0-84.5201c11.2895-11.29,26.2998-17.5,42.2597-17.5c15.9698,0,30.9698,6.21,42.2598,17.5
					c30.6904,30.67,38.8101,109.1202,39.1401,112.44c0.3003,3.06-0.7797,6.0903-2.9497,8.2602
					C517.3101,355.1699,514.7002,356.2402,512,356.2402L512,356.2402z M440.79,235.52c-10.4902,0-20.3603,4.0801-27.7802,11.5
					c-15.3096,15.3198-15.3096,40.2398,0,55.5601c17.7002,17.6899,61.25,27.5801,87.1298,31.56
					c-3.9794-25.8803-13.8696-69.4204-31.5698-87.1201C461.1499,239.6001,451.29,235.52,440.79,235.52L440.79,235.52z"/>
			</g>
			<g>
				<path fill="#FFFFFF" d="M512,356.2402c-2.7002,0-5.3101-1.0703-7.2402-3c-2.17-2.1699-3.25-5.2002-2.9497-8.2602
					c0.3295-3.3198,8.4599-81.77,39.1401-112.44c11.29-11.29,26.29-17.5,42.2598-17.5c15.9599,0,30.9697,6.21,42.2596,17.5
					c23.2901,23.2998,23.2901,61.2198,0,84.5201c-30.6894,30.6801-109.1299,38.8003-112.4599,39.1298
					C512.6797,356.2197,512.3398,356.2402,512,356.2402L512,356.2402z M583.21,235.52c-10.5,0-20.3604,4.0801-27.7803,11.5
					c-17.6997,17.69-27.5899,61.2398-31.5698,87.1201c25.8803-3.9799,69.4301-13.8701,87.1303-31.56
					c15.3096-15.3203,15.3096-40.2403,0-55.5601C603.5703,239.6001,593.7002,235.52,583.21,235.52L583.21,235.52z"/>
			</g>
		</g>
		<g>
			<path fill="#FFFFFF" d="M522.2402,778.5996h-20.4804v-15.3594h20.4804V778.5996L522.2402,778.5996z M522.2402,742.7598h-20.4804
				v-20.4796h20.4804V742.7598L522.2402,742.7598z M522.2402,701.7998h-20.4804v-20.4795h20.4804V701.7998L522.2402,701.7998z
				 M522.2402,660.8398h-20.4804v-20.4794h20.4804V660.8398L522.2402,660.8398z M522.2402,619.8799h-20.4804v-20.4795h20.4804
				V619.8799L522.2402,619.8799z M522.2402,578.9199h-20.4804v-20.4804h20.4804V578.9199L522.2402,578.9199z M522.2402,537.96
				h-20.4804v-20.4795h20.4804V537.96L522.2402,537.96z M522.2402,497h-20.4804v-20.4805h20.4804V497L522.2402,497z"/>
		</g>
	</g>
</g>
</svg>
