<?xml version="1.0" encoding="utf-8"?>
<!-- Generator: Adobe Illustrator 17.1.0, SVG Export Plug-In . SVG Version: 6.00 Build 0)  -->
<!DOCTYPE svg PUBLIC "-//W3C//DTD SVG 1.1//EN" "http://www.w3.org/Graphics/SVG/1.1/DTD/svg11.dtd">
<svg version="1.1" id="hand-package" xmlns="http://www.w3.org/2000/svg" xmlns:xlink="http://www.w3.org/1999/xlink" x="0px"
	 y="0px" viewBox="0 0 1024 1024" enable-background="new 0 0 1024 1024" xml:space="preserve">
<g>
	<g id="hand-package-label">
		<rect fill="#4EC0B5" width="1024" height="1024"/>
	</g>
	<g id="hand-package-hand-package">
		<g id="hand-package-package">
			<g>
				<path fill="#FFFFFF" d="M738.1797,586.2598H367.4199c-5.6601,0-10.2402-4.5801-10.2402-10.2403V284.1401
					c0-5.6601,4.5801-10.2397,10.2402-10.2397h391.5606c5.6591,0,10.2392,4.5796,10.2392,10.2397v273.5103
					c0,5.6601-4.5801,10.2402-10.2392,10.2402c-5.6602,0-10.2403-4.5801-10.2403-10.2402V294.3799h-371.08v271.4004h360.5195
					c5.6601,0,10.2402,4.5801,10.2402,10.2392C748.4199,581.6797,743.8398,586.2598,738.1797,586.2598L738.1797,586.2598z"/>
			</g>
			<g>
				<path fill="#FFFFFF" d="M373.4697,582.5605c-1.5595,0-3.1499-0.3603-4.6396-1.121c-5.0401-2.5694-7.0401-8.7295-4.4702-13.7696
					l72.0503-141.3095c1.75-3.4302,5.2695-5.5904,9.1201-5.5904h246.5898c4.0596,0,7.7393,2.3999,9.3701,6.1201l60.1602,136.73
					c2.2793,5.1699-0.0703,11.2197-5.25,13.4903c-5.2002,2.2802-11.2305-0.0704-13.4902-5.25L685.4395,441.25H451.7998
					l-69.2002,135.7197C380.79,580.5195,377.2002,582.5605,373.4697,582.5605L373.4697,582.5605z"/>
			</g>
			<g>
				<path fill="#FFFFFF" d="M692.1094,441.25c-1.4199,0-2.8594-0.29-4.2295-0.9199c-5.1494-2.3399-7.4199-8.4199-5.0801-13.5601
					l66.8604-146.8696c2.3495-5.1406,8.4296-7.4307,13.5594-5.0801c5.1505,2.3399,7.4199,8.4199,5.0801,13.5596L701.4395,435.25
					C699.7197,439.0195,696,441.25,692.1094,441.25L692.1094,441.25z"/>
			</g>
			<g>
				<path fill="#FFFFFF" d="M445.54,441.25c-3.6699,0-7.2099-1.9697-9.0498-5.4297l-78.1103-146.8701
					c-2.6602-4.9902-0.7598-11.2002,4.23-13.8501c4.9799-2.6899,11.1899-0.7603,13.8501,4.23l78.1098,146.8701
					c2.6602,4.9897,0.7603,11.2002-4.23,13.8496C448.8101,440.8701,447.1602,441.25,445.54,441.25L445.54,441.25z"/>
			</g>
		</g>
		<g id="hand-package-hand">
			<g>
				<path fill="#FFFFFF" d="M560.52,750.0996c-41.7397,0-93.7602-24.5801-135.56-44.3193
					c-26.21-12.3799-50.9698-24.0801-61.8999-24.0801c-5.6602,0-10.2398-4.5801-10.2398-10.2402
					c0-5.6602,4.5796-10.2403,10.2398-10.2403c15.52,0,39.8501,11.4903,70.6499,26.0401
					c39.9502,18.8701,89.6699,42.3603,126.81,42.3603c69.3501,0,227.9604-88.4795,227.9604-118.8398
					c0-22.3799-9.9307-32.7997-31.25-32.7997c-7.0606,0-26.3301,16.1699-40.4004,27.9795
					c-29.4102,24.6601-62.6602,52.6201-91.1299,44.4599c-5.0498-1.4502-8.1807-6.4902-7.25-11.6601
					c1.7695-9.75-0.25-17.92-6.1504-24.9903c-17.3701-20.789-63.8599-27.5097-83.6602-27.5097
					c-5.6596,0-10.2397-4.5801-10.2397-10.2403c0-5.6591,4.5801-10.2392,10.2397-10.2392c19.5401,0,75.4903,6.2596,99.3799,34.8603
					c7.5,8.9795,11.3604,19.2198,11.541,30.5694c18.0596-2.3096,43.2696-23.4698,64.0997-40.9405
					C725.4805,571.96,742.7197,557.5,757.2305,557.5c32.8789,0,51.7296,19.4199,51.7296,53.2803
					C808.96,658.6797,632.7197,750.0996,560.52,750.0996L560.52,750.0996z"/>
			</g>
			<g>
				<path fill="#FFFFFF" d="M362.9697,709.8203H225.2803c-5.6602,0-10.2403-4.5801-10.2403-10.2402V483.2197
					c0-5.6592,4.5801-10.2392,10.2403-10.2392h137.6894c5.6602,0,10.2403,4.58,10.2403,10.2392v216.3604
					C373.21,705.2402,368.6299,709.8203,362.9697,709.8203L362.9697,709.8203z M235.52,689.3398h117.21V493.46H235.52V689.3398
					L235.52,689.3398z"/>
			</g>
			<g>
				<path fill="#FFFFFF" d="M628.5303,650.8203H471.1602c-5.6602,0-10.2403-4.5801-10.2403-10.2402
					c0-5.6602,4.5801-10.2403,10.2403-10.2403h157.3701c5.6592,0,10.2392,4.5801,10.2392,10.2403
					C638.7695,646.2402,634.1895,650.8203,628.5303,650.8203L628.5303,650.8203z"/>
			</g>
			<g>
				<g>
					<path fill="#FFFFFF" d="M361.6797,533.0605H237.21c-5.6602,0-10.2403-4.58-10.2403-10.2402
						c0-5.6601,4.5801-10.2402,10.2403-10.2402h124.4697c5.6601,0,10.2402,4.5801,10.2402,10.2402
						C371.9199,528.4805,367.3398,533.0605,361.6797,533.0605L361.6797,533.0605z"/>
				</g>
				<g>
					<path fill="#FFFFFF" d="M361.6797,576.8799H237.21c-5.6602,0-10.2403-4.5801-10.2403-10.2393
						c0-5.6601,4.5801-10.2402,10.2403-10.2402h124.4697c5.6601,0,10.2402,4.5801,10.2402,10.2402
						C371.9199,572.2998,367.3398,576.8799,361.6797,576.8799L361.6797,576.8799z"/>
				</g>
				<g>
					<path fill="#FFFFFF" d="M361.6797,620.6602H237.21c-5.6602,0-10.2403-4.5801-10.2403-10.2403
						c0-5.6601,4.5801-10.2402,10.2403-10.2402h124.4697c5.6601,0,10.2402,4.5801,10.2402,10.2402
						C371.9199,616.0801,367.3398,620.6602,361.6797,620.6602L361.6797,620.6602z"/>
				</g>
				<g>
					<path fill="#FFFFFF" d="M361.6797,664.4805H237.21c-5.6602,0-10.2403-4.5801-10.2403-10.2404
						c0-5.6601,4.5801-10.2402,10.2403-10.2402h124.4697c5.6601,0,10.2402,4.5801,10.2402,10.2402
						C371.9199,659.9004,367.3398,664.4805,361.6797,664.4805L361.6797,664.4805z"/>
				</g>
			</g>
		</g>
	</g>
</g>
</svg>
