<?xml version="1.0" encoding="utf-8"?>
<!-- Generator: Adobe Illustrator 17.1.0, SVG Export Plug-In . SVG Version: 6.00 Build 0)  -->
<!DOCTYPE svg PUBLIC "-//W3C//DTD SVG 1.1//EN" "http://www.w3.org/Graphics/SVG/1.1/DTD/svg11.dtd">
<svg version="1.1" id="heart-label-tag" xmlns="http://www.w3.org/2000/svg" xmlns:xlink="http://www.w3.org/1999/xlink" x="0px"
	 y="0px" viewBox="0 0 1024 1024" enable-background="new 0 0 1024 1024" xml:space="preserve">
<g>
	<g id="heart-label-tag-label">
		<rect fill="#F16750" width="1024" height="1024"/>
	</g>
	<g id="heart-label-tag-heart-label-tag">
		<g>
			<path fill="#FFFFFF" d="M465.0303,808.96c-6.8907,0-13.3804-2.6906-18.2901-7.5899l-188-187.9697
				c-10.08-10.1006-10.08-26.5205-0.0103-36.6309l281.9399-281.9297c4.9399-4.9096,11.4502-7.5996,18.3398-7.5996h187.9404
				c6.9199,0,13.4297,2.6997,18.3193,7.5996c4.9004,4.9004,7.5899,11.4004,7.5801,18.3106v187.9492
				c0,6.8604-2.7793,13.541-7.6094,18.3399L483.3599,801.3604C478.3398,806.29,471.8496,808.96,465.0303,808.96L465.0303,808.96z
				 M559.0098,307.7197c-1.4297,0-2.8398,0.5904-3.8799,1.6201L273.2197,591.2402c-2.1098,2.1202-2.1098,5.5596,0.0103,7.6797
				l187.98,187.96c2.06,2.0596,5.54,2.0898,7.7402-0.0694l281.8301-281.871c1.0195-1.0196,1.5898-2.3995,1.5898-3.8399V313.1401
				c0-1.9399-0.9902-3.2299-1.5898-3.8198c-0.5908-0.6006-1.8799-1.6006-3.8301-1.6006H559.0098L559.0098,307.7197z"/>
		</g>
		<g>
			<path fill="#FFFFFF" d="M672.7197,433.04c-25.3896,0-46.04-20.6601-46.04-46.06c-0.0098-12.2998,4.7803-23.8599,13.4902-32.5601
				c8.7003-8.7002,20.2598-13.48,32.5498-13.48c25.3897,0,46.0401,20.6602,46.0401,46.0401
				C718.7598,412.3799,698.1094,433.04,672.7197,433.04L672.7197,433.04z M672.7197,361.4199c-6.8301,0-13.25,2.6602-18.0801,7.4805
				c-4.8291,4.8398-7.4794,11.25-7.4794,18.0796c0,14.1001,11.4697,25.5801,25.5594,25.5801
				c14.0908,0,25.5606-11.48,25.5606-25.5801S686.8105,361.4199,672.7197,361.4199L672.7197,361.4199z"/>
		</g>
		<g>
			<path fill="#FFFFFF" d="M538.48,640.2803L538.48,640.2803c-2.3301,0-4.6602-0.0703-6.98-0.2198l-94.75-6.2001
				c-5.0898-0.3409-9.1602-4.3604-9.54-9.46l-7.17-95.7002c-1.3203-21.2197,3.4102-41.2998,13.67-58.2002
				c7.02-11.5195,13.4599-16.7998,15.6001-18.3594c13.3198-10.9404,29.5898-16.9604,45.8598-16.9604
				c16.46,0,31.8604,6.3393,43.3604,17.8393c13.5796,13.5801,20.0898,32.3008,18.4199,50.8809
				c18.5098-1.9707,36.9199,4.4492,50.1494,17.6797c23.6699,23.6895,24.0098,61.1396,0.8604,89.2197
				c-1.5596,2.1504-6.8204,8.5606-18.2901,15.6104C574.6201,635.5,556.9399,640.2803,538.48,640.2803L538.48,640.2803z
				 M446.9697,614l85.8604,5.6201c1.8799,0.1201,3.7597,0.1797,5.6499,0.1797l0,0c14.73,0,28.75-3.7598,40.5298-10.8799
				c8.9503-5.5,12.3798-10.1601,12.4102-10.2002c14.6699-17.6797,19.4395-44.3994,1.2002-62.6592
				C580.75,524.21,563.2402,520.9199,547.04,527.25c-3.75,1.5-8.08,0.6104-10.9702-2.2695
				c-2.8799-2.8809-3.7895-7.1807-2.31-10.9707c6.2603-16.0996,2.4503-34.3496-9.71-46.5098
				c-7.7397-7.7402-17.73-11.8398-28.8799-11.8398c-11.6299,0-23.3799,4.4394-33.0898,12.5
				c-0.27,0.2197-0.5498,0.4296-0.8301,0.6201l0,0c0.0098,0-4.6201,3.4599-10.0498,12.3701
				c-8.0703,13.2891-11.7803,29.25-10.7305,46.1494L446.9697,614L446.9697,614z"/>
		</g>
		<g>
			<path fill="#FFFFFF" d="M677,383.8799c-5.6602,0-10.2402-4.5801-10.2402-10.2398c0-5.7397-4.4795-12.2202-9.67-19.7397
				c-7.3095-10.5801-16.4101-23.7402-17.9804-42.1704c-1.4492-16.75,7.8008-33.71,15.9609-48.6699
				c6.7295-12.3599,14.3692-26.3599,10.71-32.6197c-2.8408-4.8906-1.1905-11.1601,3.6894-14.0102
				c4.9199-2.8404,11.1505-1.19,14.0108,3.6899c9.459,16.25-0.6504,34.7998-10.4307,52.7403
				c-7.0996,13.0297-14.4502,26.5097-13.54,37.1196c1.1104,13.02,7.8798,22.81,14.4297,32.2798
				c6.541,9.4599,13.3007,19.25,13.3007,31.3803C687.2402,379.2998,682.6602,383.8799,677,383.8799L677,383.8799z"/>
		</g>
	</g>
</g>
</svg>
