<?xml version="1.0" encoding="utf-8"?>
<!-- Generator: Adobe Illustrator 17.1.0, SVG Export Plug-In . SVG Version: 6.00 Build 0)  -->
<!DOCTYPE svg PUBLIC "-//W3C//DTD SVG 1.1//EN" "http://www.w3.org/Graphics/SVG/1.1/DTD/svg11.dtd">
<svg version="1.1" id="heart-bag" xmlns="http://www.w3.org/2000/svg" xmlns:xlink="http://www.w3.org/1999/xlink" x="0px" y="0px"
	 viewBox="0 0 1024 1024" enable-background="new 0 0 1024 1024" xml:space="preserve">
<g>
	<g id="heart-bag-label">
		<rect fill="#F16750" width="1024" height="1024"/>
	</g>
	<g id="heart-bag-heart-bag">
		<g>
			<path fill="#FFFFFF" d="M699.0605,808.96H324.9399c-23.2446,0-42.1596-18.9102-42.1596-42.1602V382.7002
				c0-23.25,18.915-42.1602,42.1596-42.1602h374.1206c23.2442,0,42.1592,18.9102,42.1592,42.1602v384.0996
				C741.2197,790.0498,722.3047,808.96,699.0605,808.96L699.0605,808.96z M324.9399,361.02c-11.955,0-21.6801,9.73-21.6801,21.6802
				v384.0996c0,11.9502,9.7251,21.6807,21.6801,21.6807h374.1206c11.9541,0,21.6797-9.7305,21.6797-21.6807V382.7002
				c0-11.9502-9.7256-21.6802-21.6797-21.6802H324.9399L324.9399,361.02z"/>
		</g>
		<g>
			<path fill="#FFFFFF" d="M611.54,409.7197c-5.6552,0-10.2402-4.5796-10.2402-10.2397v-98.46c0-36.1196-40.0649-65.5-89.3096-65.5
				c-49.2353,0-89.29,29.3804-89.29,65.5v98.46c0,5.6601-4.585,10.2397-10.2402,10.2397c-5.6553,0-10.2403-4.5796-10.2403-10.2397
				v-98.46c0-47.4096,49.2451-85.98,109.7705-85.98c60.5401,0,109.7901,38.5704,109.7901,85.98v98.46
				C621.7803,405.1401,617.1953,409.7197,611.54,409.7197L611.54,409.7197z"/>
		</g>
		<g>
			<path fill="#FFFFFF" d="M726.5303,743.8701H297.4697c-5.6548,0-10.2397-4.5801-10.2397-10.2402
				c0-5.6602,4.5849-10.2393,10.2397-10.2393h429.0606c5.6552,0,10.2392,4.5791,10.2392,10.2393
				C736.7695,739.29,732.1855,743.8701,726.5303,743.8701L726.5303,743.8701z"/>
		</g>
		<g>
			<path fill="#FFFFFF" d="M434.3896,409.7197h-46.0097c-5.6553,0-10.2403-4.5796-10.2403-10.2397
				c0-5.6597,4.585-10.2398,10.2403-10.2398h46.0097c5.6553,0,10.2403,4.5801,10.2403,10.2398
				C444.6299,405.1401,440.0449,409.7197,434.3896,409.7197L434.3896,409.7197z"/>
		</g>
		<g>
			<path fill="#FFFFFF" d="M635.5996,409.7197h-45.9902c-5.6543,0-10.2393-4.5796-10.2393-10.2397
				c0-5.6597,4.585-10.2398,10.2393-10.2398h45.9902c5.6553,0,10.2402,4.5801,10.2402,10.2398
				C645.8398,405.1401,641.2549,409.7197,635.5996,409.7197L635.5996,409.7197z"/>
		</g>
		<g>
			<path fill="#FFFFFF" d="M512,680.4297c-2.6201,0-5.2402-1-7.2402-3l-97.42-97.4102c-0.3046-0.3095-0.5898-0.6289-0.8549-0.9697
				c-13.3101-13.0195-20.6148-30.2393-20.6148-48.6494c0-37.5899,30.5801-68.1807,68.1699-68.1807
				c24.44,0,45.9151,12.9209,57.96,32.2803c12.04-19.3594,33.5098-32.2803,57.9399-32.2803c37.6001,0,68.19,30.5908,68.19,68.1807
				c0,18.4101-7.2647,35.5801-20.4951,48.5498c-0.2852,0.3701-0.5948,0.7295-0.9346,1.0693l-97.46,97.4102
				C517.2402,679.4297,514.6201,680.4297,512,680.4297L512,680.4297z M422.9448,566.6602L512,655.71l89.04-88.9903
				c0.3897-0.54,0.835-1.0498,1.3399-1.5195c9.8447-9.1807,15.2705-21.54,15.2705-34.7998
				c0-26.3008-21.4053-47.7002-47.7105-47.7002c-26.3003,0-47.6997,21.3994-47.6997,47.7002
				c0,5.6601-4.5849,10.2402-10.2402,10.2402c-5.6553,0-10.2402-4.5801-10.2402-10.2402c0-26.3008-21.4048-47.7002-47.7198-47.7002
				c-26.2949,0-47.6904,21.3994-47.6904,47.7002c0,13.2402,5.4502,25.6191,15.3506,34.8691
				C422.1602,565.7002,422.5752,566.1699,422.9448,566.6602L422.9448,566.6602z"/>
		</g>
	</g>
</g>
</svg>
