<?xml version="1.0" encoding="utf-8"?>
<!-- Generator: Adobe Illustrator 17.1.0, SVG Export Plug-In . SVG Version: 6.00 Build 0)  -->
<!DOCTYPE svg PUBLIC "-//W3C//DTD SVG 1.1//EN" "http://www.w3.org/Graphics/SVG/1.1/DTD/svg11.dtd">
<svg version="1.1" id="invoice" xmlns="http://www.w3.org/2000/svg" xmlns:xlink="http://www.w3.org/1999/xlink" x="0px" y="0px"
	 viewBox="0 0 1024 1024" enable-background="new 0 0 1024 1024" xml:space="preserve">
<g>
	<g id="invoice-label">
		<rect fill="#B6D161" width="1024" height="1024"/>
	</g>
	<g id="invoice-invoice">
		<g>
			<polygon fill="#FFFFFF" points="729.5146,314.27 640.5254,314.27 640.5254,225.2803 660.3252,225.2803 660.3252,294.4697 
				729.5146,294.4697 729.5146,314.27 			"/>
		</g>
		<g>
			<g>
				<path fill="#FFFFFF" d="M739.7549,808.96h-455.5V215.04H654.665l85.0899,85.0899V808.96L739.7549,808.96z M304.7349,788.4805
					h414.5405V308.6104L646.1855,235.52H304.7349V788.4805L304.7349,788.4805z"/>
			</g>
		</g>
		<g>
			<polygon fill="#FFFFFF" points="482.335,294.8398 343.9248,294.8398 343.9248,274.3604 482.335,274.3604 482.335,294.8398 			"/>
		</g>
		<g>
			<path fill="#FFFFFF" d="M680.4453,670.5498H343.5752V353.46h336.8701V670.5498L680.4453,670.5498z M364.0547,650.0703h295.9101
				V373.9399H364.0547V650.0703L364.0547,650.0703z"/>
		</g>
		<g>
			<polygon fill="#FFFFFF" points="680.085,720.3301 521.895,720.3301 521.895,699.8496 680.085,699.8496 680.085,720.3301 			"/>
		</g>
		<g>
			<polygon fill="#FFFFFF" points="620.7646,749.6406 521.895,749.6406 521.895,729.1602 620.7646,729.1602 620.7646,749.6406 			
				"/>
		</g>
		<g>
			<polygon fill="#FFFFFF" points="670.2051,433.25 353.8149,433.25 353.8149,412.77 670.2051,412.77 670.2051,433.25 			"/>
		</g>
		<g>
			<polygon fill="#FFFFFF" points="443.145,660.3105 422.665,660.3105 422.665,363.7002 443.145,363.7002 443.145,660.3105 			"/>
		</g>
		<g>
			<g>
				<polygon fill="#FFFFFF" points="522.2451,660.3105 501.7646,660.3105 501.7646,423.0098 522.2451,423.0098 522.2451,660.3105 
									"/>
			</g>
		</g>
		<g>
			<polygon fill="#FFFFFF" points="601.3447,660.3105 580.8652,660.3105 580.8652,423.0098 601.3447,423.0098 601.3447,660.3105 			
				"/>
		</g>
		<g>
			<polygon fill="#FFFFFF" points="670.2051,492.5801 432.9053,492.5801 432.9053,472.0996 670.2051,472.0996 670.2051,492.5801 			
				"/>
		</g>
		<g>
			<polygon fill="#FFFFFF" points="670.2051,551.9004 432.9053,551.9004 432.9053,531.4199 670.2051,531.4199 670.2051,551.9004 			
				"/>
		</g>
		<g>
			<polygon fill="#FFFFFF" points="670.2051,611.2305 432.9053,611.2305 432.9053,590.75 670.2051,590.75 670.2051,611.2305 			"/>
		</g>
	</g>
</g>
</svg>
