<?xml version="1.0" encoding="utf-8"?>
<!-- Generator: Adobe Illustrator 17.1.0, SVG Export Plug-In . SVG Version: 6.00 Build 0)  -->
<!DOCTYPE svg PUBLIC "-//W3C//DTD SVG 1.1//EN" "http://www.w3.org/Graphics/SVG/1.1/DTD/svg11.dtd">
<svg version="1.1" id="label-tag" xmlns="http://www.w3.org/2000/svg" xmlns:xlink="http://www.w3.org/1999/xlink" x="0px" y="0px"
	 viewBox="0 0 1024 1024" enable-background="new 0 0 1024 1024" xml:space="preserve">
<g id="label-tag-label">
	<rect fill="#B6D161" width="1024" height="1024"/>
</g>
<g id="label-tag-label-tag">
	<g>
		<path fill="#FFFFFF" d="M469.4502,805.2598c-2.6201,0-5.2402-1-7.2402-3L218.04,558.0801c-3.9853-3.9805-4-10.4395-0.04-14.4395
			l285.21-288.4404c3.9697-4.02,10.4599-4.0601,14.4799-0.0801c4.0201,3.9697,4.0601,10.46,0.0801,14.48L239.7197,550.7998
			L469.4502,780.54L754.5,495.5195c4-4,10.4805-4,14.4805,0s4,10.4805,0,14.4805L476.6899,802.2598
			C474.6899,804.2598,472.0698,805.2598,469.4502,805.2598L469.4502,805.2598z"/>
	</g>
	<g>
		<path fill="#FFFFFF" d="M761.7402,513.2998c-5.6552,0-10.2353-4.5801-10.2402-10.2295l-0.1152-230.4302H510.4902
			c-5.6552,0-10.2402-4.5903-10.2402-10.2397c0-5.6602,4.585-10.2402,10.2402-10.2402h261.3653l0.125,250.9003
			c0.0039,5.6592-4.5801,10.2393-10.2354,10.2393H761.7402L761.7402,513.2998z"/>
	</g>
	<g>
		<path fill="#FFFFFF" d="M658.1602,421.6602c-28.7247,0-52.1154-23.3799-52.1407-52.1001
			c0.0254-28.7203,23.416-52.0801,52.1407-52.0801c28.7148,0,52.08,23.3598,52.08,52.1001
			C710.2402,398.29,686.875,421.6602,658.1602,421.6602L658.1602,421.6602z M658.1602,337.96
			c-17.4406,0-31.6456,14.1801-31.6602,31.6001c0.0146,17.4199,14.2197,31.6201,31.6602,31.6201
			c17.4248,0,31.5995-14.1802,31.5995-31.6001C689.7598,352.1401,675.585,337.96,658.1602,337.96L658.1602,337.96z"/>
	</g>
	<g>
		<path fill="#FFFFFF" d="M650.7402,387.2002c-2.6201,0-5.2402-1-7.2402-3c-4-4-4-10.4805,0-14.4805l147.9805-147.9795
			c4-4,10.4796-4,14.4796,0s4,10.4795,0,14.4795L657.9805,384.2002C655.9805,386.2002,653.3594,387.2002,650.7402,387.2002
			L650.7402,387.2002z"/>
	</g>
</g>
</svg>
