<?xml version="1.0" encoding="utf-8"?>
<!-- Generator: Adobe Illustrator 17.1.0, SVG Export Plug-In . SVG Version: 6.00 Build 0)  -->
<!DOCTYPE svg PUBLIC "-//W3C//DTD SVG 1.1//EN" "http://www.w3.org/Graphics/SVG/1.1/DTD/svg11.dtd">
<svg version="1.1" id="mastercard" xmlns="http://www.w3.org/2000/svg" xmlns:xlink="http://www.w3.org/1999/xlink" x="0px" y="0px"
	 viewBox="0 0 1024 1024" enable-background="new 0 0 1024 1024" xml:space="preserve">
<g>
	<g id="mastercard-label">
		<rect fill="#B6D161" width="1024" height="1024"/>
	</g>
	<g id="mastercard-mastercard">
		<g>
			<polygon fill="#FFFFFF" points="812.7998,686.0703 755.875,686.0703 755.875,665.5898 792.3203,665.5898 792.3203,307.5 
				278.3398,307.5 278.3398,348.1699 257.8599,348.1699 257.8599,287.02 812.7998,287.02 812.7998,686.0703 			"/>
		</g>
		<g>
			<path fill="#FFFFFF" d="M766.1152,736.9805h-554.915V337.9302h554.915V736.9805L766.1152,736.9805z M231.6797,716.5h513.9551
				V358.4102H231.6797V716.5L231.6797,716.5z"/>
		</g>
		<g>
			<path fill="#FFFFFF" d="M429.2549,635.2598c-53.9351,0-97.8096-43.8799-97.8096-97.8203c0-53.92,43.8745-97.7891,97.8096-97.7891
				c53.935,0,97.8149,43.8691,97.8149,97.7891C527.0698,591.3799,483.1899,635.2598,429.2549,635.2598L429.2549,635.2598z
				 M429.2549,460.1299c-42.6397,0-77.3301,34.6806-77.3301,77.3096c0,42.6503,34.6904,77.3408,77.3301,77.3408
				c42.645,0,77.3349-34.6905,77.3349-77.3408C506.5898,494.8105,471.8999,460.1299,429.2549,460.1299L429.2549,460.1299z"/>
		</g>
		<g>
			<path fill="#FFFFFF" d="M548.0547,635.2598c-53.9346,0-97.8145-43.8799-97.8145-97.8203c0-53.92,43.8799-97.7891,97.8145-97.7891
				c53.9355,0,97.8105,43.8691,97.8105,97.7891C645.8652,591.3799,601.9902,635.2598,548.0547,635.2598L548.0547,635.2598z
				 M548.0547,460.1299c-42.6445,0-77.335,34.6806-77.335,77.3096c0,42.6503,34.6905,77.3408,77.335,77.3408
				c42.6406,0,77.3301-34.6905,77.3301-77.3408C625.3848,494.8105,590.6953,460.1299,548.0547,460.1299L548.0547,460.1299z"/>
		</g>
		<g>
			<polygon fill="#FFFFFF" points="716.4648,525.6406 672.3701,525.6406 672.3701,505.1602 716.4648,505.1602 716.4648,525.6406 			
				"/>
		</g>
		<g>
			<polygon fill="#FFFFFF" points="304.9453,525.6406 260.8496,525.6406 260.8496,505.1602 304.9453,505.1602 304.9453,525.6406 			
				"/>
		</g>
		<g>
			<polygon fill="#FFFFFF" points="716.4648,569.75 672.3701,569.75 672.3701,549.2695 716.4648,549.2695 716.4648,569.75 			"/>
		</g>
		<g>
			<polygon fill="#FFFFFF" points="304.9453,569.75 260.8496,569.75 260.8496,549.2695 304.9453,549.2695 304.9453,569.75 			"/>
		</g>
	</g>
</g>
</svg>
