<?xml version="1.0" encoding="utf-8"?>
<!-- Generator: Adobe Illustrator 17.1.0, SVG Export Plug-In . SVG Version: 6.00 Build 0)  -->
<!DOCTYPE svg PUBLIC "-//W3C//DTD SVG 1.1//EN" "http://www.w3.org/Graphics/SVG/1.1/DTD/svg11.dtd">
<svg version="1.1" id="megaphone" xmlns="http://www.w3.org/2000/svg" xmlns:xlink="http://www.w3.org/1999/xlink" x="0px" y="0px"
	 viewBox="0 0 1024 1024" enable-background="new 0 0 1024 1024" xml:space="preserve">
<g>
	<g id="megaphone-label">
		<rect fill="#4EC0B5" width="1024" height="1024"/>
	</g>
	<g id="megaphone-megaphone">
		<g>
			<path fill="#FFFFFF" d="M383.54,776.0498c-1.75,0-3.5-0.4502-5.0703-1.3496c-3.1997-1.8203-5.1699-5.21-5.1699-8.8896V565.7197
				c0-5.6592,4.5898-10.2392,10.2402-10.2392c5.6602,0,10.2403,4.58,10.2403,10.2392v182.1504l55.7998-32.9697V565.7197
				c0-5.6592,4.5898-10.2392,10.2397-10.2392c5.6602,0,10.2403,4.58,10.2403,10.2392v155.0204c0,3.6202-1.9102,6.9698-5.0298,8.8203
				L388.75,774.6299C387.1499,775.5703,385.3398,776.0498,383.54,776.0498L383.54,776.0498z"/>
		</g>
		<g>
			<polygon fill="#FFFFFF" points="275.7803,531.9805 215.04,531.9805 215.04,391.3501 275.7803,391.3501 275.7803,411.8301 
				235.52,411.8301 235.52,511.5 275.7803,511.5 275.7803,531.9805 			"/>
		</g>
		<g>
			<polygon fill="#FFFFFF" points="808.96,516.3799 757.8398,516.3799 757.8398,495.9004 788.4805,495.9004 788.4805,427.4697 
				757.8398,427.4697 757.8398,406.9902 808.96,406.9902 808.96,516.3799 			"/>
		</g>
		<g>
			<path fill="#FFFFFF" d="M756.5498,675.3701h-16.9795c-2.2705,0-4.4707-0.75-6.2705-2.1396l-128.6103-99.5801H281.7803
				c-5.6504,0-10.2403-4.5801-10.2403-10.2402V359.9399c0-5.6596,4.5899-10.2397,10.2403-10.2397h322.9092l128.6103-99.6104
				c1.7998-1.3896,4-2.1396,6.2705-2.1396h16.9795c5.6602,0,10.2402,4.5801,10.2402,10.2397v406.94
				C766.79,670.79,762.21,675.3701,756.5498,675.3701L756.5498,675.3701z M743.0703,654.8906h3.2402V268.4302h-3.2402L614.46,368.04
				c-1.7902,1.3902-4,2.1402-6.2705,2.1402H292.02v182.9897h316.1695c2.2705,0,4.4803,0.75,6.2705,2.1406L743.0703,654.8906
				L743.0703,654.8906z"/>
		</g>
		<g>
			<path fill="#FFFFFF" d="M601.9902,573.6504c-5.6504,0-10.2402-4.5801-10.2402-10.2402V359.9399
				c0-5.6596,4.5898-10.2397,10.2402-10.2397c5.6602,0,10.2403,4.5801,10.2403,10.2397v203.4703
				C612.2305,569.0703,607.6504,573.6504,601.9902,573.6504L601.9902,573.6504z"/>
		</g>
		<g>
			<polygon fill="#FFFFFF" points="518.4902,563.4102 498.0098,563.4102 498.0098,359.9399 518.4902,359.9399 518.4902,563.4102 			
				"/>
		</g>
	</g>
</g>
</svg>
