<?xml version="1.0" encoding="utf-8"?>
<!-- Generator: Adobe Illustrator 17.1.0, SVG Export Plug-In . SVG Version: 6.00 Build 0)  -->
<!DOCTYPE svg PUBLIC "-//W3C//DTD SVG 1.1//EN" "http://www.w3.org/Graphics/SVG/1.1/DTD/svg11.dtd">
<svg version="1.1" id="mobile-atm" xmlns="http://www.w3.org/2000/svg" xmlns:xlink="http://www.w3.org/1999/xlink" x="0px" y="0px"
	 viewBox="0 0 1024 1024" enable-background="new 0 0 1024 1024" xml:space="preserve">
<g>
	<g id="mobile-atm-label">
		<rect fill="#F16750" width="1024" height="1024"/>
	</g>
	<g id="mobile-atm-mobile-atm">
		<g>
			<path fill="#FFFFFF" d="M742.4102,808.96H281.6099V215.04h460.8003V808.96L742.4102,808.96z M302.0898,788.4805h419.8399V235.52
				H302.0898V788.4805L302.0898,788.4805z"/>
		</g>
		<g>
			<path fill="#FFFFFF" d="M670.7305,389.1201H353.29V266.2598h317.4405V389.1201L670.7305,389.1201z M373.77,368.6401h276.48
				v-81.8999H373.77V368.6401L373.77,368.6401z"/>
		</g>
		<g>
			<g>
				<path fill="#FFFFFF" d="M554.75,327c0,8.02-6.52,14.54-14.5601,14.54c-8,0-14.52-6.52-14.52-14.54s6.52-14.54,14.52-14.54
					C548.23,312.46,554.75,318.98,554.75,327z"/>
			</g>
			<g>
				<path fill="#FFFFFF" d="M611.1094,327c0,8.04-6.5,14.5601-14.5,14.5601c-8.0391,0-14.5791-6.5201-14.5791-14.5601
					c0-8.02,6.54-14.5601,14.5791-14.5601C604.6094,312.4399,611.1094,318.98,611.1094,327z"/>
			</g>
			<g>
				<path fill="#FFFFFF" d="M498.3701,327c0,8.04-6.54,14.54-14.54,14.54c-8.0401,0-14.5401-6.5-14.5401-14.54
					c0-8.02,6.5-14.54,14.5401-14.54C491.8301,312.46,498.3701,318.98,498.3701,327z"/>
			</g>
			<g>
				<path fill="#FFFFFF" d="M441.9902,327c0,8.04-6.54,14.5601-14.54,14.5601c-8.04,0-14.5606-6.5201-14.5606-14.5601
					c0-8.02,6.5206-14.5601,14.5606-14.5601C435.4502,312.4399,441.9902,318.98,441.9902,327z"/>
			</g>
		</g>
		<g>
			<g>
				<path fill="#FFFFFF" d="M446.4102,527.8799H353.23v-93.1997h93.1802V527.8799L446.4102,527.8799z M373.71,507.4004h52.2197
					v-52.2402H373.71V507.4004L373.71,507.4004z"/>
			</g>
			<g>
				<path fill="#FFFFFF" d="M560.4297,527.8799H467.23v-93.1997h93.1997V527.8799L560.4297,527.8799z M487.71,507.4004h52.2402
					v-52.2402H487.71V507.4004L487.71,507.4004z"/>
			</g>
			<g>
				<path fill="#FFFFFF" d="M670.79,527.8799h-93.2002v-93.1997H670.79V527.8799L670.79,527.8799z M598.0703,507.4004h52.2402
					v-52.2402h-52.2402V507.4004L598.0703,507.4004z"/>
			</g>
		</g>
		<g>
			<g>
				<path fill="#FFFFFF" d="M446.4102,645.1201H353.23v-93.2002h93.1802V645.1201L446.4102,645.1201z M373.71,624.6406h52.2197
					v-52.2402H373.71V624.6406L373.71,624.6406z"/>
			</g>
			<g>
				<path fill="#FFFFFF" d="M560.4297,645.1201H467.23v-93.2002h93.1997V645.1201L560.4297,645.1201z M487.71,624.6406h52.2402
					v-52.2402H487.71V624.6406L487.71,624.6406z"/>
			</g>
			<g>
				<path fill="#FFFFFF" d="M670.79,645.1201h-93.2002v-93.2002H670.79V645.1201L670.79,645.1201z M598.0703,624.6406h52.2402
					v-52.2402h-52.2402V624.6406L598.0703,624.6406z"/>
			</g>
		</g>
		<g>
			<g>
				<path fill="#FFFFFF" d="M446.4102,763.4004H353.23v-93.2002h93.1802V763.4004L446.4102,763.4004z M373.71,742.9199h52.2197
					v-52.2402H373.71V742.9199L373.71,742.9199z"/>
			</g>
			<g>
				<path fill="#FFFFFF" d="M560.4297,763.4004H467.23v-93.2002h93.1997V763.4004L560.4297,763.4004z M487.71,742.9199h52.2402
					v-52.2402H487.71V742.9199L487.71,742.9199z"/>
			</g>
			<g>
				<path fill="#FFFFFF" d="M670.79,763.4004h-93.2002v-93.2002H670.79V763.4004L670.79,763.4004z M598.0703,742.9199h52.2402
					v-52.2402h-52.2402V742.9199L598.0703,742.9199z"/>
			</g>
		</g>
	</g>
</g>
</svg>
