<?xml version="1.0" encoding="utf-8"?>
<!-- Generator: Adobe Illustrator 17.1.0, SVG Export Plug-In . SVG Version: 6.00 Build 0)  -->
<!DOCTYPE svg PUBLIC "-//W3C//DTD SVG 1.1//EN" "http://www.w3.org/Graphics/SVG/1.1/DTD/svg11.dtd">
<svg version="1.1" id="mobile-shop" xmlns="http://www.w3.org/2000/svg" xmlns:xlink="http://www.w3.org/1999/xlink" x="0px"
	 y="0px" viewBox="0 0 1024 1024" enable-background="new 0 0 1024 1024" xml:space="preserve">
<g>
	<g id="mobile-shop-label">
		<rect fill="#B6D161" width="1024" height="1024"/>
	</g>
	<g id="mobile-shop-mobile-shop">
		<g>
			<path fill="#FFFFFF" d="M721.7305,795.7002c-5.6553,0-10.2403-4.5801-10.2403-10.2402V515.1406
				c0-5.6601,4.585-10.2402,10.2403-10.2402c5.6543,0,10.2392,4.5801,10.2392,10.2402V785.46
				C731.9697,791.1201,727.3848,795.7002,721.7305,795.7002L721.7305,795.7002z"/>
		</g>
		<g>
			<path fill="#FFFFFF" d="M721.7305,308.7803c-5.6553,0-10.2403-4.5801-10.2403-10.2403v-43.9399
				c0-4.8804-3.955-8.8403-8.8203-8.8403H321.3101c-4.8648,0-8.8199,3.9599-8.8199,8.8403v41.0801
				c0,5.6596-4.5849,10.2397-10.2402,10.2397s-10.2402-4.5801-10.2402-10.2397v-41.0801c0-16.1602,13.1455-29.3198,29.3003-29.3198
				h381.3598c16.1553,0,29.2998,13.1596,29.2998,29.3198V298.54C731.9697,304.2002,727.3848,308.7803,721.7305,308.7803
				L721.7305,308.7803z"/>
		</g>
		<g>
			<path fill="#FFFFFF" d="M721.7305,798.7197H302.25c-5.6553,0-10.2402-4.5791-10.2402-10.2392V515.1406
				c0-5.6601,4.5849-10.2402,10.2402-10.2402s10.2402,4.5801,10.2402,10.2402v263.0995h409.2403
				c5.6543,0,10.2392,4.5801,10.2392,10.2404C731.9697,794.1406,727.3848,798.7197,721.7305,798.7197L721.7305,798.7197z"/>
		</g>
		<g>
			<g>
				<path fill="#FFFFFF" d="M726.0303,525.3799c-21.5303,0-41.8203-12.6602-53.5-30.5996
					c-11.6856,17.9394-31.9854,30.5996-53.5205,30.5996c-21.5293,0-41.8199-12.6602-53.5-30.5996
					c-11.6846,17.9394-31.9849,30.5996-53.5196,30.5996c-21.5302,0-41.8203-12.6602-53.5-30.5996
					c-11.6801,17.9394-31.9702,30.5996-53.5,30.5996c-21.5454,0-41.8506-12.6602-53.5351-30.5996
					c-11.6851,17.9394-31.9751,30.5996-53.5049,30.5996c-33.3604,0-63.7402-30.3799-63.7402-63.75v-74.4497h555.58v74.4497
					C789.79,495,759.4004,525.3799,726.0303,525.3799L726.0303,525.3799z M682.7695,461.6299
					c0,22.2402,21.0254,43.2705,43.2608,43.2705c22.2451,0,43.2802-21.0303,43.2802-43.2705v-53.9697H254.6899v53.9697
					c0,22.2402,21.0249,43.2705,43.2603,43.2705c22.2349,0,43.2598-21.0303,43.2598-43.2705h20.4799
					c0,22.2402,21.045,43.2705,43.3003,43.2705c22.2344,0,43.2598-21.0303,43.2598-43.2705h20.48
					c0,22.2402,21.0249,43.2705,43.2602,43.2705c22.2447,0,43.2798-21.0303,43.2798-43.2705h20.48
					c0,22.2402,21.0254,43.2705,43.2598,43.2705c22.2451,0,43.2802-21.0303,43.2802-43.2705H682.7695L682.7695,461.6299z"/>
			</g>
			<g>
				<path fill="#FFFFFF" d="M789.79,407.6602H234.21v-39.0704l69.4853-88.4394h416.6094l69.4853,88.4394V407.6602L789.79,407.6602z
					 M254.6899,387.1802h514.6205v-11.5103l-58.955-75.04H313.645l-58.955,75.04V387.1802L254.6899,387.1802z"/>
			</g>
		</g>
		<g>
			<polygon fill="#FFFFFF" points="714.2695,684.3203 302.25,684.3203 302.25,663.8398 714.2695,663.8398 714.2695,684.3203 			"/>
		</g>
		<g>
			<path fill="#FFFFFF" d="M531.0698,731.2803c0,10.54-8.56,19.0693-19.0796,19.0693c-10.54,0-19.0605-8.5293-19.0605-19.0693
				c0-10.5401,8.5205-19.0703,19.0605-19.0703C522.5098,712.21,531.0698,720.7402,531.0698,731.2803z"/>
		</g>
	</g>
</g>
</svg>
