<?xml version="1.0" encoding="utf-8"?>
<!-- Generator: Adobe Illustrator 17.1.0, SVG Export Plug-In . SVG Version: 6.00 Build 0)  -->
<!DOCTYPE svg PUBLIC "-//W3C//DTD SVG 1.1//EN" "http://www.w3.org/Graphics/SVG/1.1/DTD/svg11.dtd">
<svg version="1.1" id="online-shop" xmlns="http://www.w3.org/2000/svg" xmlns:xlink="http://www.w3.org/1999/xlink" x="0px"
	 y="0px" viewBox="0 0 1024 1024" enable-background="new 0 0 1024 1024" xml:space="preserve">
<g>
	<g id="online-shop-label">
		<rect fill="#4EC0B5" width="1024" height="1024"/>
	</g>
	<g id="online-shop-online-shop">
		<g id="online-shop-screen">
			<g>
				<path fill="#FFFFFF" d="M778.9395,675.4805H245.0601c-16.5552,0-30.0201-13.4611-30.0201-30.0205v-59.2998
					c0-5.6602,4.585-10.2403,10.2403-10.2403c5.6548,0,10.2397,4.5801,10.2397,10.2403V645.46c0,5.2597,4.2798,9.54,9.5401,9.54
					h533.8794c5.2607,0,9.541-4.2803,9.541-9.54v-59.2998c0-5.6602,4.5791-10.2403,10.2392-10.2403
					c5.6602,0,10.2404,4.5801,10.2404,10.2403V645.46C808.96,662.0195,795.4902,675.4805,778.9395,675.4805L778.9395,675.4805z"/>
			</g>
			<g>
				<path fill="#FFFFFF" d="M798.7197,596.4004c-5.6601,0-10.2392-4.5801-10.2392-10.2402V299.4399
					c0-5.2597-4.2803-9.5395-9.541-9.5395H245.0601c-5.2603,0-9.5401,4.2798-9.5401,9.5395v286.7203
					c0,5.6601-4.5849,10.2402-10.2397,10.2402c-5.6553,0-10.2403-4.5801-10.2403-10.2402V299.4399
					c0-16.56,13.4649-30.02,30.0201-30.02h533.8794c16.5507,0,30.0205,13.46,30.0205,30.02v286.7203
					C808.96,591.8203,804.3799,596.4004,798.7197,596.4004L798.7197,596.4004z"/>
			</g>
			<g>
				<path fill="#FFFFFF" d="M581.21,754.5801H442.79c-5.6552,0-10.2402-4.5801-10.2402-10.2403v-79.0996
					c0-5.6601,4.585-10.2402,10.2402-10.2402h138.42c5.6552,0,10.2402,4.5801,10.2402,10.2402v79.0996
					C591.4502,750,586.8652,754.5801,581.21,754.5801L581.21,754.5801z M453.0303,734.0996h117.9394v-58.6191H453.0303V734.0996
					L453.0303,734.0996z"/>
			</g>
			<g>
				<path fill="#FFFFFF" d="M798.7197,596.4004H225.2803c-5.6553,0-10.2403-4.5801-10.2403-10.2402
					c0-5.6602,4.585-10.2403,10.2403-10.2403h573.4393c5.6602,0,10.2404,4.5801,10.2404,10.2403
					C808.96,591.8203,804.3799,596.4004,798.7197,596.4004L798.7197,596.4004z"/>
			</g>
			<g>
				<path fill="#FFFFFF" d="M620.7695,754.5801H403.23c-5.6548,0-10.2398-4.5801-10.2398-10.2403
					c0-5.6601,4.585-10.2402,10.2398-10.2402h217.5395c5.6553,0,10.2403,4.5801,10.2403,10.2402
					C631.0098,750,626.4248,754.5801,620.7695,754.5801L620.7695,754.5801z"/>
			</g>
			<g>
				<path fill="#FFFFFF" d="M521.8896,623.2197c0,5.46-4.4394,9.9004-9.8896,9.9004c-5.46,0-9.8901-4.4404-9.8901-9.9004
					c0-5.4599,4.4301-9.8799,9.8901-9.8799C517.4502,613.3398,521.8896,617.7598,521.8896,623.2197z"/>
			</g>
		</g>
		<g>
			<g>
				<path fill="#FFFFFF" d="M741.3652,461.2598c-23.205,0-45.0547-13.8692-57.33-33.3994
					c-12.2852,19.5302-34.1407,33.3994-57.3604,33.3994c-23.2051,0-45.0547-13.8692-57.3301-33.3994
					c-12.2845,19.5302-34.1396,33.3994-57.3545,33.3994c-23.205,0-45.0503-13.8692-57.33-33.3994
					c-12.2803,19.5302-34.1299,33.3994-57.335,33.3994c-23.2256,0-45.0903-13.8799-57.375-33.3994
					c-12.2803,19.5195-34.1299,33.3994-57.335,33.3994c-35.3652,0-67.5752-32.21-67.5752-67.5796v-79.0503h593.92v79.0503
					C808.96,429.0498,776.7402,461.2598,741.3652,461.2598L741.3652,461.2598z M694.2754,393.6802
					c0,24.2099,22.8848,47.1001,47.0898,47.1001c24.2198,0,47.1153-22.8902,47.1153-47.1001v-58.5698H235.52v58.5698
					c0,24.2099,22.8853,47.1001,47.0952,47.1001c24.2051,0,47.0899-22.8902,47.0899-47.1001h20.48
					c0,24.2099,22.9096,47.1001,47.1401,47.1001c24.21,0,47.0947-22.8902,47.0947-47.1001h20.48
					c0,24.2099,22.8853,47.1001,47.0903,47.1001c24.2198,0,47.1148-22.8902,47.1148-47.1001h20.48
					c0,24.2099,22.8846,47.1001,47.0898,47.1001c24.2197,0,47.1201-22.8902,47.1201-47.1001H694.2754L694.2754,393.6802z"/>
			</g>
		</g>
	</g>
</g>
</svg>
