<?xml version="1.0" encoding="utf-8"?>
<!-- Generator: Adobe Illustrator 17.1.0, SVG Export Plug-In . SVG Version: 6.00 Build 0)  -->
<!DOCTYPE svg PUBLIC "-//W3C//DTD SVG 1.1//EN" "http://www.w3.org/Graphics/SVG/1.1/DTD/svg11.dtd">
<svg version="1.1" id="quality-award" xmlns="http://www.w3.org/2000/svg" xmlns:xlink="http://www.w3.org/1999/xlink" x="0px"
	 y="0px" viewBox="0 0 1024 1024" enable-background="new 0 0 1024 1024" xml:space="preserve">
<g>
	<g id="quality-award-label">
		<rect fill="#B6D161" width="1024" height="1024"/>
	</g>
	<g id="quality-award-quality-award">
		<g>
			<g>
				<g>
					<polygon fill="#FFFFFF" points="564.0996,808.96 521.96,709.6895 540.8101,701.6895 570.3896,771.3604 613.9297,722.9805 
						678.9902,725.2695 654.7305,668.0996 673.5801,660.0996 710.4004,746.8701 622.7598,743.7803 564.0996,808.96 					"/>
				</g>
			</g>
			<g>
				<g>
					<polygon fill="#FFFFFF" points="461.145,808.9004 401.3599,744.7598 313.79,749.3799 353.3301,651.4805 372.3198,659.1406 
						344.8203,727.2402 409.8252,723.8203 454.2051,771.4199 483.5303,698.8398 502.52,706.5 461.145,808.9004 					"/>
				</g>
			</g>
		</g>
		<g>
			<path fill="#FFFFFF" d="M511.9951,727.8701c-10.9551,0-18.9648-8.3398-26.0351-15.7002
				c-3.1348-3.2597-8.3848-8.7304-10.6602-9.0898c-0.0098,0-0.0195,0-0.0298,0c-3.23,0-8.9048,3.04-13.4653,5.4804
				c-7.1846,3.8399-14.6148,7.8194-22.5195,7.8194c-2.2754,0-4.4751-0.3399-6.5401-1.0098
				c-10.3452-3.3701-15.3603-13.7295-19.7803-22.8799c-1.9848-4.1103-5.3095-10.9902-7.4345-12.08
				c-0.1104-0.0498-0.9102-0.4102-3.0655-0.4102c-3.1347,0-7.1049,0.71-11.3095,1.46c-4.875,0.8603-9.9151,1.7597-14.8301,1.7597
				c-6.125,0-11.0449-1.4092-15.04-4.3193c-8.7354-6.3604-10.3052-17.7207-11.6856-27.7402
				c-0.6299-4.5606-1.6797-12.1797-3.3994-13.9004c-1.7256-1.7198-9.3452-2.7697-13.9004-3.3994
				c-10.0195-1.3799-21.3799-2.9405-27.7397-11.6709c-6.3404-8.6993-4.3355-19.9698-2.5699-29.9092
				c0.8648-4.8408,2.1651-12.1505,1.0401-14.3604c-1.0752-2.0996-7.9654-5.4394-12.0752-7.4199
				c-9.1504-4.4297-19.5254-9.4502-22.8701-19.7998c-3.3149-10.1602,2.0649-20.2197,6.81-29.0801
				c2.335-4.3603,5.8648-10.9599,5.4702-13.4795c-0.3554-2.2607-5.8252-7.5205-9.0903-10.6601
				c-7.355-7.0703-15.6899-15.0801-15.6899-26.0303c0-10.9404,8.335-18.9502,15.6851-26.0107
				c3.27-3.1495,8.7398-8.3995,9.1001-10.6993c0.3897-2.4804-3.1401-9.0703-5.4751-13.4301
				c-4.75-8.8702-10.1352-18.9302-6.8051-29.1099c3.3301-10.3203,13.6953-15.3398,22.8398-19.7603
				c4.1152-2,11-5.3398,12.0903-7.4599c1.1148-2.1997-0.185-9.52-1.0454-14.3599c-1.7646-9.9302-3.7695-21.1899,2.5606-29.8799
				c6.3647-8.7402,17.7148-10.3003,27.7246-11.6801c4.8554-0.67,12.1904-1.6802,13.915-3.42
				c1.7305-1.7202,2.7803-9.3403,3.4102-13.8901c1.3798-10.0303,2.9453-21.3896,11.685-27.7402
				c4-2.9097,8.9248-4.3296,15.0552-4.3296c4.915,0,9.9551,0.8999,14.8247,1.7597c4.1997,0.75,8.165,1.4605,11.3003,1.4605
				c2.1494,0,2.9448-0.3506,3.085-0.4204c2.0996-1.0796,5.4296-7.96,7.4199-12.0698c4.4199-9.1504,9.4345-19.5098,19.7798-22.8702
				c2.0649-0.6699,4.27-1.0097,6.5503-1.0097c7.9096,0,15.3398,3.9697,22.5195,7.8198c4.5752,2.4497,10.2705,5.4897,13.2002,5.4897
				c2.5649-0.3798,7.8149-5.8398,10.9502-9.0996c7.0698-7.3603,15.0849-15.7002,26.04-15.7002
				c10.9551,0,18.9649,8.3399,26.0352,15.69c3.1396,3.27,8.3945,8.73,10.6797,9.0903c0.0048,0,0.0146,0,0.0248,0
				c3.2099,0,8.875-3.0205,13.4351-5.4599c7.1851-3.8506,14.6153-7.8204,22.5248-7.8204c2.2901,0,4.5005,0.3399,6.5747,1.0201
				c10.336,3.3403,15.3506,13.7202,19.7754,22.8598c1.9854,4.1104,5.3106,10.9805,7.4248,12.0601
				c0.125,0.0698,0.9248,0.4204,3.085,0.4204c3.1348,0,7.1006-0.7002,11.3008-1.4502c4.8691-0.8701,9.9043-1.7603,14.8144-1.7603
				c6.1348,0,11.0645,1.4205,15.0645,4.3301c8.7256,6.3599,10.2959,17.71,11.6758,27.73
				c0.6699,4.8501,1.6844,12.1699,3.4043,13.9004c1.7303,1.7295,9.3553,2.7798,13.9101,3.4097
				c10.0156,1.3798,21.3701,2.9399,27.7149,11.6801c6.3359,8.6797,4.3408,19.9497,2.5751,29.8897
				c-0.8593,4.8398-2.1552,12.1504-1.0302,14.3701c1.0859,2.1104,7.9658,5.4399,12.0761,7.4302
				c9.1397,4.4302,19.5,9.4399,22.8545,19.7798c3.3047,10.1699-2.0703,20.2202-6.8154,29.0898
				c-2.335,4.3604-5.8652,10.9502-5.4697,13.46c0.3603,2.2802,5.8301,7.5302,9.1006,10.6797
				c7.3496,7.0605,15.6845,15.0703,15.6845,26.0107c0,10.96-8.3398,18.9697-15.6953,26.0498
				c-3.2646,3.1299-8.7295,8.3799-9.0898,10.6602c-0.3955,2.5,3.1347,9.0996,5.4756,13.4697
				c4.7392,8.8604,10.1142,18.9101,6.8095,29.0898c-3.3545,10.3408-13.7197,15.3506-22.8652,19.7803
				c-4.1103,1.9805-10.9893,5.3105-12.0752,7.4395c-1.1299,2.2109,0.1699,9.5302,1.0303,14.3808
				c1.7597,9.9199,3.7549,21.1797-2.5694,29.8799c-6.3603,8.7393-17.7207,10.2998-27.75,11.6797
				c-4.5507,0.6201-12.166,1.6806-13.8808,3.3896c-1.7295,1.7305-2.7852,9.3604-3.4151,13.9102
				c-1.3798,10.0205-2.9443,21.3603-11.6591,27.7207c-4.0157,2.9199-8.9307,4.3301-15.0508,4.3301
				c-4.9199,0-9.9649-0.9005-14.8447-1.7705c-4.2003-0.75-8.17-1.46-11.3047-1.46c-2.1455,0-2.9356,0.3496-3.0752,0.4199
				c-2.1055,1.0801-5.4405,7.96-7.4297,12.0801c-4.4258,9.1406-9.4404,19.5-19.7852,22.8701
				c-2.0654,0.6699-4.2656,1.0098-6.5454,1.0098c-7.8998,0-15.3246-3.9795-22.5049-7.8194c-4.5747-2.4501-10.2651-5.5-13.185-5.5
				c-2.5996,0.379-7.8599,5.8594-11,9.129C530.9399,719.54,522.9399,727.8701,511.9951,727.8701L511.9951,727.8701z
				 M474.9951,682.5801c1.1846,0,2.3496,0.0996,3.4951,0.2803c9.0796,1.4199,15.7696,8.3896,22.2398,15.1201
				c2.9302,3.0594,9.0346,9.4101,11.2651,9.4101c2.2197,0,8.315-6.3408,11.2398-9.3906
				c6.4799-6.7402,13.1754-13.7197,22.2797-15.1396c8.8804-1.3799,17.9952,3.1796,26.3404,7.6396
				c4.4897,2.4102,10.0747,5.4004,12.8398,5.4004c2.2852-0.7402,6.0747-8.5606,7.895-12.3203
				c4.0899-8.4395,8.3155-17.1797,16.545-21.4004c7.125-3.6192,17.625-2.5996,27.2949-0.8799
				c4.1855,0.7402,8.1406,1.4502,11.25,1.4502c2.3203,0,3-0.4102,3.0098-0.4102c1.6757-1.3701,2.8056-9.5595,3.416-13.9599
				c1.2296-8.9102,2.625-19.0098,9.2296-25.5996c6.5703-6.5801,16.6601-7.96,25.5546-9.1905
				c4.4053-0.6093,12.6006-1.7294,13.9903-3.4492c1.1553-1.8604-0.2744-9.9209-1.0401-14.25
				c-1.5752-8.8711-3.3593-18.9306,0.8946-27.2607c4.2109-8.25,12.9453-12.4893,21.3955-16.5694
				c3.7549-1.8203,11.5703-5.6005,12.3056-7.6699c0.4795-2.1308-3.3408-9.2705-5.3906-13.1006
				c-4.2646-7.9697-9.1053-17.0096-7.6445-26.3095c1.4394-9.1006,8.3994-15.791,15.1299-22.2608
				c3.0498-2.9297,9.4052-9.04,9.4052-11.2695c0-2.2197-6.3457-8.3203-9.3955-11.25c-6.7353-6.4805-13.7002-13.1602-15.1396-22.2402
				c-1.4609-9.3199,3.375-18.3599,7.6445-26.3301c2.0498-3.8301,5.8701-10.9697,5.3848-13.1099
				c-0.7344-2.06-8.5401-5.8398-12.2949-7.6596c-8.4453-4.0801-17.1747-8.3106-21.3848-16.5401
				c-4.2549-8.3506-2.4746-18.4004-0.9004-27.2705c0.7705-4.3301,2.2002-12.3896,1.0254-14.2695
				c-1.4004-1.7002-9.5645-2.8301-13.9502-3.4405c-8.9053-1.2197-19.0049-2.6201-25.5947-9.2197
				c-6.585-6.5801-7.9746-16.6699-9.2051-25.5703c-0.6104-4.3994-1.7402-12.5898-3.4502-13.9697l0,0
				c-0.0049,0-0.6904-0.4102-3.0049-0.4102c-3.1053,0-7.0547,0.7002-11.2344,1.4502c-9.666,1.7197-20.1953,2.7197-27.2802-0.9004
				c-8.2451-4.2197-12.4658-12.9394-16.5498-21.3799c-1.8155-3.7597-5.6006-11.58-7.6703-12.3095c-0.0054,0-0.0152,0-0.0201,0
				c-3.0254,0-8.6001,2.9897-13.0849,5.3896c-8.3399,4.4502-17.4199,9.0401-26.3101,7.6402
				c-9.0952-1.44-15.7852-8.3999-22.2554-15.1402c-2.9345-3.0498-9.04-9.3999-11.2695-9.3999
				c-2.2305,0-8.3398,6.3599-11.2705,9.3999c-6.4697,6.7403-13.1548,13.7002-22.2246,15.1402
				c-9.0703,1.3999-18.0254-3.19-26.355-7.6597c-4.4951-2.4004-10.0849-5.3906-12.8598-5.3906
				c-2.3003,0.75-6.0801,8.5703-7.8956,12.3203c-4.0849,8.4399-8.3046,17.1699-16.54,21.3896
				c-7.1147,3.6201-17.6196,2.6006-27.2798,0.8907c-4.185-0.75-8.1347-1.4502-11.2446-1.4502c-2.3252,0-3.0103,0.4101-3.0151,0.4199
				c-1.7002,1.3799-2.8301,9.56-3.44,13.9599c-1.2251,8.9102-2.6152,19-9.2099,25.5801c-6.5801,6.5996-16.6856,8-25.6001,9.2197
				c-4.3999,0.6202-12.5855,1.7403-13.9751,3.46c-1.1499,1.8506,0.2851,9.9102,1.0546,14.2402
				c1.5752,8.8702,3.3653,18.92-0.8798,27.25c-4.2295,8.25-12.96,12.4903-21.3999,16.5704
				c-3.7447,1.8198-11.545,5.5996-12.2896,7.6699c-0.4853,2.1596,3.3296,9.29,5.3799,13.1098
				c4.2646,7.9703,9.1045,17,7.6494,26.2901c-1.4394,9.1098-8.4043,15.7895-15.1396,22.27
				c-3.0498,2.9297-9.3951,9.0303-9.3951,11.25c0,2.2295,6.3501,8.3301,9.3999,11.2695c6.7354,6.46,13.6954,13.1602,15.1348,22.2403
				c1.4551,9.3203-3.3799,18.3505-7.6445,26.3203c-2.0552,3.8398-5.875,10.9697-5.3902,13.1201
				c0.75,2.0596,8.5552,5.8398,12.3052,7.6601c8.4448,4.0801,17.1797,8.2999,21.3999,16.5391
				c4.25,8.3604,2.4649,18.4004,0.8853,27.2803c-0.7705,4.3203-2.2051,12.3799-1.0401,14.2607
				c1.3799,1.6992,9.5747,2.8291,13.9795,3.4395c8.9004,1.2197,18.9903,2.6094,25.5801,9.2002
				c6.5898,6.5801,7.9805,16.6797,9.21,25.5801c0.6103,4.3994,1.7402,12.5996,3.455,13.9892l0,0
				c0.0098,0,0.7051,0.3906,2.9854,0.3906c3.1045,0,7.0596-0.7002,11.2446-1.4502c9.6851-1.7099,20.1948-2.7295,27.2852,0.8897
				c8.25,4.2305,12.4702,12.9609,16.5503,21.4004c1.8144,3.7597,5.5947,11.5801,7.6699,12.3203c0.0049,0,0.0049,0,0.0098,0
				c2.9799,0,8.5703-3,13.06-5.4004C459.4199,686.6104,466.9399,682.5801,474.9951,682.5801L474.9951,682.5801z"/>
		</g>
		<g>
			<g>
				<path fill="#FFFFFF" d="M511.9951,574.6406c-52.1299,0-94.54-45.7011-94.54-101.8711c0-56.1694,42.4101-101.8691,94.54-101.8691
					c52.1348,0,94.5498,45.6997,94.5498,101.8691C606.5449,528.9395,564.1299,574.6406,511.9951,574.6406L511.9951,574.6406z
					 M511.9951,391.3799c-40.8349,0-74.06,36.5102-74.06,81.3896c0,44.8809,33.2251,81.3907,74.06,81.3907
					c40.8399,0,74.0698-36.5098,74.0698-81.3907C586.0649,427.8901,552.835,391.3799,511.9951,391.3799L511.9951,391.3799z"/>
			</g>
			<g>
				<path fill="#FFFFFF" d="M585.1152,575.7002c-2.6201,0-5.2402-1-7.2402-3l-53.5703-53.5596c-4-4-4-10.4804,0-14.4804
					s10.4805-4,14.4805,0l53.5703,53.5595c4,4,4,10.4805,0,14.4805C590.3555,574.7002,587.7349,575.7002,585.1152,575.7002
					L585.1152,575.7002z"/>
			</g>
		</g>
	</g>
</g>
</svg>
