<?xml version="1.0" encoding="utf-8"?>
<!-- Generator: Adobe Illustrator 17.1.0, SVG Export Plug-In . SVG Version: 6.00 Build 0)  -->
<!DOCTYPE svg PUBLIC "-//W3C//DTD SVG 1.1//EN" "http://www.w3.org/Graphics/SVG/1.1/DTD/svg11.dtd">
<svg version="1.1" id="receipt" xmlns="http://www.w3.org/2000/svg" xmlns:xlink="http://www.w3.org/1999/xlink" x="0px" y="0px"
	 viewBox="0 0 1024 1024" enable-background="new 0 0 1024 1024" xml:space="preserve">
<g>
	<g id="receipt-label">
		<rect fill="#F16750" width="1024" height="1024"/>
	</g>
	<g id="receipt-receipt">
		<g>
			<path fill="#FFFFFF" d="M311.2998,808.96c-1.3198,0-2.6499-0.25-3.9199-0.7803c-3.8252-1.5801-6.3198-5.3193-6.3198-9.46
				V225.2803c0-5.6602,4.5849-10.2403,10.2397-10.2403h401.4004c5.6553,0,10.2393,4.5801,10.2393,10.2403v573.4394
				c0,4.1407-2.4942,7.8799-6.3194,9.46c-3.8398,1.5898-8.2354,0.7109-11.1601-2.2197l-37.5303-37.5303l-27.3047,36.4307
				c-3.8652,5.1591-12.5195,5.1591-16.3848,0l-27.33-36.4307L559.3701,805.96c-2.0898,2.1103-4.9254,3.2295-7.9702,2.9697
				c-2.96-0.21-5.6851-1.6895-7.4648-4.0693l-27.3052-36.4307L479.0996,805.96c-2.0947,2.1103-4.9697,3.2295-7.9648,2.9697
				c-2.96-0.21-5.6846-1.6895-7.4649-4.0693l-27.3252-36.4307L398.8198,805.96c-2.0898,2.1103-4.9399,3.2295-7.9648,2.9697
				c-2.96-0.21-5.6851-1.6895-7.4654-4.0596l-27.3349-36.4404L318.54,805.96C316.585,807.9199,313.9648,808.96,311.2998,808.96
				L311.2998,808.96z M357.1602,742.5996c0.2397,0,0.4794,0.0108,0.7246,0.0303c2.9599,0.2099,5.685,1.6904,7.4648,4.0596
				l27.3355,36.4404l37.5249-37.5303c2.1001-2.0996,5.02-3.1699,7.9648-2.9697c2.96,0.2099,5.6851,1.6904,7.4648,4.0703
				l27.3301,36.4297L510.5,745.5996c2.0947-2.0996,5.0449-3.1699,7.9648-2.9697c2.9649,0.2099,5.6905,1.6904,7.4703,4.0703
				l27.3051,36.4297l37.5401-37.5303c2.0996-2.0996,5.0146-3.1699,7.9648-2.9697c2.96,0.2099,5.6846,1.6904,7.4649,4.0703
				l26.2197,34.9502l26.1953-34.9502c1.7803-2.3799,4.5049-3.8604,7.4697-4.0703c2.9102-0.2393,5.8701,0.8701,7.9658,2.9697
				L702.46,774V235.52H321.54v538.4702l28.3799-28.3906C351.8447,743.6699,354.4551,742.5996,357.1602,742.5996L357.1602,742.5996z"
				/>
		</g>
		<g>
			<g>
				<polygon fill="#FFFFFF" points="649.6299,608.2803 592.2803,608.2803 592.2803,587.7998 649.6299,587.7998 649.6299,608.2803 
									"/>
			</g>
			<g>
				<polygon fill="#FFFFFF" points="649.6299,665.5996 592.2803,665.5996 592.2803,645.1201 649.6299,645.1201 649.6299,665.5996 
									"/>
			</g>
			<g>
				<polygon fill="#FFFFFF" points="652.4297,337.9199 371.5698,337.9199 371.5698,317.4399 652.4297,317.4399 652.4297,337.9199 
									"/>
			</g>
			<g>
				<polygon fill="#FFFFFF" points="649.6299,436.2197 592.2803,436.2197 592.2803,415.7402 649.6299,415.7402 649.6299,436.2197 
									"/>
			</g>
			<g>
				<polygon fill="#FFFFFF" points="649.6299,493.5605 592.2803,493.5605 592.2803,473.0801 649.6299,473.0801 649.6299,493.5605 
									"/>
			</g>
			<g>
				<polygon fill="#FFFFFF" points="649.6299,550.9199 592.2803,550.9199 592.2803,530.4395 649.6299,530.4395 649.6299,550.9199 
									"/>
			</g>
			<g>
				<polygon fill="#FFFFFF" points="534.9399,436.2197 374.3701,436.2197 374.3701,415.7402 534.9399,415.7402 534.9399,436.2197 
									"/>
			</g>
			<g>
				<polygon fill="#FFFFFF" points="534.9399,493.5605 374.3701,493.5605 374.3701,473.0801 534.9399,473.0801 534.9399,493.5605 
									"/>
			</g>
			<g>
				<polygon fill="#FFFFFF" points="534.9399,550.9199 374.3701,550.9199 374.3701,530.4395 534.9399,530.4395 534.9399,550.9199 
									"/>
			</g>
			<g>
				<polygon fill="#FFFFFF" points="534.9399,608.2803 374.3701,608.2803 374.3701,587.7998 534.9399,587.7998 534.9399,608.2803 
									"/>
			</g>
			<g>
				<polygon fill="#FFFFFF" points="534.9399,665.5996 374.3701,665.5996 374.3701,645.1201 534.9399,645.1201 534.9399,665.5996 
									"/>
			</g>
		</g>
	</g>
</g>
</svg>
