<?xml version="1.0" encoding="utf-8"?>
<!-- Generator: Adobe Illustrator 17.1.0, SVG Export Plug-In . SVG Version: 6.00 Build 0)  -->
<!DOCTYPE svg PUBLIC "-//W3C//DTD SVG 1.1//EN" "http://www.w3.org/Graphics/SVG/1.1/DTD/svg11.dtd">
<svg version="1.1" id="scanning-barcode" xmlns="http://www.w3.org/2000/svg" xmlns:xlink="http://www.w3.org/1999/xlink" x="0px"
	 y="0px" viewBox="0 0 1024 1024" enable-background="new 0 0 1024 1024" xml:space="preserve">
<g>
	<g id="scanning-barcode-label">
		<rect fill="#F16750" width="1024" height="1024"/>
	</g>
	<g id="scanning-barcode-scanning-barcode">
		<g>
			<g>
				<polygon fill="#FFFFFF" points="275.085,694.9102 254.605,694.9102 254.605,526.8301 275.085,526.8301 275.085,694.9102 				"/>
			</g>
			<g>
				<polygon fill="#FFFFFF" points="769.4248,694.9102 748.9453,694.9102 748.9453,526.8301 769.4248,526.8301 769.4248,694.9102 
									"/>
			</g>
			<g>
				<polygon fill="#FFFFFF" points="314.625,615.8203 294.145,615.8203 294.145,526.8301 314.625,526.8301 314.625,615.8203 				"/>
			</g>
			<g>
				<polygon fill="#FFFFFF" points="344.2852,615.8203 323.8047,615.8203 323.8047,526.8301 344.2852,526.8301 344.2852,615.8203 
									"/>
			</g>
			<g>
				<polygon fill="#FFFFFF" points="393.7051,615.8203 373.2246,615.8203 373.2246,526.8301 393.7051,526.8301 393.7051,615.8203 
									"/>
			</g>
			<g>
				<polygon fill="#FFFFFF" points="423.3848,615.8203 402.9053,615.8203 402.9053,526.8301 423.3848,526.8301 423.3848,615.8203 
									"/>
			</g>
			<g>
				<polygon fill="#FFFFFF" points="453.0449,615.8203 432.5649,615.8203 432.5649,526.8301 453.0449,526.8301 453.0449,615.8203 
									"/>
			</g>
			<g>
				<polygon fill="#FFFFFF" points="512.3652,615.8203 491.8848,615.8203 491.8848,526.8301 512.3652,526.8301 512.3652,615.8203 
									"/>
			</g>
			<g>
				<polygon fill="#FFFFFF" points="561.8047,615.8203 541.3252,615.8203 541.3252,526.8301 561.8047,526.8301 561.8047,615.8203 
									"/>
			</g>
			<g>
				<polygon fill="#FFFFFF" points="591.4648,615.8203 570.9849,615.8203 570.9849,526.8301 591.4648,526.8301 591.4648,615.8203 
									"/>
			</g>
			<g>
				<polygon fill="#FFFFFF" points="640.8848,615.8203 620.4053,615.8203 620.4053,526.8301 640.8848,526.8301 640.8848,615.8203 
									"/>
			</g>
			<g>
				<polygon fill="#FFFFFF" points="670.5449,615.8203 650.0645,615.8203 650.0645,526.8301 670.5449,526.8301 670.5449,615.8203 
									"/>
			</g>
			<g>
				<polygon fill="#FFFFFF" points="729.8652,615.8203 709.3848,615.8203 709.3848,526.8301 729.8652,526.8301 729.8652,615.8203 
									"/>
			</g>
		</g>
		<g>
			<g>
				<polygon fill="#FFFFFF" points="275.085,467.5098 254.605,467.5098 254.605,329.1001 275.085,329.1001 275.085,467.5098 				"/>
			</g>
			<g>
				<polygon fill="#FFFFFF" points="769.4248,467.5098 748.9453,467.5098 748.9453,329.1001 769.4248,329.1001 769.4248,467.5098 
									"/>
			</g>
			<g>
				<polygon fill="#FFFFFF" points="314.625,467.5098 294.145,467.5098 294.145,329.1001 314.625,329.1001 314.625,467.5098 				"/>
			</g>
			<g>
				<polygon fill="#FFFFFF" points="344.2852,467.5098 323.8047,467.5098 323.8047,329.1001 344.2852,329.1001 344.2852,467.5098 
									"/>
			</g>
			<g>
				<polygon fill="#FFFFFF" points="393.7051,467.5098 373.2246,467.5098 373.2246,329.1001 393.7051,329.1001 393.7051,467.5098 
									"/>
			</g>
			<g>
				<polygon fill="#FFFFFF" points="423.3848,467.5098 402.9053,467.5098 402.9053,329.1001 423.3848,329.1001 423.3848,467.5098 
									"/>
			</g>
			<g>
				<polygon fill="#FFFFFF" points="453.0449,467.5098 432.5649,467.5098 432.5649,329.1001 453.0449,329.1001 453.0449,467.5098 
									"/>
			</g>
			<g>
				<polygon fill="#FFFFFF" points="512.3652,467.5098 491.8848,467.5098 491.8848,329.1001 512.3652,329.1001 512.3652,467.5098 
									"/>
			</g>
			<g>
				<polygon fill="#FFFFFF" points="561.8047,467.5098 541.3252,467.5098 541.3252,329.1001 561.8047,329.1001 561.8047,467.5098 
									"/>
			</g>
			<g>
				<polygon fill="#FFFFFF" points="591.4648,467.5098 570.9849,467.5098 570.9849,329.1001 591.4648,329.1001 591.4648,467.5098 
									"/>
			</g>
			<g>
				<polygon fill="#FFFFFF" points="640.8848,467.5098 620.4053,467.5098 620.4053,329.1001 640.8848,329.1001 640.8848,467.5098 
									"/>
			</g>
			<g>
				<polygon fill="#FFFFFF" points="670.5449,467.5098 650.0645,467.5098 650.0645,329.1001 670.5449,329.1001 670.5449,467.5098 
									"/>
			</g>
			<g>
				<polygon fill="#FFFFFF" points="729.8652,467.5098 709.3848,467.5098 709.3848,329.1001 729.8652,329.1001 729.8652,467.5098 
									"/>
			</g>
		</g>
		<g>
			<g>
				<polygon fill="#FFFFFF" points="314.625,690.6797 294.145,690.6797 294.145,670.2002 314.625,670.2002 314.625,690.6797 				"/>
			</g>
			<g>
				<polygon fill="#FFFFFF" points="344.2852,690.6797 323.8047,690.6797 323.8047,670.2002 344.2852,670.2002 344.2852,690.6797 
									"/>
			</g>
			<g>
				<polygon fill="#FFFFFF" points="373.9448,690.6797 353.4648,690.6797 353.4648,670.2002 373.9448,670.2002 373.9448,690.6797 
									"/>
			</g>
			<g>
				<polygon fill="#FFFFFF" points="403.605,690.6797 383.125,690.6797 383.125,670.2002 403.605,670.2002 403.605,690.6797 				"/>
			</g>
			<g>
				<polygon fill="#FFFFFF" points="433.2646,690.6797 412.7852,690.6797 412.7852,670.2002 433.2646,670.2002 433.2646,690.6797 
									"/>
			</g>
			<g>
				<polygon fill="#FFFFFF" points="462.9248,690.6797 442.4448,690.6797 442.4448,670.2002 462.9248,670.2002 462.9248,690.6797 
									"/>
			</g>
			<g>
				<polygon fill="#FFFFFF" points="492.585,690.6797 472.105,690.6797 472.105,670.2002 492.585,670.2002 492.585,690.6797 				"/>
			</g>
			<g>
				<polygon fill="#FFFFFF" points="522.2451,690.6797 501.7646,690.6797 501.7646,670.2002 522.2451,670.2002 522.2451,690.6797 
									"/>
			</g>
			<g>
				<polygon fill="#FFFFFF" points="551.9053,690.6797 531.4248,690.6797 531.4248,670.2002 551.9053,670.2002 551.9053,690.6797 
									"/>
			</g>
			<g>
				<polygon fill="#FFFFFF" points="581.5649,690.6797 561.085,690.6797 561.085,670.2002 581.5649,670.2002 581.5649,690.6797 				
					"/>
			</g>
			<g>
				<polygon fill="#FFFFFF" points="611.2246,690.6797 590.7451,690.6797 590.7451,670.2002 611.2246,670.2002 611.2246,690.6797 
									"/>
			</g>
			<g>
				<polygon fill="#FFFFFF" points="640.8848,690.6797 620.4053,690.6797 620.4053,670.2002 640.8848,670.2002 640.8848,690.6797 
									"/>
			</g>
			<g>
				<polygon fill="#FFFFFF" points="670.5449,690.6797 650.0645,690.6797 650.0645,670.2002 670.5449,670.2002 670.5449,690.6797 
									"/>
			</g>
			<g>
				<polygon fill="#FFFFFF" points="700.2051,690.6797 679.7246,690.6797 679.7246,670.2002 700.2051,670.2002 700.2051,690.6797 
									"/>
			</g>
			<g>
				<polygon fill="#FFFFFF" points="729.8652,690.6797 709.3848,690.6797 709.3848,670.2002 729.8652,670.2002 729.8652,690.6797 
									"/>
			</g>
		</g>
		<g>
			<g>
				<polygon fill="#FFFFFF" points="294.5049,764.4697 215.0449,764.4697 215.0449,694.9102 235.5249,694.9102 235.5249,743.9902 
					294.5049,743.9902 294.5049,764.4697 				"/>
			</g>
			<g>
				<polygon fill="#FFFFFF" points="808.9648,764.4697 739.4053,764.4697 739.4053,743.9902 788.4844,743.9902 788.4844,694.9102 
					808.9648,694.9102 808.9648,764.4697 				"/>
			</g>
			<g>
				<polygon fill="#FFFFFF" points="808.9648,329.1001 788.4844,329.1001 788.4844,280.0098 729.5254,280.0098 729.5254,259.5303 
					808.9648,259.5303 808.9648,329.1001 				"/>
			</g>
			<g>
				<polygon fill="#FFFFFF" points="235.5249,329.1001 215.0449,329.1001 215.0449,259.5303 284.605,259.5303 284.605,280.0098 
					235.5249,280.0098 235.5249,329.1001 				"/>
			</g>
		</g>
		<g>
			<polygon fill="#FFFFFF" points="778.2451,507.4102 245.7646,507.4102 245.7646,486.9297 778.2451,486.9297 778.2451,507.4102 			
				"/>
		</g>
	</g>
</g>
</svg>
