<?xml version="1.0" encoding="utf-8"?>
<!-- Generator: Adobe Illustrator 17.1.0, SVG Export Plug-In . SVG Version: 6.00 Build 0)  -->
<!DOCTYPE svg PUBLIC "-//W3C//DTD SVG 1.1//EN" "http://www.w3.org/Graphics/SVG/1.1/DTD/svg11.dtd">
<svg version="1.1" id="secure-creditcard" xmlns="http://www.w3.org/2000/svg" xmlns:xlink="http://www.w3.org/1999/xlink" x="0px"
	 y="0px" viewBox="0 0 1024 1024" enable-background="new 0 0 1024 1024" xml:space="preserve">
<g>
	<g id="secure-creditcard-label">
		<rect fill="#4EC0B5" width="1024" height="1024"/>
	</g>
	<g id="secure-creditcard-secure-creditcard">
		<g>
			<g>
				<path fill="#FFFFFF" d="M741.8398,645.7998H524.5601v-20.4795h217.2797c17.25,0,31.2803-13.8906,31.2803-30.9599v-274.46
					c0-17.0606-14.0303-30.9404-31.2803-30.9404H340.3999c-17.2603,0-31.3003,13.8798-31.3003,30.9404V447.46h-20.4795V319.9004
					c0-28.3506,23.2295-51.4204,51.7798-51.4204h401.4399c28.5401,0,51.7598,23.0698,51.7598,51.4204v274.46
					C793.5996,622.7197,770.3799,645.7998,741.8398,645.7998L741.8398,645.7998z"/>
			</g>
			<g>
				<polygon fill="#FFFFFF" points="783.4395,351.8203 303.0801,351.8203 303.0801,331.3398 783.4395,331.3398 783.4395,351.8203 
									"/>
			</g>
			<g>
				<polygon fill="#FFFFFF" points="783.4395,406.7197 303.0801,406.7197 303.0801,386.2402 783.4395,386.2402 783.4395,406.7197 
									"/>
			</g>
			<g>
				<polygon fill="#FFFFFF" points="742.8203,511.96 570.7002,511.96 570.7002,491.4805 742.8203,491.4805 742.8203,511.96 				"/>
			</g>
			<g>
				<polygon fill="#FFFFFF" points="609.7402,566.8799 536.5601,566.8799 536.5601,546.4004 609.7402,546.4004 609.7402,566.8799 
									"/>
			</g>
			<g>
				<polygon fill="#FFFFFF" points="742.8203,566.8799 626.3799,566.8799 626.3799,546.4004 742.8203,546.4004 742.8203,566.8799 
									"/>
			</g>
		</g>
		<g>
			<g>
				<path fill="#FFFFFF" d="M384.645,755.6797c-3.7451,0-7.0952-2.1992-8.8852-5.4795c-4.0948-5.25-32.2149-19.25-78.3545-35.9902
					c-3.7603-1.3995-7.8057-2.3995-12.1006-3.0098c-16.2998-2.2305-30.0645-12.7402-39.7598-30.3897
					c-10.8701-19.8408-13.79-43.4501-8.2402-66.4902c5.8003-24.0801,15.8506-47.4599,16.2754-48.4404
					c16.6602-39.9795-16.7998-60.7695-18.2354-61.6397c-2.7051-1.6298-4.5-4.4199-4.875-7.5507
					c-0.3701-3.1397,0.7256-6.2696,2.9702-8.4893l48.5801-48.04c1.9151-1.9004,4.5049-2.96,7.1997-2.96h191.0606
					c2.6943,0,5.2846,1.0596,7.1997,2.96l48.56,48.04c2.2452,2.2197,3.3399,5.3496,2.9698,8.4893
					c-0.375,3.1308-2.17,5.9209-4.875,7.5507C532.75,505.0996,499.395,526.29,515.9502,566
					c0.375,0.8604,10.4248,24.25,16.2051,48.3301c5.5796,23.04,2.6596,46.6601-8.2202,66.4804
					c-9.6949,17.6495-23.4502,28.1592-39.7852,30.3995c-4.25,0.5898-8.3003,1.6005-12.0049,2.9697
					c-46.4502,16.8398-74.6304,30.9101-78.4897,36.1103C391.8999,753.7002,388.48,755.6797,384.645,755.6797L384.645,755.6797z
					 M256.1553,494.54c15.7695,14.6905,31.5947,42.5899,16.2744,79.3399c-0.1445,0.3506-9.8398,22.9101-15.2148,45.2402
					c-4.355,18.0801-2.125,36.4903,6.2852,51.8399c6.5352,11.9004,14.8252,18.6103,24.6299,19.9502
					c5.79,0.83,11.27,2.1894,16.3349,4.0703c48.7452,17.6894,70.3653,29,80.3501,36.1699
					c10.1148-7.2207,31.8702-18.6504,80.2749-36.2002c5.0098-1.8604,10.5-3.2197,16.2452-4.0303
					c9.8252-1.3496,18.1098-8.0703,24.6499-19.9697c8.415-15.3301,10.6401-33.7305,6.2602-51.8203
					C506.8848,596.79,497.1948,574.2305,497.0996,574c-15.3594-36.8496,0.4605-64.7695,16.2305-79.46l-37.2603-36.8603H293.4297
					L256.1553,494.54L256.1553,494.54z"/>
			</g>
			<g>
				<g>
					<path fill="#FFFFFF" d="M384.7402,677.4199c-47.9951,0-87.04-39.0498-87.04-87.04c0-47.9893,39.0449-87.0401,87.04-87.0401
						c47.9947,0,87.0401,39.0508,87.0401,87.0401C471.7803,638.3701,432.7349,677.4199,384.7402,677.4199L384.7402,677.4199z
						 M384.7402,523.8203c-36.7002,0-66.5605,29.8594-66.5605,66.5596s29.8603,66.5596,66.5605,66.5596
						c36.6997,0,66.5596-29.8594,66.5596-66.5596S421.4399,523.8203,384.7402,523.8203L384.7402,523.8203z"/>
				</g>
				<g>
					<path fill="#FFFFFF" d="M373.6699,633.7998c-2.98,0-5.8252-1.2998-7.7749-3.5801l-22.1201-25.8193
						c-3.6802-4.29-3.1802-10.7598,1.1147-14.4404c4.3003-3.6797,10.7603-3.1797,14.4356,1.1201l13.3247,15.5498l36.7603-55.1104
						c3.1347-4.709,9.4848-5.9796,14.1997-2.8398c4.705,3.1406,5.9751,9.5,2.8403,14.2002l-44.2603,66.3603
						c-1.7797,2.67-4.705,4.3496-7.9047,4.5401C374.0801,633.79,373.875,633.7998,373.6699,633.7998L373.6699,633.7998z"/>
				</g>
			</g>
		</g>
	</g>
</g>
</svg>
