<?xml version="1.0" encoding="utf-8"?>
<!-- Generator: Adobe Illustrator 17.1.0, SVG Export Plug-In . SVG Version: 6.00 Build 0)  -->
<!DOCTYPE svg PUBLIC "-//W3C//DTD SVG 1.1//EN" "http://www.w3.org/Graphics/SVG/1.1/DTD/svg11.dtd">
<svg version="1.1" id="shopping-bag" xmlns="http://www.w3.org/2000/svg" xmlns:xlink="http://www.w3.org/1999/xlink" x="0px"
	 y="0px" viewBox="0 0 1024 1024" enable-background="new 0 0 1024 1024" xml:space="preserve">
<g>
	<g id="shopping-bag-label">
		<rect fill="#F16750" width="1024" height="1024"/>
	</g>
	<g id="shopping-bag-shopping-bag">
		<g>
			<path fill="#FFFFFF" d="M783.3701,793.5996H240.6299c-3.2901,0-6.3799-1.5801-8.2998-4.2598
				c-1.9302-2.6601-2.4502-6.0996-1.4102-9.2197l117.98-353.9399c1.3901-4.1802,5.3003-7,9.71-7h306.77
				c4.4101,0,8.3203,2.8198,9.7197,7l117.9805,353.9399c1.0498,3.1201,0.5195,6.5596-1.4004,9.2197
				C789.75,792.0195,786.6602,793.5996,783.3701,793.5996L783.3701,793.5996z M254.8398,773.1201h514.3204L658,439.6602H365.9902
				L254.8398,773.1201L254.8398,773.1201z"/>
		</g>
		<g>
			<path fill="#FFFFFF" d="M611.7002,486.8398c-5.6504,0-10.2402-4.58-10.2402-10.2402V316.04
				c0-53.8598-42.2404-65.1601-77.6797-65.1601h-23.5904c-41.8003,0-90.6201,17.06-90.6201,65.1601v160.5596
				c0,5.6602-4.5796,10.2402-10.2397,10.2402c-5.6504,0-10.2403-4.58-10.2403-10.2402V316.04
				c0-52.02,43.6104-85.6396,111.1001-85.6396h23.5904c62.3799,0,98.1592,31.2197,98.1592,85.6396v160.5596
				C621.9395,482.2598,617.3594,486.8398,611.7002,486.8398L611.7002,486.8398z"/>
		</g>
		<g>
			<path fill="#FFFFFF" d="M706.0801,722.8105H328.5498c-5.6499,0-10.2397-4.5908-10.2397-10.2402
				c0-5.6504,4.5898-10.2402,10.2397-10.2402h377.5303c5.6601,0,10.2402,4.5898,10.2402,10.2402
				C716.3203,718.2197,711.7402,722.8105,706.0801,722.8105L706.0801,722.8105z"/>
		</g>
		<g>
			<path fill="#FFFFFF" d="M682.4805,652.0195H352.1396c-5.6494,0-10.2397-4.58-10.2397-10.2393
				c0-5.6602,4.5903-10.2403,10.2397-10.2403h330.3409c5.6591,0,10.2392,4.5801,10.2392,10.2403
				C692.7197,647.4395,688.1396,652.0195,682.4805,652.0195L682.4805,652.0195z"/>
		</g>
		<g>
			<path fill="#FFFFFF" d="M658.8896,581.2305H375.7402c-5.6504,0-10.2402-4.5899-10.2402-10.2403
				c0-5.6505,4.5898-10.2402,10.2402-10.2402h283.1494c5.6602,0,10.2403,4.5898,10.2403,10.2402
				C669.1299,576.6406,664.5498,581.2305,658.8896,581.2305L658.8896,581.2305z"/>
		</g>
	</g>
</g>
</svg>
