<?xml version="1.0" encoding="utf-8"?>
<!-- Generator: Adobe Illustrator 17.1.0, SVG Export Plug-In . SVG Version: 6.00 Build 0)  -->
<!DOCTYPE svg PUBLIC "-//W3C//DTD SVG 1.1//EN" "http://www.w3.org/Graphics/SVG/1.1/DTD/svg11.dtd">
<svg version="1.1" id="sign-open" xmlns="http://www.w3.org/2000/svg" xmlns:xlink="http://www.w3.org/1999/xlink" x="0px" y="0px"
	 viewBox="0 0 1024 1024" enable-background="new 0 0 1024 1024" xml:space="preserve">
<g>
	<g id="sign-open-label">
		<rect fill="#B6D161" width="1024" height="1024"/>
	</g>
	<g id="sign-open-sign-open">
		<g>
			<g>
				<path fill="#FFFFFF" d="M343.6099,492.9004c-2.3697,0-4.75-0.8203-6.69-2.4805c-4.2803-3.7002-4.7597-10.1699-1.06-14.4502
					l141.08-163.5097c3.6802-4.2798,10.1402-4.7598,14.44-1.0596c4.2803,3.6894,4.7597,10.1597,1.06,14.4394l-141.08,163.5098
					C349.3398,491.7002,346.48,492.9004,343.6099,492.9004L343.6099,492.9004z"/>
			</g>
		</g>
		<g>
			<g>
				<path fill="#FFFFFF" d="M679.25,492.9004c-2.8701,0-5.7305-1.2002-7.75-3.5508L530.4199,325.8398
					c-3.7003-4.2797-3.2197-10.75,1.0601-14.4394c4.29-3.7002,10.7397-3.2202,14.4399,1.0596L687,475.9697
					c3.7002,4.2803,3.2197,10.75-1.0605,14.4502C684,492.0801,681.6201,492.9004,679.25,492.9004L679.25,492.9004z"/>
			</g>
		</g>
		<g>
			<path fill="#FFFFFF" d="M736.8594,764.5605H287.1602c-31.3003,0-56.7603-25.1602-56.7603-56.1005V528.7803
				c0-30.9405,25.46-56.1201,56.7603-56.1201h449.6992c31.291,0,56.7402,25.1796,56.7402,56.1201V708.46
				C793.5996,739.4004,768.1504,764.5605,736.8594,764.5605L736.8594,764.5605z M287.1602,493.1406
				c-20,0-36.2803,15.9893-36.2803,35.6397V708.46c0,19.6396,16.2803,35.6201,36.2803,35.6201h449.6992
				c19.9902,0,36.2607-15.9805,36.2607-35.6201V528.7803c0-19.6504-16.2705-35.6397-36.2607-35.6397H287.1602L287.1602,493.1406z"/>
		</g>
		<g>
			<path fill="#FFFFFF" d="M409.3999,621.0605c0,28.6797-23.3003,50.92-53.3398,50.92c-30.0401,0-53.3199-22.2404-53.3199-50.92
				c0-28.83,23.2798-50.6308,53.3199-50.6308C386.0996,570.4297,409.3999,592.3799,409.3999,621.0605z M319.98,621.0605
				c0,19.9395,16.54,35.7198,36.2202,35.7198C375.8999,656.7803,392,641,392,621.0605c0-19.9404-16.1001-35.4199-35.7998-35.4199
				C336.3701,585.6406,319.98,601.1201,319.98,621.0605z"/>
			<path fill="#FFFFFF" d="M469.0801,570.8604c25.2998,0,39.8198,12.4794,39.8198,34.2802c0,22.6592-14.52,35.8594-39.8198,35.8594
				h-23.1402v30.2598H428.98V570.8604H469.0801z M445.9399,625.7998h22.42c15.52,0,24.29-6.5996,24.29-20.2295
				c0-13.1904-8.77-19.5098-24.29-19.5098h-22.42V625.7998z"/>
			<path fill="#FFFFFF" d="M544.1299,586.0605v27.1192h49.1699v15.2002h-49.1699v27.6806h56.6396v15.1993h-73.5995V570.8604H599.04
				v15.2001H544.1299z"/>
			<path fill="#FFFFFF" d="M693.5098,671.2598l-53.6202-72v72h-16.9697V570.8604h16.6797L693.5098,643v-72.1396h16.6699v100.3994
				H693.5098z"/>
		</g>
		<g>
			<g>
				<polygon fill="#FFFFFF" points="302.0801,536.6895 281.5996,536.6895 281.5996,516.21 302.0801,516.21 302.0801,536.6895 				
					"/>
			</g>
			<g>
				<polygon fill="#FFFFFF" points="302.0801,721.0098 281.5996,721.0098 281.5996,700.5303 302.0801,700.5303 302.0801,721.0098 
									"/>
			</g>
			<g>
				<polygon fill="#FFFFFF" points="742.4004,536.6895 721.9199,536.6895 721.9199,516.21 742.4004,516.21 742.4004,536.6895 				
					"/>
			</g>
			<g>
				<polygon fill="#FFFFFF" points="742.4004,721.0098 721.9199,721.0098 721.9199,700.5303 742.4004,700.5303 742.4004,721.0098 
									"/>
			</g>
		</g>
		<g>
			<path fill="#FFFFFF" d="M511.4399,344.1602c-23.3598,0-42.3701-19-42.3701-42.3604c0-23.3599,19.0103-42.3599,42.3701-42.3599
				c23.3599,0,42.3702,19,42.3702,42.3599C553.8101,325.1602,534.7998,344.1602,511.4399,344.1602L511.4399,344.1602z
				 M511.4399,279.9199c-12.0698,0-21.8901,9.8203-21.8901,21.8799c0,12.0606,9.8203,21.8804,21.8901,21.8804
				c12.0699,0,21.8902-9.8198,21.8902-21.8804C533.3301,289.7402,523.5098,279.9199,511.4399,279.9199L511.4399,279.9199z"/>
		</g>
	</g>
</g>
</svg>
