<?xml version="1.0" encoding="utf-8"?>
<!-- Generator: Adobe Illustrator 17.1.0, SVG Export Plug-In . SVG Version: 6.00 Build 0)  -->
<!DOCTYPE svg PUBLIC "-//W3C//DTD SVG 1.1//EN" "http://www.w3.org/Graphics/SVG/1.1/DTD/svg11.dtd">
<svg version="1.1" id="wish-list" xmlns="http://www.w3.org/2000/svg" xmlns:xlink="http://www.w3.org/1999/xlink" x="0px" y="0px"
	 viewBox="0 0 1024 1024" enable-background="new 0 0 1024 1024" xml:space="preserve">
<g>
	<g id="wish-list-label">
		<rect fill="#F16750" width="1024" height="1024"/>
	</g>
	<g id="wish-list-wish-list">
		<g>
			<g>
				<path fill="#FFFFFF" d="M712.5752,793.5996H311.4351c-5.6548,0-10.2398-4.5801-10.2398-10.2392V366.0098
					c0-2.67,1.0449-5.2398,2.9097-7.1494l122.23-125.3702c1.9248-1.9804,4.5703-3.0898,7.33-3.0898h278.9102
					c5.6553,0,10.2393,4.5796,10.2393,10.2397v542.7203C722.8145,789.0195,718.2305,793.5996,712.5752,793.5996L712.5752,793.5996z
					 M321.6748,773.1201H702.335V250.8799H437.9849L321.6748,370.1802V773.1201L321.6748,773.1201z"/>
			</g>
			<g>
				<path fill="#FFFFFF" d="M441.2148,392.46H323.2349c-5.6548,0-10.2398-4.5801-10.2398-10.2403
					c0-5.6596,4.585-10.2397,10.2398-10.2397h107.7397V252.4399c0-5.6596,4.5855-10.2397,10.2402-10.2397
					c5.6553,0,10.2403,4.5801,10.2403,10.2397v129.7798C451.4551,387.8799,446.8701,392.46,441.2148,392.46L441.2148,392.46z"/>
			</g>
		</g>
		<g>
			<path fill="#FFFFFF" d="M575.3047,617.3301c-2.1397,0-4.2744-0.6699-6.085-2l-57.2798-42.2997L454.7051,614.29
				c-3.6104,2.6104-8.4854,2.5596-12.0752-0.0703c-3.5801-2.6494-5.0401-7.2998-3.6153-11.5195l21.7002-64.1699l-56.875-38.75
				c-3.7148-2.5303-5.3447-7.1807-4.02-11.4805c1.3252-4.29,5.2901-7.2197,9.7852-7.2197h70.79l21.8799-67.3301
				c1.3701-4.2197,5.3052-7.0801,9.7397-7.0801l0,0c4.4356,0,8.3702,2.8604,9.7403,7.0801l21.8701,67.3301h70.7803
				c4.4951,0,8.4697,2.9297,9.79,7.2304c1.3193,4.2999-0.3203,8.959-4.04,11.4795l-56.8804,38.5899l21.75,65.4805
				c1.4048,4.2392-0.0952,8.8994-3.7051,11.5195C579.5249,616.6797,577.415,617.3301,575.3047,617.3301L575.3047,617.3301z
				 M512.0146,550.1104c2.1407,0,4.2754,0.6699,6.085,2l37.3057,27.5498l-14.0103-42.17
				c-1.4399-4.3496,0.1802-9.1298,3.9702-11.7003l35.71-24.2295h-44.8901c-4.4351,0-8.3702-2.8603-9.7404-7.08l-14.4302-44.4307
				l-14.4394,44.4307c-1.3701,4.2197-5.3052,7.08-9.7402,7.08h-45.0098l35.8447,24.42c3.7998,2.58,5.4102,7.3896,3.9351,11.7392
				l-13.9497,41.2608l37.3696-26.9406C507.8149,550.75,509.915,550.1104,512.0146,550.1104L512.0146,550.1104z"/>
		</g>
	</g>
</g>
</svg>
