<?xml version="1.0" encoding="iso-8859-1"?>
<!-- Generator: Adobe Illustrator 16.0.0, SVG Export Plug-In . SVG Version: 6.00 Build 0)  -->
<!DOCTYPE svg PUBLIC "-//W3C//DTD SVG 1.1//EN" "http://www.w3.org/Graphics/SVG/1.1/DTD/svg11.dtd">
<svg version="1.1" id="Capa_1" xmlns="http://www.w3.org/2000/svg" xmlns:xlink="http://www.w3.org/1999/xlink" x="0px" y="0px"
	 width="512px" height="512px" viewBox="0 0 512 512" style="enable-background:new 0 0 512 512;" xml:space="preserve">
<g>
	<path d="M336,64h-64V32c0-17.6-14.4-32-32-32h-64c-17.602,0-32,14.4-32,32v32H80v64h256V64z M240,64h-64V32.057
		c0.017-0.019,0.036-0.039,0.057-0.057h63.884c0.021,0.018,0.041,0.038,0.059,0.057V64z M400,160V80c0-8.8-7.199-16-16-16h-32v32h16
		v64H176v224H48V96h16V64H32c-8.801,0-16,7.2-16,16v320c0,8.8,7.199,16,16,16h144v96h224l96-96V160H400z M400,466.745V416h50.744
		L400,466.745z M464,384h-96v96H208V192h256V384z"/>
</g>
<g>
</g>
<g>
</g>
<g>
</g>
<g>
</g>
<g>
</g>
<g>
</g>
<g>
</g>
<g>
</g>
<g>
</g>
<g>
</g>
<g>
</g>
<g>
</g>
<g>
</g>
<g>
</g>
<g>
</g>
</svg>
