<?xml version="1.0" encoding="iso-8859-1"?>
<!-- Generator: Adobe Illustrator 16.0.0, SVG Export Plug-In . SVG Version: 6.00 Build 0)  -->
<!DOCTYPE svg PUBLIC "-//W3C//DTD SVG 1.1//EN" "http://www.w3.org/Graphics/SVG/1.1/DTD/svg11.dtd">
<svg version="1.1" id="Capa_1" xmlns="http://www.w3.org/2000/svg" xmlns:xlink="http://www.w3.org/1999/xlink" x="0px" y="0px"
	 width="512px" height="512px" viewBox="0 0 512 512" style="enable-background:new 0 0 512 512;" xml:space="preserve">
<g>
	<path d="M224,397.255L121.373,278.628l29.254-29.255L224,306.745l137.371-121.372l29.258,29.254L224,397.255z M415.887,64
		c0.039,0.033,0.08,0.075,0.113,0.115v383.771c-0.033,0.039-0.074,0.081-0.113,0.114H96.114c-0.04-0.033-0.081-0.075-0.114-0.114
		V64.114c0.033-0.04,0.075-0.081,0.115-0.114H32v384c0,35.2,28.8,64,64,64h320c35.199,0,64-28.8,64-64V64H415.887z M320,64V32
		c0-17.673-14.326-32-32-32h-64c-17.673,0-32,14.327-32,32v32h-64v64h256V64H320z M288,64h-64V32h64V64z"/>
</g>
<g>
</g>
<g>
</g>
<g>
</g>
<g>
</g>
<g>
</g>
<g>
</g>
<g>
</g>
<g>
</g>
<g>
</g>
<g>
</g>
<g>
</g>
<g>
</g>
<g>
</g>
<g>
</g>
<g>
</g>
</svg>
