<?xml version="1.0" encoding="iso-8859-1"?>
<!-- Generator: Adobe Illustrator 16.0.0, SVG Export Plug-In . SVG Version: 6.00 Build 0)  -->
<!DOCTYPE svg PUBLIC "-//W3C//DTD SVG 1.1//EN" "http://www.w3.org/Graphics/SVG/1.1/DTD/svg11.dtd">
<svg version="1.1" id="Capa_1" xmlns="http://www.w3.org/2000/svg" xmlns:xlink="http://www.w3.org/1999/xlink" x="0px" y="0px"
	 width="512px" height="512px" viewBox="0 0 512 512" style="enable-background:new 0 0 512 512;" xml:space="preserve">
<g>
	<path d="M393.414,196.386c-29.516,0-56.043,12.298-74.926,32.347c-7.998,8.492-21.881,18.556-36.899,27.406
		c7.056-26.935,29.339-60.851,44.813-75.729c19.82-19.085,31.992-45.915,31.992-75.75C358.398,47.213,312.656,0.612,256.001,0
		c-56.66,0.611-102.398,47.213-102.398,104.659c0,29.836,12.172,56.665,31.993,75.75c15.477,14.878,37.76,48.794,44.814,75.728
		c-15.021-8.85-28.903-18.913-36.9-27.405c-18.884-20.049-45.41-32.347-74.925-32.347c-57.193,0-103.54,46.832-103.54,104.664
		c0,57.819,46.346,104.669,103.54,104.669c29.521,0,56.041-12.678,74.925-32.726c8.402-8.936,23.222-20.069,39.146-29.316
		c-1.501,73.848-36.766,128.084-72.659,149.453V512h96.005h96.002v-18.87c-35.896-21.368-71.158-75.606-72.658-149.453
		c15.926,9.247,30.742,20.384,39.145,29.316c18.885,20.047,45.404,32.726,74.928,32.726c57.191,0,103.537-46.85,103.537-104.669
		C496.953,243.218,450.609,196.386,393.414,196.386z"/>
</g>
<g>
</g>
<g>
</g>
<g>
</g>
<g>
</g>
<g>
</g>
<g>
</g>
<g>
</g>
<g>
</g>
<g>
</g>
<g>
</g>
<g>
</g>
<g>
</g>
<g>
</g>
<g>
</g>
<g>
</g>
</svg>
