<?xml version="1.0" encoding="iso-8859-1"?>
<!-- Generator: Adobe Illustrator 16.0.0, SVG Export Plug-In . SVG Version: 6.00 Build 0)  -->
<!DOCTYPE svg PUBLIC "-//W3C//DTD SVG 1.1//EN" "http://www.w3.org/Graphics/SVG/1.1/DTD/svg11.dtd">
<svg version="1.1" id="Capa_1" xmlns="http://www.w3.org/2000/svg" xmlns:xlink="http://www.w3.org/1999/xlink" x="0px" y="0px"
	 width="512px" height="512px" viewBox="0 0 512 512" style="enable-background:new 0 0 512 512;" xml:space="preserve">
<g>
	<path d="M466.895,305.126c-26.862-46.526-10.708-106.152,36.076-133.244l-50.312-87.146c-14.375,8.427-31.088,13.259-48.923,13.259
		c-53.769,0-97.354-43.873-97.354-97.995h-100.63c0.133,16.705-4.037,33.641-12.979,49.126
		c-26.862,46.528-86.578,62.351-133.431,35.379L9.029,171.651c14.485,8.236,27.025,20.294,35.943,35.739
		C71.792,253.844,55.729,313.35,9.119,340.502l50.313,87.146c14.325-8.348,30.958-13.126,48.7-13.126
		c53.598,0,97.072,43.597,97.35,97.479h100.627c-0.043-16.537,4.136-33.285,12.982-48.609
		c26.817-46.453,86.389-62.297,133.207-35.506l50.312-87.146C488.222,332.507,475.766,320.491,466.895,305.126z M256,359.667
		c-57.254,0-103.668-46.412-103.668-103.667c0-57.254,46.413-103.667,103.668-103.667c57.254,0,103.667,46.413,103.667,103.667
		C359.664,313.255,313.254,359.667,256,359.667z"/>
</g>
<g>
</g>
<g>
</g>
<g>
</g>
<g>
</g>
<g>
</g>
<g>
</g>
<g>
</g>
<g>
</g>
<g>
</g>
<g>
</g>
<g>
</g>
<g>
</g>
<g>
</g>
<g>
</g>
<g>
</g>
</svg>
