<?xml version="1.0" encoding="iso-8859-1"?>
<!-- Generator: Adobe Illustrator 16.0.0, SVG Export Plug-In . SVG Version: 6.00 Build 0)  -->
<!DOCTYPE svg PUBLIC "-//W3C//DTD SVG 1.1//EN" "http://www.w3.org/Graphics/SVG/1.1/DTD/svg11.dtd">
<svg version="1.1" id="Capa_1" xmlns="http://www.w3.org/2000/svg" xmlns:xlink="http://www.w3.org/1999/xlink" x="0px" y="0px"
	 width="512px" height="512px" viewBox="0 0 512 512" style="enable-background:new 0 0 512 512;" xml:space="preserve">
<g>
	<path d="M256,0C114.615,0,0,114.615,0,256s114.613,256,256,256c141.385,0,256-114.615,256-256S397.385,0,256,0z M352,128
		c17.674,0,32,14.327,32,32s-14.326,32-32,32s-32-14.327-32-32S334.326,128,352,128z M160,128c17.673,0,32,14.327,32,32
		s-14.327,32-32,32s-32-14.327-32-32S142.327,128,160,128z M343.506,405.279c-41.451,15.091-87.451-6.355-102.541-47.807
		c-9.054-24.871-36.653-37.738-61.524-28.687c-22.781,8.294-35.479,32.147-30.494,55.212h-32.43
		c-4.622-36.254,16.225-72.268,51.978-85.28c41.452-15.09,87.451,6.356,102.541,47.808c9.054,24.871,36.653,37.738,61.522,28.686
		c22.781-8.292,35.479-32.146,30.494-55.211h32.432C400.105,356.253,379.258,392.266,343.506,405.279z"/>
</g>
<g>
</g>
<g>
</g>
<g>
</g>
<g>
</g>
<g>
</g>
<g>
</g>
<g>
</g>
<g>
</g>
<g>
</g>
<g>
</g>
<g>
</g>
<g>
</g>
<g>
</g>
<g>
</g>
<g>
</g>
</svg>
