<?xml version="1.0" encoding="iso-8859-1"?>
<!-- Generator: Adobe Illustrator 16.0.0, SVG Export Plug-In . SVG Version: 6.00 Build 0)  -->
<!DOCTYPE svg PUBLIC "-//W3C//DTD SVG 1.1//EN" "http://www.w3.org/Graphics/SVG/1.1/DTD/svg11.dtd">
<svg version="1.1" id="Capa_1" xmlns="http://www.w3.org/2000/svg" xmlns:xlink="http://www.w3.org/1999/xlink" x="0px" y="0px"
	 width="633.568px" height="633.568px" viewBox="0 0 633.568 633.568" style="enable-background:new 0 0 633.568 633.568;"
	 xml:space="preserve">
<g>
	<path d="M316.785,348.784c52.934,0,100.934,21.533,135.7,56.299l-45.232,45.234c-23.178-23.178-55.18-37.533-90.467-37.533
		c-35.29,0-67.29,14.355-90.467,37.533l-45.234-45.234C215.849,370.317,263.849,348.784,316.785,348.784z M90.51,314.51
		c60.44-60.44,140.799-93.726,226.274-93.726c85.475,0,165.834,33.286,226.274,93.726l-45.254,45.254l0,0
		c-48.354-48.353-112.641-74.98-181.02-74.98c-68.381,0-132.667,26.628-181.02,74.98L90.51,314.51z M491.176,128.003
		c53.352,22.566,101.26,54.864,142.393,95.998l0,0l-45.254,45.254c-72.529-72.528-168.961-112.471-271.53-112.471
		c-102.57,0-199,39.943-271.529,112.471L0,224c41.134-41.133,89.041-73.431,142.392-95.997
		c55.252-23.369,113.926-35.219,174.393-35.219C377.25,92.784,435.924,104.634,491.176,128.003z M284.784,508.784
		c0,17.673,14.327,32,32,32c17.672,0,32-14.327,32-32s-14.328-32-32-32C299.111,476.784,284.784,491.111,284.784,508.784z"/>
</g>
<g>
</g>
<g>
</g>
<g>
</g>
<g>
</g>
<g>
</g>
<g>
</g>
<g>
</g>
<g>
</g>
<g>
</g>
<g>
</g>
<g>
</g>
<g>
</g>
<g>
</g>
<g>
</g>
<g>
</g>
</svg>
