<?xml version="1.0" encoding="iso-8859-1"?>
<!-- Generator: Adobe Illustrator 16.0.0, SVG Export Plug-In . SVG Version: 6.00 Build 0)  -->
<!DOCTYPE svg PUBLIC "-//W3C//DTD SVG 1.1//EN" "http://www.w3.org/Graphics/SVG/1.1/DTD/svg11.dtd">
<svg version="1.1" id="Capa_1" xmlns="http://www.w3.org/2000/svg" xmlns:xlink="http://www.w3.org/1999/xlink" x="0px" y="0px"
	 width="512px" height="512px" viewBox="0 0 512 512" style="enable-background:new 0 0 512 512;" xml:space="preserve">
<g>
	<path d="M280.928,203.5c-19.521-1.141-42.041,0.024-68.125,4.475l60.167,108.444L512,250.786
		c-2.577-6.13-6.344-12.113-11.331-17.899c-24.737-28.639-78.37-54.187-136.803-65.709l0.001-0.013
		c-57.321-13.437-119.401-12.872-182.979-3.274c-2.292,0.344-4.572,0.711-6.84,1.092l-21.136-39.146
		c-20.571,2.746-39.904,7.025-57.803,12.737l20.13,42.099c-32.88,12.738-59.861,30.88-79.329,52.716
		C3.804,269.921-8.885,315.843,6.537,360.563c3.102,9.021,7.294,17.58,12.468,25.6l239.034-65.648L191.664,197.59
		c2.279-0.44,4.598-0.884,6.964-1.312c107.341-19.149,166.051,10.432,198.208,41.915l-81.779,19.826L280.928,203.5z M87.361,313.194
		c-7.379-33.676-1.506-71.262,45.202-96.296l36.569,76.474L87.361,313.194z"/>
</g>
<g>
</g>
<g>
</g>
<g>
</g>
<g>
</g>
<g>
</g>
<g>
</g>
<g>
</g>
<g>
</g>
<g>
</g>
<g>
</g>
<g>
</g>
<g>
</g>
<g>
</g>
<g>
</g>
<g>
</g>
</svg>
