<?xml version="1.0" encoding="iso-8859-1"?>
<!-- Generator: Adobe Illustrator 16.0.0, SVG Export Plug-In . SVG Version: 6.00 Build 0)  -->
<!DOCTYPE svg PUBLIC "-//W3C//DTD SVG 1.1//EN" "http://www.w3.org/Graphics/SVG/1.1/DTD/svg11.dtd">
<svg version="1.1" id="Capa_1" xmlns="http://www.w3.org/2000/svg" xmlns:xlink="http://www.w3.org/1999/xlink" x="0px" y="0px"
	 width="448px" height="448px" viewBox="0 0 448 448" style="enable-background:new 0 0 448 448;" xml:space="preserve">
<g>
	<path d="M41.373,278.627l160,160c12.496,12.497,32.758,12.497,45.255,0l160-160c12.495-12.497,12.495-32.758,0-45.255
		c-12.497-12.497-32.759-12.497-45.256,0L256,338.745V32c0-17.673-14.327-32-32-32c-17.673,0-32,14.327-32,32v306.745
		L86.627,233.372C80.379,227.124,72.189,224,64,224s-16.379,3.124-22.627,9.372C28.876,245.869,28.876,266.13,41.373,278.627z"/>
</g>
<g>
</g>
<g>
</g>
<g>
</g>
<g>
</g>
<g>
</g>
<g>
</g>
<g>
</g>
<g>
</g>
<g>
</g>
<g>
</g>
<g>
</g>
<g>
</g>
<g>
</g>
<g>
</g>
<g>
</g>
</svg>
