<?xml version="1.0" encoding="iso-8859-1"?>
<!-- Generator: Adobe Illustrator 16.0.0, SVG Export Plug-In . SVG Version: 6.00 Build 0)  -->
<!DOCTYPE svg PUBLIC "-//W3C//DTD SVG 1.1//EN" "http://www.w3.org/Graphics/SVG/1.1/DTD/svg11.dtd">
<svg version="1.1" id="Capa_1" xmlns="http://www.w3.org/2000/svg" xmlns:xlink="http://www.w3.org/1999/xlink" x="0px" y="0px"
	 width="512px" height="512px" viewBox="0 0 512 512" style="enable-background:new 0 0 512 512;" xml:space="preserve">
<g>
	<path d="M447.969,316.751c-0.006-0.353-0.016-0.701-0.021-1.053c-0.016-0.714-0.035-1.427-0.059-2.14
		C442.875,155.734,255.999,0,255.999,0S69.122,155.734,64.109,313.561c-0.022,0.715-0.044,1.426-0.06,2.143
		c-0.007,0.354-0.015,0.699-0.021,1.053c-0.018,1.08-0.028,2.162-0.028,3.248c0,1.186,0.014,2.36,0.035,3.539
		c0.002,0.1,0.003,0.193,0.007,0.293C66.081,428.101,151.24,512,255.999,512s189.917-83.899,191.96-188.168
		c0.002-0.098,0.004-0.196,0.004-0.293c0.021-1.178,0.037-2.357,0.037-3.539C448,318.914,447.986,317.832,447.969,316.751z
		 M383.975,322.37l-0.004,0.203c-0.658,33.643-14.268,65.167-38.312,88.772C321.586,434.983,289.742,448,255.999,448
		c-6.231,0-12.397-0.447-18.462-1.319c69.527-41.423,116.107-117.352,116.107-204.161c0-9.728-0.59-19.317-1.727-28.74
		c20.137,36.97,31.031,71.399,32.002,101.812l0.002,0.072c0.016,0.474,0.025,0.946,0.039,1.422l0.014,0.724
		C383.988,318.539,384,319.27,384,320C384,320.792,383.988,321.581,383.975,322.37z"/>
</g>
<g>
</g>
<g>
</g>
<g>
</g>
<g>
</g>
<g>
</g>
<g>
</g>
<g>
</g>
<g>
</g>
<g>
</g>
<g>
</g>
<g>
</g>
<g>
</g>
<g>
</g>
<g>
</g>
<g>
</g>
</svg>
