<?xml version="1.0" encoding="iso-8859-1"?>
<!-- Generator: Adobe Illustrator 16.0.0, SVG Export Plug-In . SVG Version: 6.00 Build 0)  -->
<!DOCTYPE svg PUBLIC "-//W3C//DTD SVG 1.1//EN" "http://www.w3.org/Graphics/SVG/1.1/DTD/svg11.dtd">
<svg version="1.1" id="Capa_1" xmlns="http://www.w3.org/2000/svg" xmlns:xlink="http://www.w3.org/1999/xlink" x="0px" y="0px"
	 width="512px" height="512px" viewBox="0 0 512 512" style="enable-background:new 0 0 512 512;" xml:space="preserve">
<g>
	<path d="M464,48H48C21.6,48,0,69.6,0,96v320c0,26.4,21.6,48,48,48h416c26.4,0,48-21.6,48-48V96C512,69.6,490.4,48,464,48z
		 M199.37,259.186L64,364.632V113.811L199.37,259.186z M88.19,112h335.621L256,238L88.19,112z M204.644,264.85L256,320l51.355-55.15
		L412.633,400H99.368L204.644,264.85z M312.631,259.186L448,113.811v250.821L312.631,259.186z"/>
</g>
<g>
</g>
<g>
</g>
<g>
</g>
<g>
</g>
<g>
</g>
<g>
</g>
<g>
</g>
<g>
</g>
<g>
</g>
<g>
</g>
<g>
</g>
<g>
</g>
<g>
</g>
<g>
</g>
<g>
</g>
</svg>
