<?xml version="1.0" encoding="iso-8859-1"?>
<!-- Generator: Adobe Illustrator 16.0.0, SVG Export Plug-In . SVG Version: 6.00 Build 0)  -->
<!DOCTYPE svg PUBLIC "-//W3C//DTD SVG 1.1//EN" "http://www.w3.org/Graphics/SVG/1.1/DTD/svg11.dtd">
<svg version="1.1" id="Capa_1" xmlns="http://www.w3.org/2000/svg" xmlns:xlink="http://www.w3.org/1999/xlink" x="0px" y="0px"
	 width="448px" height="448px" viewBox="0 0 448 448" style="enable-background:new 0 0 448 448;" xml:space="preserve">
<g>
	<path d="M169.373,41.373l-160,160c-12.497,12.496-12.497,32.758,0,45.254l160,160c12.497,12.496,32.758,12.496,45.255,0
		c12.499-12.496,12.499-32.758,0-45.254L109.253,256H416c17.673,0,32-14.326,32-32c0-17.673-14.327-32-32-32H109.253L214.626,86.627
		C220.875,80.379,224,72.189,224,64s-3.124-16.379-9.372-22.627C202.129,28.876,181.87,28.876,169.373,41.373z"/>
</g>
<g>
</g>
<g>
</g>
<g>
</g>
<g>
</g>
<g>
</g>
<g>
</g>
<g>
</g>
<g>
</g>
<g>
</g>
<g>
</g>
<g>
</g>
<g>
</g>
<g>
</g>
<g>
</g>
<g>
</g>
</svg>
