<?xml version="1.0" encoding="iso-8859-1"?>
<!-- Generator: Adobe Illustrator 16.0.0, SVG Export Plug-In . SVG Version: 6.00 Build 0)  -->
<!DOCTYPE svg PUBLIC "-//W3C//DTD SVG 1.1//EN" "http://www.w3.org/Graphics/SVG/1.1/DTD/svg11.dtd">
<svg version="1.1" id="Capa_1" xmlns="http://www.w3.org/2000/svg" xmlns:xlink="http://www.w3.org/1999/xlink" x="0px" y="0px"
	 width="512.001px" height="512px" viewBox="0 0 512.001 512" style="enable-background:new 0 0 512.001 512;" xml:space="preserve"
	>
<g>
	<path d="M440.316,65.388c12.85,6.288,24.047,15.243,32.252,26.241c17.268,23.15,22.117,54.686,14.418,93.733
		c-7.781,39.513-25.209,72.868-50.584,97.022c-4.641,4.852-9.611,9.373-14.902,13.54c-27.178,21.401-61.498,32.714-99.254,32.714
		h-6.055H202.217L169.935,480h-66.212l5.043-23.15h23.064l32.282-151.363h94.135c90.124,0,165.47-55.537,185.63-149.966
		C466.736,48.603,390.076,0,324.172,0H99.532L0,456.85h76.016L64,512h131.83l32.282-151.363h94.134
		c90.125,0,165.471-55.539,185.631-149.968C524.734,131.83,487.475,84.704,440.316,65.388z M211.172,93.042h64.566
		c32.295,0,53.801,27.769,44.393,62.478c-8.066,34.72-41.693,62.488-75.32,62.488h-61.879L211.172,93.042z"/>
</g>
<g>
</g>
<g>
</g>
<g>
</g>
<g>
</g>
<g>
</g>
<g>
</g>
<g>
</g>
<g>
</g>
<g>
</g>
<g>
</g>
<g>
</g>
<g>
</g>
<g>
</g>
<g>
</g>
<g>
</g>
</svg>
