<?xml version="1.0" encoding="iso-8859-1"?>
<!-- Generator: Adobe Illustrator 16.0.0, SVG Export Plug-In . SVG Version: 6.00 Build 0)  -->
<!DOCTYPE svg PUBLIC "-//W3C//DTD SVG 1.1//EN" "http://www.w3.org/Graphics/SVG/1.1/DTD/svg11.dtd">
<svg version="1.1" id="Capa_1" xmlns="http://www.w3.org/2000/svg" xmlns:xlink="http://www.w3.org/1999/xlink" x="0px" y="0px"
	 width="512.002px" height="512.002px" viewBox="0 0 512.002 512.002" style="enable-background:new 0 0 512.002 512.002;"
	 xml:space="preserve">
<g>
	<path d="M480.002,144.002L368.004,32.003l32-32l111.998,111.999L480.002,144.002z M448,175.999l-16,176c-144,0-352,160-352,160
		l-26.565-26.565l136.832-136.831c5.487,2.184,11.467,3.396,17.733,3.396c26.51,0,48-21.49,48-48s-21.49-48-48-48s-48,21.49-48,48
		c0,6.266,1.213,12.245,3.397,17.732L26.565,458.564L0,431.999c0,0,160-208,160-352l176-16L448,175.999z"/>
</g>
<g>
</g>
<g>
</g>
<g>
</g>
<g>
</g>
<g>
</g>
<g>
</g>
<g>
</g>
<g>
</g>
<g>
</g>
<g>
</g>
<g>
</g>
<g>
</g>
<g>
</g>
<g>
</g>
<g>
</g>
</svg>
