<?xml version="1.0" encoding="iso-8859-1"?>
<!-- Generator: Adobe Illustrator 16.0.0, SVG Export Plug-In . SVG Version: 6.00 Build 0)  -->
<!DOCTYPE svg PUBLIC "-//W3C//DTD SVG 1.1//EN" "http://www.w3.org/Graphics/SVG/1.1/DTD/svg11.dtd">
<svg version="1.1" id="Capa_1" xmlns="http://www.w3.org/2000/svg" xmlns:xlink="http://www.w3.org/1999/xlink" x="0px" y="0px"
	 width="512px" height="512px" viewBox="0 0 512 512" style="enable-background:new 0 0 512 512;" xml:space="preserve">
<g>
	<path d="M176,448V274.096C135.545,285.324,125.704,291,83,291c-36.944,0-67-30.057-67-67c0-36.943,30.056-67,67-67
		c51.986,0,75.975-19.361,102.855-57.545c0.798-1.134,1.581-2.289,2.355-3.455H144V0h320v96h-28.502
		c2.15,31.831,11.096,40.56,22.041,51.223c8.445,8.226,18.957,18.464,26.639,37.015C492.242,203.715,496,229.061,496,264v24v8.49
		c0,30.969-25.635,56.162-57.143,56.162c-5.236,0-10.438-0.711-15.451-2.094c-10.498,9.854-24.5,15.48-39.406,15.48
		c-5.234,0-10.438-0.712-15.449-2.096c-10.498,9.854-24.502,15.481-39.408,15.481c-9.018,0-17.55-2.071-25.143-5.743V448
		c0,35.347-28.652,64-64,64C204.654,512,176,483.347,176,448z M432,48c0-8.836-7.162-16-16-16s-16,7.164-16,16s7.162,16,16,16
		S432,56.836,432,48z M272,445V320.266V317h32v3.266c0,13.323,11.279,24.164,25.143,24.164c8.686,0,16.646-4.234,21.293-11.328
		l8.123-12.394l12.979,7.149c3.781,2.082,8.092,3.184,12.463,3.184c8.686,0,16.645-4.234,21.291-11.326l8.121-12.395l12.98,7.147
		c3.781,2.083,8.092,3.185,12.465,3.185c13.861,0,25.143-10.84,25.143-24.162V285v-24c0-63.281-19.104-76.044-32.975-89.556
		C416.865,157.65,401.033,142.199,397.66,96H230.474c-4.132,7.878-8.632,15.35-13.545,22.329C183,166.525,147.156,192,83,192
		c-15.991,0-29,15.01-29,31s13.009,30,29,30c42.83,0,52.706-6.207,93-18.48c11.371-3.062,22.635-5.961,31.667-7.938L208,445
		c0,17.645,14.355,32,32,32C257.645,477,272,462.645,272,445z"/>
</g>
<g>
</g>
<g>
</g>
<g>
</g>
<g>
</g>
<g>
</g>
<g>
</g>
<g>
</g>
<g>
</g>
<g>
</g>
<g>
</g>
<g>
</g>
<g>
</g>
<g>
</g>
<g>
</g>
<g>
</g>
</svg>
