<?xml version="1.0" encoding="iso-8859-1"?>
<!-- Generator: Adobe Illustrator 16.0.0, SVG Export Plug-In . SVG Version: 6.00 Build 0)  -->
<!DOCTYPE svg PUBLIC "-//W3C//DTD SVG 1.1//EN" "http://www.w3.org/Graphics/SVG/1.1/DTD/svg11.dtd">
<svg version="1.1" id="Capa_1" xmlns="http://www.w3.org/2000/svg" xmlns:xlink="http://www.w3.org/1999/xlink" x="0px" y="0px"
	 width="512px" height="512px" viewBox="0 0 512 512" style="enable-background:new 0 0 512 512;" xml:space="preserve">
<g>
	<path d="M128,32h256v64H128V32z M480,128H32c-17.6,0-32,14.4-32,32v160c0,17.6,14.398,32,32,32h96v128h256V352h96
		c17.6,0,32-14.4,32-32V160C512,142.4,497.6,128,480,128z M352,448H160V288h192V448z M487.199,176c0,12.813-10.387,23.2-23.197,23.2
		c-12.812,0-23.201-10.387-23.201-23.2s10.389-23.2,23.199-23.2C476.814,152.8,487.199,163.187,487.199,176z"/>
</g>
<g>
</g>
<g>
</g>
<g>
</g>
<g>
</g>
<g>
</g>
<g>
</g>
<g>
</g>
<g>
</g>
<g>
</g>
<g>
</g>
<g>
</g>
<g>
</g>
<g>
</g>
<g>
</g>
<g>
</g>
</svg>
