<?xml version="1.0" encoding="iso-8859-1"?>
<!-- Generator: Adobe Illustrator 16.0.0, SVG Export Plug-In . SVG Version: 6.00 Build 0)  -->
<!DOCTYPE svg PUBLIC "-//W3C//DTD SVG 1.1//EN" "http://www.w3.org/Graphics/SVG/1.1/DTD/svg11.dtd">
<svg version="1.1" id="Capa_1" xmlns="http://www.w3.org/2000/svg" xmlns:xlink="http://www.w3.org/1999/xlink" x="0px" y="0px"
	 width="480.001px" height="480.001px" viewBox="0 0 480.001 480.001" style="enable-background:new 0 0 480.001 480.001;"
	 xml:space="preserve">
<g>
	<path d="M429.389,322.578c-22.828-22.778-51.863-34.536-78.975-34.536h-14.555l-31.953-32.004l127.811-128.019
		c31.953-32.005,31.953-96.014,0-128.019L240.002,192.028L48.286,0.001c-31.952,32.004-31.952,96.014,0,128.019l127.811,128.017
		l-31.953,32.004h-14.557c-27.11,0-56.146,11.759-78.974,34.538C9.802,363.3,4.288,423.821,38.298,457.754
		c14.985,14.951,35.144,22.247,56.498,22.247c27.108,0,56.145-11.757,78.973-34.536c26.792-26.73,38.371-62,33.542-92.674
		l32.692-32.744l32.688,32.744c-4.828,30.674,6.754,65.941,33.543,92.674c22.828,22.779,51.865,34.536,78.973,34.536
		c21.354,0,41.512-7.296,56.496-22.248C475.715,423.82,470.197,363.299,429.389,322.578z M160.513,390.77
		c-3.849,8.941-9.505,17.175-16.813,24.465c-7.318,7.302-15.586,12.959-24.574,16.812c-8.066,3.458-16.48,5.284-24.331,5.284
		c-7.573,0-18.306-1.701-26.431-9.806c-8.068-8.054-9.76-18.659-9.76-26.146c0-7.771,1.821-16.104,5.263-24.105
		c3.85-8.941,9.507-17.172,16.813-24.463c7.317-7.304,15.586-12.957,24.575-16.812c8.067-3.457,16.48-5.284,24.332-5.284
		c7.573,0,18.306,1.7,26.429,9.808c8.067,8.049,9.761,18.658,9.761,26.143C165.778,374.434,163.958,382.771,160.513,390.77z
		 M240.003,301.299c-24.957,0-45.188-20.266-45.188-45.263c0-24.996,20.231-45.26,45.188-45.26s45.187,20.264,45.187,45.26
		C285.189,281.035,264.959,301.299,240.003,301.299z M411.637,427.522c-8.123,8.104-18.855,9.806-26.43,9.806
		c-7.854,0-16.266-1.826-24.334-5.284c-8.984-3.853-17.254-9.51-24.57-16.812c-7.307-7.29-12.963-15.521-16.812-24.465
		c-3.441-7.998-5.264-16.336-5.264-24.104c0-7.481,1.693-18.095,9.762-26.144c8.123-8.104,18.855-9.808,26.43-9.808
		c7.85,0,16.266,1.827,24.33,5.284c8.988,3.854,17.258,9.509,24.574,16.812c7.307,7.289,12.963,15.521,16.812,24.463
		c3.441,7.998,5.264,16.335,5.264,24.104C421.396,408.863,419.703,419.471,411.637,427.522z"/>
</g>
<g>
</g>
<g>
</g>
<g>
</g>
<g>
</g>
<g>
</g>
<g>
</g>
<g>
</g>
<g>
</g>
<g>
</g>
<g>
</g>
<g>
</g>
<g>
</g>
<g>
</g>
<g>
</g>
<g>
</g>
</svg>
