<?xml version="1.0" encoding="iso-8859-1"?>
<!-- Generator: Adobe Illustrator 16.0.0, SVG Export Plug-In . SVG Version: 6.00 Build 0)  -->
<!DOCTYPE svg PUBLIC "-//W3C//DTD SVG 1.1//EN" "http://www.w3.org/Graphics/SVG/1.1/DTD/svg11.dtd">
<svg version="1.1" id="Capa_1" xmlns="http://www.w3.org/2000/svg" xmlns:xlink="http://www.w3.org/1999/xlink" x="0px" y="0px"
	 width="512px" height="512px" viewBox="0 0 512 512" style="enable-background:new 0 0 512 512;" xml:space="preserve">
<g>
	<path d="M512,214.628c0-100.463-29.396-181.969-65.74-182.613c0.145-0.003,0.289-0.015,0.436-0.015h-41.471
		c0,0-97.4,73.168-237.616,101.877c-4.28,22.646-7.015,49.637-7.015,80.751c0,31.114,2.733,58.104,7.015,80.75
		c140.213,28.709,237.616,101.878,237.616,101.878h41.471c-0.145,0-0.289-0.012-0.436-0.016
		C482.607,396.596,512,315.091,512,214.628z M432.412,369.626c-4.691,0-9.766-4.871-12.373-7.774
		c-6.314-7.031-12.396-17.979-17.594-31.664c-11.629-30.614-18.033-71.653-18.033-115.562c0-43.905,6.404-84.945,18.033-115.561
		c5.195-13.684,11.279-24.633,17.594-31.664c2.607-2.906,7.682-7.776,12.373-7.776c4.689,0,9.768,4.872,12.371,7.776
		c6.316,7.032,12.398,17.979,17.596,31.664c11.629,30.615,18.033,71.656,18.033,115.561c0,43.901-6.404,84.944-18.033,115.562
		c-5.195,13.686-11.281,24.633-17.596,31.664C442.18,364.755,437.104,369.626,432.412,369.626z M125.906,214.628
		c0-25.975,1.905-51.215,5.526-74.547c-23.686,3.277-44.471,5.162-70.17,5.162c-33.529,0-33.529,0-33.529,0L0,192.586v44.085
		l27.73,47.343c0,0,0,0,33.53,0c25.699,0,46.484,1.887,70.17,5.162C127.812,265.844,125.906,240.604,125.906,214.628z
		 M184.075,321.086l-63.999-12.255l40.921,160.771c2.118,8.317,10.372,12.521,18.343,9.327l59.278-23.726
		c7.972-3.188,11.164-11.982,7.098-19.542L184.075,321.086z M432.412,274.366c-1.811,0-3.764-1.877-4.77-2.996
		c-2.436-2.71-4.777-6.93-6.781-12.204c-4.48-11.8-6.949-27.617-6.949-44.539s2.469-32.739,6.949-44.539
		c2.004-5.274,4.35-9.494,6.781-12.204c1.006-1.12,2.959-2.997,4.77-2.997c1.809,0,3.766,1.878,4.77,2.997
		c2.436,2.71,4.777,6.929,6.779,12.204c4.482,11.799,6.951,27.617,6.951,44.539c0,16.921-2.469,32.739-6.951,44.539
		c-2.002,5.274-4.348,9.494-6.779,12.204C436.178,272.489,434.221,274.366,432.412,274.366z"/>
</g>
<g>
</g>
<g>
</g>
<g>
</g>
<g>
</g>
<g>
</g>
<g>
</g>
<g>
</g>
<g>
</g>
<g>
</g>
<g>
</g>
<g>
</g>
<g>
</g>
<g>
</g>
<g>
</g>
<g>
</g>
</svg>
