<?xml version="1.0" encoding="iso-8859-1"?>
<!-- Generator: Adobe Illustrator 16.0.0, SVG Export Plug-In . SVG Version: 6.00 Build 0)  -->
<!DOCTYPE svg PUBLIC "-//W3C//DTD SVG 1.1//EN" "http://www.w3.org/Graphics/SVG/1.1/DTD/svg11.dtd">
<svg version="1.1" id="Capa_1" xmlns="http://www.w3.org/2000/svg" xmlns:xlink="http://www.w3.org/1999/xlink" x="0px" y="0px"
	 width="512px" height="512px" viewBox="0 0 512 512" style="enable-background:new 0 0 512 512;" xml:space="preserve">
<g>
	<path d="M256,80.112c-27.466,0-53.994,4.331-78.847,12.871c-23.356,8.027-44.153,19.372-61.814,33.722
		C82.232,153.604,64,188.197,64,224.112c0,20.148,5.594,39.689,16.626,58.076c11.376,18.96,28.491,36.293,49.494,50.126
		c15.178,9.996,25.39,25.974,28.088,43.946c0.9,5.992,1.464,12.045,1.685,18.062c3.735-3.097,7.375-6.423,10.94-9.987
		c12.077-12.076,28.39-18.744,45.251-18.744c2.684,0,5.381,0.168,8.078,0.512c10.487,1.333,21.199,2.01,31.838,2.01
		c27.467,0,53.994-4.33,78.848-12.871c23.355-8.027,44.152-19.372,61.812-33.722c33.107-26.898,51.34-61.492,51.34-97.407
		s-18.232-70.508-51.34-97.407c-17.66-14.349-38.457-25.695-61.812-33.722C309.994,84.443,283.467,80.112,256,80.112z M256,16.112
		L256,16.112c141.385,0,256,93.125,256,208c0,114.876-114.615,208-256,208c-13.578,0-26.905-0.867-39.912-2.522
		C161.099,484.579,95.463,494.44,32,495.888V482.43c34.268-16.789,64-47.37,64-82.318c0-4.877-0.379-9.665-1.082-14.348
		C37.02,347.631,0,289.387,0,224.112C0,109.237,114.615,16.112,256,16.112z"/>
</g>
<g>
</g>
<g>
</g>
<g>
</g>
<g>
</g>
<g>
</g>
<g>
</g>
<g>
</g>
<g>
</g>
<g>
</g>
<g>
</g>
<g>
</g>
<g>
</g>
<g>
</g>
<g>
</g>
<g>
</g>
</svg>
