<?xml version="1.0" encoding="iso-8859-1"?>
<!-- Generator: Adobe Illustrator 16.0.0, SVG Export Plug-In . SVG Version: 6.00 Build 0)  -->
<!DOCTYPE svg PUBLIC "-//W3C//DTD SVG 1.1//EN" "http://www.w3.org/Graphics/SVG/1.1/DTD/svg11.dtd">
<svg version="1.1" id="Capa_1" xmlns="http://www.w3.org/2000/svg" xmlns:xlink="http://www.w3.org/1999/xlink" x="0px" y="0px"
	 width="512.003px" height="512.003px" viewBox="0 0 512.003 512.003" style="enable-background:new 0 0 512.003 512.003;"
	 xml:space="preserve">
<g>
	<path d="M352.003,141.491c0,26.51,21.489,48,48,48c26.51,0,48-21.49,48-48s-21.49-48-48-48
		C373.492,93.491,352.003,114.981,352.003,141.491z M479.198,62.295c-43.738-43.738-114.652-43.738-158.394,0
		c-17.789,17.789-28.343,40.073-31.66,63.196l0,0L186.797,280.605c-13.753,0.703-27.388,4.208-39.983,10.508l-78.946-61.712
		c-18.275-14.287-44.671-11.051-58.956,7.224c-14.286,18.275-11.051,44.671,7.224,58.957l77.967,60.946
		c-8.48,33.391,0.336,70.269,26.465,96.396c39.453,39.452,103.416,39.452,142.869,0c24.232-24.231,33.574-57.714,28.039-89.083
		l124.527-111.491l-0.002-0.001c23.124-3.319,45.408-13.872,63.197-31.661C522.938,176.949,522.938,106.034,479.198,62.295z
		 M192.002,448.84c-37.195,0-67.349-30.15-67.349-67.349c0-0.355,0.021-0.707,0.027-1.062l33.456,26.152
		c7.68,6.003,16.791,8.912,25.837,8.912c12.481,0,24.836-5.54,33.119-16.136c14.286-18.275,11.051-44.672-7.224-58.956
		l-31.75-24.818c4.481-0.939,9.124-1.439,13.884-1.439c37.196,0,67.351,30.152,67.351,67.35
		C259.353,418.689,229.198,448.84,192.002,448.84z M400.003,221.491c-44.184,0-80-35.817-80-80s35.816-80,80-80
		c44.183,0,80,35.817,80,80S444.186,221.491,400.003,221.491z"/>
</g>
<g>
</g>
<g>
</g>
<g>
</g>
<g>
</g>
<g>
</g>
<g>
</g>
<g>
</g>
<g>
</g>
<g>
</g>
<g>
</g>
<g>
</g>
<g>
</g>
<g>
</g>
<g>
</g>
<g>
</g>
</svg>
